<?xml version="1.0" encoding="utf-8"?>
<!-- Generator: Adobe Illustrator 19.1.0, SVG Export Plug-In . SVG Version: 6.00 Build 0)  -->
<svg version="1.1" id="圖層_1" xmlns="http://www.w3.org/2000/svg" xmlns:xlink="http://www.w3.org/1999/xlink" x="0px" y="0px"
	 viewBox="0 0 100 41.8" style="enable-background:new 0 0 100 41.8;" xml:space="preserve">
<style type="text/css">
	.st0{fill:#FFFFFF;}
	.st1{fill:#F46C00;}
	.st2{fill:#001655;}
	.st3{fill:#EEEEEF;}
	.st4{fill:#F7F7F7;}
	.st5{fill:url(#SVGID_13_);}
	.st6{fill:#182987;}
	.st7{fill:none;stroke:#182987;stroke-miterlimit:10;}
	.st8{fill:url(#SVGID_14_);}
	.st9{fill:url(#SVGID_15_);}
	.st10{fill:url(#SVGID_16_);}
	.st11{fill:url(#SVGID_21_);}
	.st12{fill:url(#SVGID_22_);}
	.st13{fill:url(#SVGID_23_);}
	.st14{fill:url(#SVGID_24_);}
	.st15{fill:url(#SVGID_27_);}
	.st16{fill:url(#SVGID_28_);}
	.st17{fill:url(#SVGID_29_);}
	.st18{fill:none;stroke:#3E3A39;stroke-miterlimit:10;}
	.st19{fill:url(#SVGID_30_);}
	.st20{fill:none;stroke:#182987;stroke-width:5;stroke-miterlimit:10;}
	.st21{fill:url(#SVGID_31_);}
	.st22{fill:url(#SVGID_32_);}
	.st23{fill:url(#SVGID_33_);}
	.st24{fill:url(#SVGID_34_);}
	.st25{fill:url(#SVGID_35_);}
	.st26{fill:url(#SVGID_36_);}
	.st27{fill:none;stroke:url(#SVGID_37_);stroke-width:2;stroke-miterlimit:10;}
	.st28{fill:none;stroke:url(#SVGID_38_);stroke-width:2;stroke-miterlimit:10;}
	.st29{fill:none;stroke:url(#SVGID_39_);stroke-width:2;stroke-miterlimit:10;}
	.st30{fill:none;stroke:url(#SVGID_40_);stroke-width:2;stroke-miterlimit:10;}
	.st31{fill:url(#SVGID_41_);}
	.st32{fill:url(#SVGID_42_);}
	.st33{fill:url(#SVGID_43_);}
	.st34{fill:url(#SVGID_44_);}
	.st35{fill:url(#SVGID_45_);}
	.st36{fill:url(#SVGID_46_);}
	.st37{fill:url(#SVGID_47_);}
	.st38{fill:url(#SVGID_48_);}
	.st39{fill:url(#SVGID_49_);}
	.st40{fill:url(#SVGID_50_);}
	.st41{fill:none;stroke:#231815;stroke-width:0.25;stroke-miterlimit:10;}
	.st42{fill:none;stroke:url(#SVGID_51_);stroke-width:8;stroke-miterlimit:10;}
	.st43{clip-path:url(#SVGID_53_);}
	.st44{clip-path:url(#SVGID_55_);}
	.st45{fill:url(#SVGID_56_);}
	.st46{fill:url(#SVGID_57_);}
	.st47{fill:url(#SVGID_58_);}
	.st48{fill:none;stroke:url(#SVGID_59_);stroke-width:3;stroke-miterlimit:10;stroke-dasharray:11.9991,11.9991;}
	.st49{fill:url(#SVGID_60_);}
	.st50{fill:url(#SVGID_61_);}
	.st51{fill:#FFFFFF;stroke:#231815;stroke-miterlimit:10;}
	.st52{clip-path:url(#SVGID_65_);}
	.st53{clip-path:url(#SVGID_67_);fill:url(#SVGID_68_);}
	.st54{fill:#3E3A39;}
	.st55{fill:#DBDCDC;}
	.st56{fill:url(#SVGID_75_);}
	.st57{fill:url(#SVGID_76_);}
	.st58{fill:url(#SVGID_77_);}
	.st59{fill:url(#SVGID_78_);}
	.st60{fill:url(#SVGID_79_);}
	.st61{fill:none;stroke:url(#SVGID_80_);stroke-width:2;stroke-miterlimit:10;}
	.st62{fill:none;stroke:url(#SVGID_81_);stroke-width:2;stroke-miterlimit:10;}
	.st63{fill:url(#SVGID_82_);}
	.st64{fill:url(#SVGID_83_);}
	.st65{fill:url(#SVGID_84_);}
	.st66{fill:url(#SVGID_85_);}
	.st67{fill:url(#SVGID_86_);}
	.st68{fill:url(#SVGID_87_);}
	.st69{fill:url(#SVGID_88_);}
	.st70{fill:url(#SVGID_89_);}
	.st71{fill:url(#SVGID_90_);}
	.st72{clip-path:url(#SVGID_98_);}
	.st73{fill:url(#SVGID_103_);}
	.st74{fill:url(#SVGID_104_);}
	.st75{fill:url(#SVGID_105_);}
	.st76{fill:url(#SVGID_106_);}
	.st77{fill:url(#SVGID_107_);}
	.st78{fill:url(#SVGID_108_);}
	.st79{fill:url(#SVGID_109_);}
	.st80{fill:url(#SVGID_110_);}
	.st81{fill:none;stroke:url(#SVGID_111_);stroke-width:8;stroke-miterlimit:10;}
	.st82{fill:url(#SVGID_112_);}
	.st83{fill:none;stroke:url(#SVGID_113_);stroke-width:3;stroke-miterlimit:10;}
	.st84{fill:none;stroke:url(#SVGID_114_);stroke-width:3;stroke-miterlimit:10;}
	.st85{fill:none;stroke:url(#SVGID_115_);stroke-width:3;stroke-miterlimit:10;}
	.st86{fill:none;stroke:url(#SVGID_116_);stroke-width:3;stroke-miterlimit:10;}
	.st87{fill:url(#SVGID_117_);}
	.st88{fill:url(#SVGID_118_);}
	.st89{fill:url(#SVGID_119_);}
	.st90{clip-path:url(#SVGID_121_);}
	.st91{fill:url(#SVGID_122_);}
	.st92{fill:url(#SVGID_123_);}
	.st93{fill:url(#SVGID_124_);}
	.st94{fill:url(#SVGID_125_);}
	.st95{fill:url(#SVGID_126_);}
	.st96{fill:url(#SVGID_127_);}
	.st97{fill:url(#SVGID_128_);}
	.st98{fill:url(#SVGID_129_);}
	.st99{fill:url(#SVGID_130_);}
	.st100{fill:url(#SVGID_131_);}
	.st101{fill:url(#SVGID_132_);}
	.st102{fill:#E76A0F;}
	.st103{fill:#040000;}
	.st104{fill:#365288;stroke:#231815;stroke-miterlimit:10;}
	.st105{fill:url(#SVGID_135_);}
	.st106{fill:url(#SVGID_138_);}
	.st107{fill:url(#SVGID_139_);}
	.st108{fill:url(#SVGID_140_);}
	.st109{fill:url(#SVGID_141_);}
	.st110{fill:url(#SVGID_142_);}
	.st111{fill:url(#SVGID_143_);}
	.st112{fill:none;stroke:url(#SVGID_144_);stroke-width:2;stroke-miterlimit:10;}
	.st113{fill:none;stroke:url(#SVGID_145_);stroke-width:2;stroke-miterlimit:10;}
	.st114{fill:none;stroke:url(#SVGID_146_);stroke-width:2;stroke-miterlimit:10;}
	.st115{fill:none;stroke:url(#SVGID_147_);stroke-width:2;stroke-miterlimit:10;}
	.st116{fill:url(#SVGID_148_);}
	.st117{fill:none;stroke:url(#SVGID_149_);stroke-miterlimit:10;}
	.st118{fill:url(#SVGID_150_);}
	.st119{fill:url(#SVGID_151_);}
	.st120{fill:url(#SVGID_154_);}
	.st121{fill:none;stroke:#182987;stroke-width:4;stroke-miterlimit:10;}
	.st122{fill:url(#SVGID_155_);}
	.st123{fill:#888888;}
	.st124{fill:none;stroke:#9E9E9F;stroke-miterlimit:10;}
	.st125{fill:url(#SVGID_160_);}
	.st126{fill:url(#SVGID_161_);}
	.st127{fill:url(#SVGID_162_);}
	.st128{fill:url(#SVGID_163_);}
	.st129{fill:url(#SVGID_164_);}
	.st130{fill:url(#SVGID_165_);}
	.st131{fill:url(#SVGID_166_);}
	.st132{fill:url(#SVGID_169_);}
	.st133{fill:url(#SVGID_170_);}
	.st134{fill:url(#SVGID_171_);}
	.st135{fill:url(#SVGID_184_);}
	.st136{fill:url(#SVGID_189_);}
	.st137{fill:url(#SVGID_194_);}
	.st138{fill:url(#SVGID_195_);}
	.st139{fill:url(#SVGID_196_);}
	.st140{fill:url(#SVGID_197_);}
	.st141{fill:url(#SVGID_198_);}
	.st142{fill:url(#SVGID_199_);}
	.st143{fill:url(#SVGID_200_);}
	.st144{fill:url(#SVGID_201_);}
	.st145{fill:url(#SVGID_202_);}
	.st146{fill:url(#SVGID_203_);}
	.st147{fill:url(#SVGID_204_);}
	.st148{fill:url(#SVGID_205_);}
	.st149{fill:url(#SVGID_206_);}
	.st150{fill:url(#SVGID_207_);}
	.st151{fill:url(#SVGID_208_);}
	.st152{fill:url(#SVGID_209_);}
	.st153{fill:none;stroke:url(#SVGID_210_);stroke-width:3;stroke-miterlimit:10;}
	.st154{fill:url(#SVGID_211_);}
	.st155{fill:url(#SVGID_212_);}
	.st156{fill:none;stroke:url(#SVGID_213_);stroke-width:3;stroke-miterlimit:10;}
	.st157{fill:none;stroke:url(#SVGID_214_);stroke-width:3;stroke-miterlimit:10;}
	.st158{fill:none;stroke:url(#SVGID_215_);stroke-width:3;stroke-miterlimit:10;}
	.st159{fill:url(#SVGID_216_);}
	.st160{fill:url(#SVGID_217_);}
	.st161{fill:none;stroke:url(#SVGID_218_);stroke-width:3;stroke-miterlimit:10;}
	.st162{fill:url(#SVGID_219_);}
	.st163{fill:none;stroke:#182987;stroke-width:3;stroke-miterlimit:10;}
	.st164{clip-path:url(#SVGID_221_);fill:url(#SVGID_222_);}
	.st165{clip-path:url(#SVGID_224_);fill:url(#SVGID_225_);}
	.st166{fill:url(#SVGID_226_);}
	.st167{fill:#365288;}
	.st168{fill:url(#SVGID_231_);}
	.st169{fill:url(#SVGID_234_);}
	.st170{fill:none;stroke:#E73828;stroke-width:5;stroke-miterlimit:10;}
	.st171{fill:url(#SVGID_237_);}
	.st172{fill:url(#SVGID_238_);}
	.st173{fill:url(#SVGID_239_);}
	.st174{fill:url(#SVGID_242_);}
	.st175{fill:url(#SVGID_245_);}
	.st176{fill:url(#SVGID_248_);}
	.st177{fill:url(#SVGID_251_);}
	.st178{clip-path:url(#SVGID_253_);}
	.st179{fill:url(#SVGID_256_);}
	.st180{clip-path:url(#SVGID_258_);}
	.st181{fill:url(#SVGID_261_);}
	.st182{clip-path:url(#SVGID_263_);}
	.st183{fill:url(#SVGID_266_);}
	.st184{fill:url(#SVGID_267_);}
	.st185{fill:url(#SVGID_268_);}
	.st186{fill:none;stroke:url(#SVGID_269_);stroke-width:3;stroke-miterlimit:10;}
	.st187{fill:none;stroke:url(#SVGID_270_);stroke-width:3;stroke-miterlimit:10;}
	.st188{fill:none;stroke:url(#SVGID_271_);stroke-width:1.6;stroke-miterlimit:10;}
	.st189{fill:none;stroke:url(#SVGID_272_);stroke-width:1.6;stroke-miterlimit:10;}
	.st190{fill:none;stroke:url(#SVGID_273_);stroke-width:1.6;stroke-miterlimit:10;}
	.st191{fill:none;stroke:url(#SVGID_274_);stroke-width:1.6;stroke-miterlimit:10;}
	.st192{fill:none;stroke:url(#SVGID_275_);stroke-width:1.6;stroke-miterlimit:10;}
	.st193{fill:none;stroke:url(#SVGID_276_);stroke-width:1.6;stroke-miterlimit:10;}
	.st194{fill:none;stroke:url(#SVGID_277_);stroke-width:1.6;stroke-miterlimit:10;}
	.st195{fill:none;stroke:url(#SVGID_278_);stroke-width:1.6;stroke-miterlimit:10;}
	.st196{fill:none;stroke:url(#SVGID_279_);stroke-width:2;stroke-miterlimit:10;}
	.st197{fill:none;stroke:url(#SVGID_280_);stroke-width:2;stroke-miterlimit:10;}
	.st198{fill:none;stroke:url(#SVGID_281_);stroke-width:2;stroke-miterlimit:10;}
	.st199{fill:none;stroke:url(#SVGID_282_);stroke-width:2;stroke-miterlimit:10;}
	.st200{fill:none;stroke:url(#SVGID_283_);stroke-width:2;stroke-miterlimit:10;}
	.st201{fill:none;stroke:url(#SVGID_284_);stroke-width:2;stroke-miterlimit:10;}
	.st202{fill:none;stroke:#231815;stroke-miterlimit:10;}
	.st203{fill:url(#SVGID_285_);}
	.st204{fill:url(#SVGID_286_);}
	.st205{fill:url(#SVGID_287_);}
	.st206{fill:url(#SVGID_288_);}
	.st207{fill:none;stroke:url(#SVGID_289_);stroke-width:3;stroke-miterlimit:10;}
	.st208{fill:url(#SVGID_290_);}
	.st209{fill:url(#SVGID_291_);}
	.st210{fill:none;stroke:url(#SVGID_292_);stroke-width:3;stroke-miterlimit:10;}
	.st211{fill:none;stroke:url(#SVGID_293_);stroke-width:3;stroke-miterlimit:10;}
	.st212{fill:none;stroke:url(#SVGID_294_);stroke-width:3;stroke-miterlimit:10;}
	.st213{fill:url(#SVGID_295_);}
	.st214{fill:url(#SVGID_296_);}
	.st215{fill:none;stroke:url(#SVGID_297_);stroke-width:3;stroke-miterlimit:10;}
	.st216{fill:url(#SVGID_298_);}
	.st217{fill:url(#SVGID_299_);}
	.st218{fill:url(#SVGID_300_);}
	.st219{fill:url(#SVGID_301_);}
	.st220{fill:url(#SVGID_302_);}
	.st221{fill:url(#SVGID_303_);}
	.st222{fill:url(#SVGID_304_);}
	.st223{fill:url(#SVGID_305_);}
	.st224{fill:none;stroke:url(#SVGID_306_);stroke-miterlimit:10;}
	.st225{fill:url(#SVGID_307_);}
	.st226{fill:url(#SVGID_308_);}
	.st227{fill:url(#SVGID_309_);}
	.st228{fill:url(#SVGID_310_);}
	.st229{fill:url(#SVGID_311_);}
	.st230{fill:url(#SVGID_312_);}
	.st231{fill:url(#SVGID_313_);}
	.st232{fill:url(#SVGID_314_);stroke:#FFFFFF;stroke-miterlimit:10;}
	.st233{fill:none;stroke:url(#SVGID_315_);stroke-miterlimit:10;}
	.st234{fill:url(#SVGID_316_);}
	.st235{fill:url(#SVGID_317_);}
	.st236{fill:url(#SVGID_318_);}
	.st237{fill:url(#SVGID_319_);}
	.st238{fill:url(#SVGID_320_);}
	.st239{fill:url(#SVGID_321_);}
	.st240{fill:url(#SVGID_322_);}
	.st241{fill:url(#SVGID_325_);}
	.st242{fill:none;stroke:#182987;stroke-width:2;stroke-miterlimit:10;}
	.st243{fill:url(#SVGID_326_);}
	.st244{fill:url(#SVGID_327_);}
	.st245{fill:url(#SVGID_328_);}
	.st246{fill:url(#SVGID_329_);}
	.st247{fill:url(#SVGID_330_);}
	.st248{fill:url(#SVGID_331_);}
	.st249{fill:url(#SVGID_332_);}
	.st250{fill:url(#SVGID_333_);}
	.st251{fill:url(#SVGID_334_);}
	.st252{opacity:0.95;}
	.st253{fill:none;stroke:#FFFFFF;stroke-width:3;stroke-miterlimit:10;}
	.st254{fill:url(#SVGID_335_);}
	.st255{fill:none;stroke:#231815;stroke-width:2;stroke-miterlimit:10;}
	.st256{fill:none;stroke:url(#SVGID_336_);stroke-width:2;stroke-miterlimit:10;}
	.st257{fill:none;stroke:url(#SVGID_337_);stroke-width:2;stroke-miterlimit:10;}
	.st258{fill:url(#SVGID_338_);}
	.st259{fill:none;stroke:url(#SVGID_339_);stroke-width:2;stroke-miterlimit:10;}
	.st260{fill:none;stroke:url(#SVGID_340_);stroke-width:2;stroke-miterlimit:10;}
	.st261{fill:none;stroke:url(#SVGID_341_);stroke-width:2;stroke-miterlimit:10;}
	.st262{fill:none;stroke:url(#SVGID_342_);stroke-width:2;stroke-miterlimit:10;}
	.st263{fill:none;stroke:url(#SVGID_343_);stroke-width:2;stroke-miterlimit:10;}
	.st264{fill:none;stroke:url(#SVGID_344_);stroke-width:2;stroke-miterlimit:10;}
	.st265{fill:none;stroke:url(#SVGID_345_);stroke-width:2;stroke-miterlimit:10;}
	.st266{fill:url(#SVGID_346_);}
	.st267{fill:none;stroke:url(#SVGID_347_);stroke-width:2;stroke-miterlimit:10;}
	.st268{fill:none;stroke:url(#SVGID_348_);stroke-width:2;stroke-miterlimit:10;}
	.st269{fill:none;stroke:url(#SVGID_349_);stroke-width:2;stroke-miterlimit:10;}
	.st270{fill:none;stroke:url(#SVGID_350_);stroke-width:2;stroke-miterlimit:10;}
	.st271{fill:none;stroke:url(#SVGID_351_);stroke-width:2;stroke-miterlimit:10;}
	.st272{fill:none;stroke:url(#SVGID_352_);stroke-width:2;stroke-miterlimit:10;}
	.st273{fill:none;stroke:url(#SVGID_353_);stroke-width:2;stroke-miterlimit:10;}
	.st274{fill:url(#SVGID_354_);}
	.st275{fill:none;stroke:url(#SVGID_355_);stroke-width:2;stroke-miterlimit:10;}
	.st276{fill:none;stroke:url(#SVGID_356_);stroke-width:2;stroke-miterlimit:10;}
	.st277{fill:none;stroke:url(#SVGID_357_);stroke-width:2;stroke-miterlimit:10;}
	.st278{fill:url(#SVGID_358_);}
	.st279{fill:url(#SVGID_359_);}
	.st280{fill:url(#SVGID_360_);}
	.st281{fill:#6B6B6B;}
	.st282{fill:#BFBFBF;}
	.st283{fill:#B3D000;}
	.st284{fill:#00913D;}
	.st285{fill:#00763C;}
	.st286{fill:#9C0E59;}
	.st287{fill:#51AF33;}
	.st288{fill:#91C433;}
	.st289{fill:#F9BE00;}
	.st290{fill:#EA6118;}
	.st291{fill:#EE8500;}
	.st292{fill:#E95812;}
	.st293{fill:#EC6D22;}
	.st294{fill:#E78400;}
	.st295{fill:#F9BF00;}
	.st296{fill:#E9521A;}
	.st297{fill:#7F104A;}
	.st298{fill:#E40080;}
	.st299{fill:#F5AA00;}
	.st300{fill:#780712;}
	.st301{fill:#790910;}
	.st302{fill:#DF0518;}
	.st303{fill:#C61A1A;}
	.st304{fill:#B91221;}
	.st305{fill:#640015;}
	.st306{fill:#EC7026;}
	.st307{fill:#F7C000;}
	.st308{fill:#6F043D;}
	.st309{fill:#F5A600;}
	.st310{fill:#F5A900;}
</style>
<g>
	<rect x="2.3" y="16.5" class="st0" width="0.4" height="14"/>
	<rect x="4.8" y="15.6" class="st0" width="0.4" height="14.9"/>
	<rect x="7.3" y="15" class="st0" width="0.4" height="15.5"/>
	<rect x="9.8" y="11" class="st0" width="0.4" height="19.6"/>
	<rect x="12.3" y="6.8" class="st0" width="0.4" height="23.8"/>
	<rect x="14.8" y="5.9" class="st0" width="0.4" height="24.7"/>
	<rect x="17.3" y="7.4" class="st0" width="0.4" height="23.2"/>
	<rect x="19.8" y="3.9" class="st0" width="0.4" height="26.7"/>
	<rect x="22.3" y="3.1" class="st0" width="0.4" height="27.4"/>
	<rect x="24.7" y="4.5" class="st0" width="0.4" height="26"/>
	<rect x="27.2" y="17.1" class="st0" width="0.4" height="13.4"/>
	<rect x="29.7" y="18.8" class="st0" width="0.4" height="11.8"/>
	<rect x="32.2" y="17.7" class="st0" width="0.4" height="12.8"/>
	<rect x="34.7" y="13" class="st0" width="0.4" height="17.5"/>
	<rect x="37.2" y="8.5" class="st0" width="0.4" height="22.1"/>
	<rect x="39.7" y="4.8" class="st0" width="0.4" height="25.7"/>
	<rect x="42.2" y="6.3" class="st0" width="0.4" height="24.2"/>
	<rect x="44.7" y="7.8" class="st0" width="0.4" height="22.7"/>
	<rect x="47.2" y="12.4" class="st0" width="0.4" height="18.2"/>
	<rect x="49.7" y="10.7" class="st0" width="0.4" height="19.9"/>
	<rect x="52.2" y="8.3" class="st0" width="0.4" height="22.3"/>
	<rect x="54.7" y="5.6" class="st0" width="0.4" height="25"/>
	<rect x="57.2" y="6.3" class="st0" width="0.4" height="24.2"/>
	<rect x="59.7" y="5.5" class="st0" width="0.4" height="25.1"/>
	<rect x="64.8" y="8.8" class="st0" width="0.4" height="21.8"/>
	<rect x="67.3" y="16" class="st0" width="0.4" height="14.5"/>
	<rect x="69.8" y="14.4" class="st0" width="0.4" height="16.1"/>
	<rect x="72.3" y="13.4" class="st0" width="0.4" height="17.2"/>
	<rect x="74.7" y="7.7" class="st0" width="0.4" height="22.8"/>
	<rect x="77.2" y="6.9" class="st0" width="0.4" height="23.7"/>
	<rect x="79.7" y="6.4" class="st0" width="0.4" height="24.2"/>
	<rect x="82.2" y="6.2" class="st0" width="0.4" height="24.3"/>
	<rect x="84.7" y="7.7" class="st0" width="0.4" height="22.8"/>
	<rect x="87.2" y="8.8" class="st0" width="0.4" height="21.7"/>
	<rect x="89.7" y="7.3" class="st0" width="0.4" height="23.2"/>
	<rect x="92.2" y="12.8" class="st0" width="0.4" height="17.7"/>
	<rect x="94.7" y="12.1" class="st0" width="0.4" height="18.5"/>
	<rect x="97.2" y="16.4" class="st0" width="0.4" height="14.1"/>
	<path class="st0" d="M62.2,4.7h0.4v25.8h-0.4V4.7z"/>
	<polygon class="st0" points="7.3,38.1 2.4,31.6 2.4,31.6 2.2,31.6 2.2,39 2.6,39 2.6,32.6 7.6,39.2 7.6,39.2 7.7,39.2 7.7,31.8 
		7.3,31.8 	"/>
	<polygon class="st0" points="10.1,35.6 13.5,35.6 13.5,35.2 10.1,35.2 10.1,32.1 13.9,32.1 13.9,31.8 9.7,31.8 9.7,39 14.1,39 
		14.1,38.6 10.1,38.6 	"/>
	<polygon class="st0" points="21.8,38.1 19.6,31.6 19.6,31.6 19.5,31.6 17.2,38.1 15.3,31.8 15.3,31.8 14.9,31.8 17.1,39.2 
		17.2,39.2 17.3,39.2 19.5,32.7 21.7,39.2 21.9,39.2 24.1,31.8 23.7,31.8 	"/>
	<polygon class="st0" points="31.5,35.9 28.2,31.6 28.2,31.6 28.1,31.6 28.1,39 28.5,39 28.5,32.7 31.4,36.5 31.4,36.5 31.5,36.5 
		34.4,32.7 34.4,39 34.8,39 34.8,31.6 34.7,31.6 	"/>
	<polygon class="st0" points="37.2,35.6 40.6,35.6 40.6,35.2 37.2,35.2 37.2,32.1 41,32.1 41,31.8 36.8,31.8 36.8,39 41.2,39 
		41.2,38.6 37.2,38.6 	"/>
	<path class="st0" d="M44.3,31.8h-1.7V39h1.7c2.4,0,3.8-1.4,3.8-3.6C48.2,33.2,46.7,31.8,44.3,31.8z M44.3,32.2
		c2.2,0,3.5,1.2,3.5,3.2s-1.3,3.2-3.5,3.2h-1.2v-6.5H44.3z"/>
	<rect x="49.7" y="31.8" class="st0" width="0.4" height="7.3"/>
	<path class="st0" d="M54.6,31.6h-0.1l-3,7.4h0.4l0.8-2.1h3.5l0.8,2.1h0.5L54.6,31.6L54.6,31.6z M56.1,36.5h-3.1l1.6-4L56.1,36.5z"
		/>
	<path class="st0" d="M67.1,37.4c-0.6,0.8-1.6,1.3-2.6,1.3c-1.9,0-3.3-1.4-3.3-3.3c0-1.9,1.4-3.3,3.2-3.3c1,0,1.9,0.4,2.5,1.2l0,0
		l0.3-0.2l0,0c-0.7-0.9-1.7-1.3-2.8-1.3c-2.1,0-3.6,1.6-3.7,3.7c0,1,0.4,2,1,2.6c0.7,0.7,1.6,1.1,2.7,1.1c1.2,0,2.3-0.5,3-1.4l0,0
		L67.1,37.4L67.1,37.4z"/>
	<polygon class="st0" points="69.2,35.6 72.6,35.6 72.6,35.2 69.2,35.2 69.2,32.1 73,32.1 73,31.8 68.8,31.8 68.8,39 73.2,39 
		73.2,38.6 69.2,38.6 	"/>
	<polygon class="st0" points="79.7,38.1 74.8,31.6 74.8,31.6 74.7,31.6 74.7,39 75.1,39 75.1,32.6 80,39.2 80,39.2 80.1,39.2 
		80.1,31.8 79.7,31.8 	"/>
	<polygon class="st0" points="81.4,32.1 83.6,32.1 83.6,39 84.1,39 84.1,32.1 86.4,32.1 86.4,31.8 81.4,31.8 	"/>
	<polygon class="st0" points="88,35.6 91.4,35.6 91.4,35.2 88,35.2 88,32.1 91.8,32.1 91.8,31.8 87.6,31.8 87.6,39 92,39 92,38.6 
		88,38.6 	"/>
	<path class="st0" d="M96.1,35.8c1-0.2,1.7-1,1.7-2c0-1.3-0.9-2.1-2.2-2.1h-2.1V39h0.4v-3.2h1.7l2,3.1l0,0h0.5L96.1,35.8z
		 M93.9,32.1h1.6c1.1,0,1.8,0.6,1.8,1.7c0,1-0.7,1.6-1.8,1.6h-1.6V32.1z"/>
</g>
</svg>
