<?xml version="1.0" encoding="utf-8"?>
<!-- Generator: Adobe Illustrator 19.1.0, SVG Export Plug-In . SVG Version: 6.00 Build 0)  -->
<svg version="1.1" id="圖層_1" xmlns="http://www.w3.org/2000/svg" xmlns:xlink="http://www.w3.org/1999/xlink" x="0px" y="0px"
	 viewBox="0 0 132 30.7" style="enable-background:new 0 0 132 30.7;" xml:space="preserve">
<style type="text/css">
	.st0{fill:#FFFFFF;}
	.st1{fill:#F46C00;}
	.st2{fill:#001655;}
	.st3{fill:#EEEEEF;}
	.st4{fill:#F7F7F7;}
	.st5{fill:url(#SVGID_13_);}
	.st6{fill:#182987;}
	.st7{fill:none;stroke:#182987;stroke-miterlimit:10;}
	.st8{fill:url(#SVGID_14_);}
	.st9{fill:url(#SVGID_15_);}
	.st10{fill:url(#SVGID_16_);}
	.st11{fill:url(#SVGID_21_);}
	.st12{fill:url(#SVGID_22_);}
	.st13{fill:url(#SVGID_23_);}
	.st14{fill:url(#SVGID_24_);}
	.st15{fill:url(#SVGID_27_);}
	.st16{fill:url(#SVGID_28_);}
	.st17{fill:url(#SVGID_29_);}
	.st18{fill:none;stroke:#3E3A39;stroke-miterlimit:10;}
	.st19{fill:url(#SVGID_30_);}
	.st20{fill:none;stroke:#182987;stroke-width:5;stroke-miterlimit:10;}
	.st21{fill:url(#SVGID_31_);}
	.st22{fill:url(#SVGID_32_);}
	.st23{fill:url(#SVGID_33_);}
	.st24{fill:url(#SVGID_34_);}
	.st25{fill:url(#SVGID_35_);}
	.st26{fill:url(#SVGID_36_);}
	.st27{fill:none;stroke:url(#SVGID_37_);stroke-width:2;stroke-miterlimit:10;}
	.st28{fill:none;stroke:url(#SVGID_38_);stroke-width:2;stroke-miterlimit:10;}
	.st29{fill:none;stroke:url(#SVGID_39_);stroke-width:2;stroke-miterlimit:10;}
	.st30{fill:none;stroke:url(#SVGID_40_);stroke-width:2;stroke-miterlimit:10;}
	.st31{fill:url(#SVGID_41_);}
	.st32{fill:url(#SVGID_42_);}
	.st33{fill:url(#SVGID_43_);}
	.st34{fill:url(#SVGID_44_);}
	.st35{fill:url(#SVGID_45_);}
	.st36{fill:url(#SVGID_46_);}
	.st37{fill:url(#SVGID_47_);}
	.st38{fill:url(#SVGID_48_);}
	.st39{fill:url(#SVGID_49_);}
	.st40{fill:url(#SVGID_50_);}
	.st41{fill:none;stroke:#231815;stroke-width:0.25;stroke-miterlimit:10;}
	.st42{fill:none;stroke:url(#SVGID_51_);stroke-width:8;stroke-miterlimit:10;}
	.st43{clip-path:url(#SVGID_53_);}
	.st44{clip-path:url(#SVGID_55_);}
	.st45{fill:url(#SVGID_56_);}
	.st46{fill:url(#SVGID_57_);}
	.st47{fill:url(#SVGID_58_);}
	.st48{fill:none;stroke:url(#SVGID_59_);stroke-width:3;stroke-miterlimit:10;stroke-dasharray:11.9991,11.9991;}
	.st49{fill:url(#SVGID_60_);}
	.st50{fill:url(#SVGID_61_);}
	.st51{fill:#FFFFFF;stroke:#231815;stroke-miterlimit:10;}
	.st52{clip-path:url(#SVGID_65_);}
	.st53{clip-path:url(#SVGID_67_);fill:url(#SVGID_68_);}
	.st54{fill:#3E3A39;}
	.st55{fill:#DBDCDC;}
	.st56{fill:url(#SVGID_75_);}
	.st57{fill:url(#SVGID_76_);}
	.st58{fill:url(#SVGID_77_);}
	.st59{fill:url(#SVGID_78_);}
	.st60{fill:url(#SVGID_79_);}
	.st61{fill:none;stroke:url(#SVGID_80_);stroke-width:2;stroke-miterlimit:10;}
	.st62{fill:none;stroke:url(#SVGID_81_);stroke-width:2;stroke-miterlimit:10;}
	.st63{fill:url(#SVGID_82_);}
	.st64{fill:url(#SVGID_83_);}
	.st65{fill:url(#SVGID_84_);}
	.st66{fill:url(#SVGID_85_);}
	.st67{fill:url(#SVGID_86_);}
	.st68{fill:url(#SVGID_87_);}
	.st69{fill:url(#SVGID_88_);}
	.st70{fill:url(#SVGID_89_);}
	.st71{fill:url(#SVGID_90_);}
	.st72{clip-path:url(#SVGID_98_);}
	.st73{fill:url(#SVGID_103_);}
	.st74{fill:url(#SVGID_104_);}
	.st75{fill:url(#SVGID_105_);}
	.st76{fill:url(#SVGID_106_);}
	.st77{fill:url(#SVGID_107_);}
	.st78{fill:url(#SVGID_108_);}
	.st79{fill:url(#SVGID_109_);}
	.st80{fill:url(#SVGID_110_);}
	.st81{fill:none;stroke:url(#SVGID_111_);stroke-width:8;stroke-miterlimit:10;}
	.st82{fill:url(#SVGID_112_);}
	.st83{fill:none;stroke:url(#SVGID_113_);stroke-width:3;stroke-miterlimit:10;}
	.st84{fill:none;stroke:url(#SVGID_114_);stroke-width:3;stroke-miterlimit:10;}
	.st85{fill:none;stroke:url(#SVGID_115_);stroke-width:3;stroke-miterlimit:10;}
	.st86{fill:none;stroke:url(#SVGID_116_);stroke-width:3;stroke-miterlimit:10;}
	.st87{fill:url(#SVGID_117_);}
	.st88{fill:url(#SVGID_118_);}
	.st89{fill:url(#SVGID_119_);}
	.st90{clip-path:url(#SVGID_121_);}
	.st91{fill:url(#SVGID_122_);}
	.st92{fill:url(#SVGID_123_);}
	.st93{fill:url(#SVGID_124_);}
	.st94{fill:url(#SVGID_125_);}
	.st95{fill:url(#SVGID_126_);}
	.st96{fill:url(#SVGID_127_);}
	.st97{fill:url(#SVGID_128_);}
	.st98{fill:url(#SVGID_129_);}
	.st99{fill:url(#SVGID_130_);}
	.st100{fill:url(#SVGID_131_);}
	.st101{fill:url(#SVGID_132_);}
	.st102{fill:#E76A0F;}
	.st103{fill:#040000;}
	.st104{fill:#365288;stroke:#231815;stroke-miterlimit:10;}
	.st105{fill:url(#SVGID_135_);}
	.st106{fill:url(#SVGID_138_);}
	.st107{fill:url(#SVGID_139_);}
	.st108{fill:url(#SVGID_140_);}
	.st109{fill:url(#SVGID_141_);}
	.st110{fill:url(#SVGID_142_);}
	.st111{fill:url(#SVGID_143_);}
	.st112{fill:none;stroke:url(#SVGID_144_);stroke-width:2;stroke-miterlimit:10;}
	.st113{fill:none;stroke:url(#SVGID_145_);stroke-width:2;stroke-miterlimit:10;}
	.st114{fill:none;stroke:url(#SVGID_146_);stroke-width:2;stroke-miterlimit:10;}
	.st115{fill:none;stroke:url(#SVGID_147_);stroke-width:2;stroke-miterlimit:10;}
	.st116{fill:url(#SVGID_148_);}
	.st117{fill:none;stroke:url(#SVGID_149_);stroke-miterlimit:10;}
	.st118{fill:url(#SVGID_150_);}
	.st119{fill:url(#SVGID_151_);}
	.st120{fill:url(#SVGID_154_);}
	.st121{fill:none;stroke:#182987;stroke-width:4;stroke-miterlimit:10;}
	.st122{fill:url(#SVGID_155_);}
	.st123{fill:#888888;}
	.st124{fill:none;stroke:#9E9E9F;stroke-miterlimit:10;}
	.st125{fill:url(#SVGID_160_);}
	.st126{fill:url(#SVGID_161_);}
	.st127{fill:url(#SVGID_162_);}
	.st128{fill:url(#SVGID_163_);}
	.st129{fill:url(#SVGID_164_);}
	.st130{fill:url(#SVGID_165_);}
	.st131{fill:url(#SVGID_166_);}
	.st132{fill:url(#SVGID_169_);}
	.st133{fill:url(#SVGID_170_);}
	.st134{fill:url(#SVGID_171_);}
	.st135{fill:url(#SVGID_184_);}
	.st136{fill:url(#SVGID_189_);}
	.st137{fill:url(#SVGID_194_);}
	.st138{fill:url(#SVGID_195_);}
	.st139{fill:url(#SVGID_196_);}
	.st140{fill:url(#SVGID_197_);}
	.st141{fill:url(#SVGID_198_);}
	.st142{fill:url(#SVGID_199_);}
	.st143{fill:url(#SVGID_200_);}
	.st144{fill:url(#SVGID_201_);}
	.st145{fill:url(#SVGID_202_);}
	.st146{fill:url(#SVGID_203_);}
	.st147{fill:url(#SVGID_204_);}
	.st148{fill:url(#SVGID_205_);}
	.st149{fill:url(#SVGID_206_);}
	.st150{fill:url(#SVGID_207_);}
	.st151{fill:url(#SVGID_208_);}
	.st152{fill:url(#SVGID_209_);}
	.st153{fill:none;stroke:url(#SVGID_210_);stroke-width:3;stroke-miterlimit:10;}
	.st154{fill:url(#SVGID_211_);}
	.st155{fill:url(#SVGID_212_);}
	.st156{fill:none;stroke:url(#SVGID_213_);stroke-width:3;stroke-miterlimit:10;}
	.st157{fill:none;stroke:url(#SVGID_214_);stroke-width:3;stroke-miterlimit:10;}
	.st158{fill:none;stroke:url(#SVGID_215_);stroke-width:3;stroke-miterlimit:10;}
	.st159{fill:url(#SVGID_216_);}
	.st160{fill:url(#SVGID_217_);}
	.st161{fill:none;stroke:url(#SVGID_218_);stroke-width:3;stroke-miterlimit:10;}
	.st162{fill:url(#SVGID_219_);}
	.st163{fill:none;stroke:#182987;stroke-width:3;stroke-miterlimit:10;}
	.st164{clip-path:url(#SVGID_221_);fill:url(#SVGID_222_);}
	.st165{clip-path:url(#SVGID_224_);fill:url(#SVGID_225_);}
	.st166{fill:url(#SVGID_226_);}
	.st167{fill:#365288;}
	.st168{fill:url(#SVGID_231_);}
	.st169{fill:url(#SVGID_234_);}
	.st170{fill:none;stroke:#E73828;stroke-width:5;stroke-miterlimit:10;}
	.st171{fill:url(#SVGID_237_);}
	.st172{fill:url(#SVGID_238_);}
	.st173{fill:url(#SVGID_239_);}
	.st174{fill:url(#SVGID_242_);}
	.st175{fill:url(#SVGID_245_);}
	.st176{fill:url(#SVGID_248_);}
	.st177{fill:url(#SVGID_251_);}
	.st178{clip-path:url(#SVGID_253_);}
	.st179{fill:url(#SVGID_256_);}
	.st180{clip-path:url(#SVGID_258_);}
	.st181{fill:url(#SVGID_261_);}
	.st182{clip-path:url(#SVGID_263_);}
	.st183{fill:url(#SVGID_266_);}
	.st184{fill:url(#SVGID_267_);}
	.st185{fill:url(#SVGID_268_);}
	.st186{fill:none;stroke:url(#SVGID_269_);stroke-width:3;stroke-miterlimit:10;}
	.st187{fill:none;stroke:url(#SVGID_270_);stroke-width:3;stroke-miterlimit:10;}
	.st188{fill:none;stroke:url(#SVGID_271_);stroke-width:1.6;stroke-miterlimit:10;}
	.st189{fill:none;stroke:url(#SVGID_272_);stroke-width:1.6;stroke-miterlimit:10;}
	.st190{fill:none;stroke:url(#SVGID_273_);stroke-width:1.6;stroke-miterlimit:10;}
	.st191{fill:none;stroke:url(#SVGID_274_);stroke-width:1.6;stroke-miterlimit:10;}
	.st192{fill:none;stroke:url(#SVGID_275_);stroke-width:1.6;stroke-miterlimit:10;}
	.st193{fill:none;stroke:url(#SVGID_276_);stroke-width:1.6;stroke-miterlimit:10;}
	.st194{fill:none;stroke:url(#SVGID_277_);stroke-width:1.6;stroke-miterlimit:10;}
	.st195{fill:none;stroke:url(#SVGID_278_);stroke-width:1.6;stroke-miterlimit:10;}
	.st196{fill:none;stroke:url(#SVGID_279_);stroke-width:2;stroke-miterlimit:10;}
	.st197{fill:none;stroke:url(#SVGID_280_);stroke-width:2;stroke-miterlimit:10;}
	.st198{fill:none;stroke:url(#SVGID_281_);stroke-width:2;stroke-miterlimit:10;}
	.st199{fill:none;stroke:url(#SVGID_282_);stroke-width:2;stroke-miterlimit:10;}
	.st200{fill:none;stroke:url(#SVGID_283_);stroke-width:2;stroke-miterlimit:10;}
	.st201{fill:none;stroke:url(#SVGID_284_);stroke-width:2;stroke-miterlimit:10;}
	.st202{fill:none;stroke:#231815;stroke-miterlimit:10;}
	.st203{fill:url(#SVGID_285_);}
	.st204{fill:url(#SVGID_286_);}
	.st205{fill:url(#SVGID_287_);}
	.st206{fill:url(#SVGID_288_);}
	.st207{fill:none;stroke:url(#SVGID_289_);stroke-width:3;stroke-miterlimit:10;}
	.st208{fill:url(#SVGID_290_);}
	.st209{fill:url(#SVGID_291_);}
	.st210{fill:none;stroke:url(#SVGID_292_);stroke-width:3;stroke-miterlimit:10;}
	.st211{fill:none;stroke:url(#SVGID_293_);stroke-width:3;stroke-miterlimit:10;}
	.st212{fill:none;stroke:url(#SVGID_294_);stroke-width:3;stroke-miterlimit:10;}
	.st213{fill:url(#SVGID_295_);}
	.st214{fill:url(#SVGID_296_);}
	.st215{fill:none;stroke:url(#SVGID_297_);stroke-width:3;stroke-miterlimit:10;}
	.st216{fill:url(#SVGID_298_);}
	.st217{fill:url(#SVGID_299_);}
	.st218{fill:url(#SVGID_300_);}
	.st219{fill:url(#SVGID_301_);}
	.st220{fill:url(#SVGID_302_);}
	.st221{fill:url(#SVGID_303_);}
	.st222{fill:url(#SVGID_304_);}
	.st223{fill:url(#SVGID_305_);}
	.st224{fill:none;stroke:url(#SVGID_306_);stroke-miterlimit:10;}
	.st225{fill:url(#SVGID_307_);}
	.st226{fill:url(#SVGID_308_);}
	.st227{fill:url(#SVGID_309_);}
	.st228{fill:url(#SVGID_310_);}
	.st229{fill:url(#SVGID_311_);}
	.st230{fill:url(#SVGID_312_);}
	.st231{fill:url(#SVGID_313_);}
	.st232{fill:url(#SVGID_314_);stroke:#FFFFFF;stroke-miterlimit:10;}
	.st233{fill:none;stroke:url(#SVGID_315_);stroke-miterlimit:10;}
	.st234{fill:url(#SVGID_316_);}
	.st235{fill:url(#SVGID_317_);}
	.st236{fill:url(#SVGID_318_);}
	.st237{fill:url(#SVGID_319_);}
	.st238{fill:url(#SVGID_320_);}
	.st239{fill:url(#SVGID_321_);}
	.st240{fill:url(#SVGID_322_);}
	.st241{fill:url(#SVGID_325_);}
	.st242{fill:none;stroke:#182987;stroke-width:2;stroke-miterlimit:10;}
	.st243{fill:url(#SVGID_326_);}
	.st244{fill:url(#SVGID_327_);}
	.st245{fill:url(#SVGID_328_);}
	.st246{fill:url(#SVGID_329_);}
	.st247{fill:url(#SVGID_330_);}
	.st248{fill:url(#SVGID_331_);}
	.st249{fill:url(#SVGID_332_);}
	.st250{fill:url(#SVGID_333_);}
	.st251{fill:url(#SVGID_334_);}
	.st252{opacity:0.95;}
	.st253{fill:none;stroke:#FFFFFF;stroke-width:3;stroke-miterlimit:10;}
	.st254{fill:url(#SVGID_335_);}
	.st255{fill:none;stroke:#231815;stroke-width:2;stroke-miterlimit:10;}
	.st256{fill:none;stroke:url(#SVGID_336_);stroke-width:2;stroke-miterlimit:10;}
	.st257{fill:none;stroke:url(#SVGID_337_);stroke-width:2;stroke-miterlimit:10;}
	.st258{fill:url(#SVGID_338_);}
	.st259{fill:none;stroke:url(#SVGID_339_);stroke-width:2;stroke-miterlimit:10;}
	.st260{fill:none;stroke:url(#SVGID_340_);stroke-width:2;stroke-miterlimit:10;}
	.st261{fill:none;stroke:url(#SVGID_341_);stroke-width:2;stroke-miterlimit:10;}
	.st262{fill:none;stroke:url(#SVGID_342_);stroke-width:2;stroke-miterlimit:10;}
	.st263{fill:none;stroke:url(#SVGID_343_);stroke-width:2;stroke-miterlimit:10;}
	.st264{fill:none;stroke:url(#SVGID_344_);stroke-width:2;stroke-miterlimit:10;}
	.st265{fill:none;stroke:url(#SVGID_345_);stroke-width:2;stroke-miterlimit:10;}
	.st266{fill:url(#SVGID_346_);}
	.st267{fill:none;stroke:url(#SVGID_347_);stroke-width:2;stroke-miterlimit:10;}
	.st268{fill:none;stroke:url(#SVGID_348_);stroke-width:2;stroke-miterlimit:10;}
	.st269{fill:none;stroke:url(#SVGID_349_);stroke-width:2;stroke-miterlimit:10;}
	.st270{fill:none;stroke:url(#SVGID_350_);stroke-width:2;stroke-miterlimit:10;}
	.st271{fill:none;stroke:url(#SVGID_351_);stroke-width:2;stroke-miterlimit:10;}
	.st272{fill:none;stroke:url(#SVGID_352_);stroke-width:2;stroke-miterlimit:10;}
	.st273{fill:none;stroke:url(#SVGID_353_);stroke-width:2;stroke-miterlimit:10;}
	.st274{fill:url(#SVGID_354_);}
	.st275{fill:none;stroke:url(#SVGID_355_);stroke-width:2;stroke-miterlimit:10;}
	.st276{fill:none;stroke:url(#SVGID_356_);stroke-width:2;stroke-miterlimit:10;}
	.st277{fill:none;stroke:url(#SVGID_357_);stroke-width:2;stroke-miterlimit:10;}
	.st278{fill:url(#SVGID_358_);}
	.st279{fill:url(#SVGID_359_);}
	.st280{fill:url(#SVGID_360_);}
	.st281{fill:#6B6B6B;}
	.st282{fill:#BFBFBF;}
	.st283{fill:#B3D000;}
	.st284{fill:#00913D;}
	.st285{fill:#00763C;}
	.st286{fill:#9C0E59;}
	.st287{fill:#51AF33;}
	.st288{fill:#91C433;}
	.st289{fill:#F9BE00;}
	.st290{fill:#EA6118;}
	.st291{fill:#EE8500;}
	.st292{fill:#E95812;}
	.st293{fill:#EC6D22;}
	.st294{fill:#E78400;}
	.st295{fill:#F9BF00;}
	.st296{fill:#E9521A;}
	.st297{fill:#7F104A;}
	.st298{fill:#E40080;}
	.st299{fill:#F5AA00;}
	.st300{fill:#780712;}
	.st301{fill:#790910;}
	.st302{fill:#DF0518;}
	.st303{fill:#C61A1A;}
	.st304{fill:#B91221;}
	.st305{fill:#640015;}
	.st306{fill:#EC7026;}
	.st307{fill:#F7C000;}
	.st308{fill:#6F043D;}
	.st309{fill:#F5A600;}
	.st310{fill:#F5A900;}
</style>
<g>
	<g>
		<path class="st1" d="M27.2,3.6c-0.5,0-4.3,0-10.2,0c-6,0-9.7,0-10.2,0c-0.5,0-1,0.2-1.3,0.5C5.3,4.4,5.1,4.8,5.1,5.3
			c0,0.5,0,4.4,0,10.2s0,9.7,0,10.2c0,0.5,0.2,0.9,0.5,1.2c0.3,0.3,0.7,0.4,1.3,0.5c0.5,0,4.3,0.1,10.2,0.1s9.7,0,10.2-0.1
			c0.5,0,1-0.2,1.3-0.5c0.3-0.3,0.4-0.7,0.5-1.2c0-0.5,0-4.4,0-10.2s0-9.7,0-10.2c0-0.5-0.2-0.9-0.5-1.2C28.2,3.8,27.8,3.7,27.2,3.6
			z"/>
		<path class="st0" d="M21.3,8.9c-0.9,0-2.2-0.1-4.3-0.1s-3.4,0-4.3,0.1c-0.9,0-1.7,0.3-2.3,0.8c-0.6,0.6-1,1.4-1,2.4
			c0,1,0,1.6,0,3.1c0,1.6,0,2.2,0,3.1c0,1,0.4,1.8,1,2.4c0.6,0.5,1.4,0.8,2.3,0.8c0.9,0,2.2,0.1,4.3,0.1s3.4,0,4.3-0.1
			c0.9,0,1.7-0.3,2.3-0.8c0.6-0.6,1-1.4,1-2.4c0-1,0-1.6,0-3.1s0-2.2,0-3.1c0-1-0.4-1.8-1-2.4C23.1,9.2,22.3,9,21.3,8.9z"/>
		<path d="M20.1,11.6h-0.6v4.5h0.6c0.5,0,0.7-0.4,0.7-0.8v-2.9C20.8,12,20.6,11.6,20.1,11.6z"/>
		<path d="M15.6,18.4c0.1,0.8,0.4,1.4,1.4,1.4c1,0,1.4-0.6,1.4-1.4H15.6z"/>
		<g>
			<path d="M14.7,15.4c0,0.4-0.2,0.8-0.7,0.8c-0.5,0-0.7-0.4-0.7-0.8v-3.8h1.4V15.4z"/>
		</g>
	</g>
	<g>
		<path class="st0" d="M110.4,19.6c0.1-0.4,0.1-1.1,0.2-2l1.5,0.1c-0.1,1-0.1,1.7-0.2,2.2c-0.1,0.5-0.3,1.3-0.5,2.3l-1.6-0.2
			C110.1,20.8,110.3,20,110.4,19.6z M116.2,9.6c-0.9,1.8-2,3.5-3.1,5.1l1.9-0.1c-0.1-0.4-0.2-0.8-0.3-1.1l1.3-0.2c0.4,1,0.7,2,0.9,3
			l-1.5,0.2c0-0.2-0.1-0.4-0.1-0.5l-1.1,0.1v7.6h-1.5v-7.5l-2.5,0.2l-0.1-1.4l1-0.1c0.5-0.6,0.9-1.2,1.3-1.8
			c-0.8-0.9-1.6-1.7-2.4-2.4l0.8-1.2c0.1,0.1,0.2,0.2,0.3,0.3c0.6-0.9,1.2-1.8,1.7-2.8l1.3,0.6c-0.6,1.1-1.3,2.2-2,3.2
			c0.3,0.3,0.7,0.7,1,1.1c0.5-0.9,1.1-1.9,1.6-2.9L116.2,9.6z M115.2,20.9c0-1-0.1-2.1-0.2-3.3l1.3,0c0.2,1.6,0.2,2.7,0.2,3.4
			L115.2,20.9z M117.2,23.6V7.5h9.8v14.4c0,1.2-0.6,1.9-1.8,1.9h-0.3c-0.7,0-1.3-0.5-1.5-1.2l-0.1-0.4h1.3c0.5,0,0.8-0.3,0.8-0.8V9
			h-6.7v14.6H117.2z M124.9,16.4h-3.4v2.8c0,0.2,0.1,0.3,0.2,0.3h2.8v1.5H121c-0.7,0-1-0.4-1-1.1v-3.4h-0.7V15h2.1v-1.6h-2.1v-1.3h1
			l-0.7-2.1l1.5-0.2l0.7,2.4h0.9l0.8-2.3l1.5,0.2l-0.8,2.1h0.8v1.3h-2V15h2V16.4z"/>
		<path class="st0" d="M76.6,18.9v4.7h-1.5v-4.4c-0.1,0.2-0.2,0.3-0.4,0.5c-0.6,0.8-1.5,1.6-2.5,2.6l-1.1-1.1c1-0.8,1.8-1.6,2.4-2.3
			c0.4-0.5,0.8-1.1,1.2-1.8h-3.1v-1.5h3.4v-1.6h-3v-1.5h1.3L72.8,10h-0.9V8.5h3.3V7h1.5v1.6h3.2V10H79l-0.7,2.6h1.1v1.5h-2.8v1.6
			h3.2v1.5h-3.2v0.1c0.8,0.8,1.7,1.5,2.7,2.2l-0.6,1.4C78,20.3,77.3,19.7,76.6,18.9z M77.4,10h-3.1l0.6,2.6h1.8L77.4,10z M85,23.7
			v-9.5h-2.7v0.2c0,2.1-0.1,3.8-0.4,5.3c-0.3,1.5-0.8,2.8-1.4,4L79,23c0.7-1.2,1.1-2.5,1.4-3.8c0.2-1.3,0.4-2.9,0.4-4.8V8.1
			c2.1-0.2,4.2-0.6,6.4-1.2l0.8,1.3c-1.7,0.5-3.6,0.9-5.7,1.2v3.3h6.3v1.5h-2v8C86.5,23.1,85.9,23.7,85,23.7L85,23.7z"/>
		<path class="st0" d="M91.4,23.6V7.3h7v6.1h-5.5v10.2H91.4z M92.9,9.8h3.9V8.6h-3.9V9.8z M96.9,11.1h-3.9v1.1h3.9V11.1z M94.5,14.3
			h9.9v1.3h-1.2v5.1c0.4,0,0.8-0.1,1.3-0.1l0.1,1.2c-0.4,0.1-0.9,0.1-1.4,0.2v1.5h-1.5V22c-2.3,0.2-4.8,0.4-7.4,0.5l-0.1-1.3
			c0.5,0,1,0,1.6-0.1v-5.6h-1.2V14.3z M101.6,15.6h-4.4v1.1h4.4V15.6z M101.6,17.8h-4.4v1h4.4V17.8z M101.6,19.9h-4.4V21
			c1.5-0.1,3-0.2,4.4-0.3V19.9z M107.4,7.3v15c0,1-0.5,1.5-1.4,1.5h-0.6c-0.7,0-1.3-0.5-1.5-1.2l-0.1-0.4h1.5c0.3,0,0.5-0.2,0.5-0.5
			v-8.3h-5.5V7.3H107.4z M102,9.8h3.9V8.6H102V9.8z M105.9,11.1H102v1.1h3.9V11.1z"/>
		<g>
			<path class="st0" d="M38.4,9v14.6h-1.5v-3c-1.2,0.4-2.5,0.7-3.9,1l-0.3-1.5c0.3-0.1,0.6-0.1,0.9-0.2V9h-0.4V7.5H39V9H38.4z M35,9
				v2.5h1.8V9H35z M35,12.9v2.4h1.8v-2.4H35z M35,16.6v3c0.6-0.1,1.3-0.3,1.8-0.4v-2.6H35z M44.2,9.5c-0.6,1.2-1.5,2.5-2.7,4
				l1.2-0.2c-0.1-0.2-0.2-0.5-0.2-0.8l1.2-0.2c0.3,0.8,0.6,1.6,0.7,2.4l-1.3,0.2c0-0.1-0.1-0.3-0.1-0.4L39.3,15
				c0-0.4-0.1-0.8-0.2-1.3l0.7-0.1c0.5-0.6,1-1.2,1.4-1.7c-0.7-0.8-1.4-1.6-2.1-2.2l0.7-1.1C40,8.7,40.1,8.9,40.3,9
				c0.5-0.7,0.9-1.3,1.2-2.1l1.2,0.6c-0.4,0.9-0.9,1.7-1.5,2.4c0.3,0.3,0.5,0.6,0.8,0.9c0.4-0.7,0.8-1.3,1.1-2L44.2,9.5z M44,15.5
				v2.2c0,1.4-0.2,2.6-0.7,3.5c-0.5,1-1.3,1.9-2.5,2.7l-1.1-1.1c1.1-0.7,2-1.6,2.4-2.6h-2.4v-4.4h1.5v3.1h1.2
				c0.1-0.4,0.1-0.8,0.1-1.2v-2.2H44z M48.8,14.6l-4,0.5c0-0.4-0.1-0.9-0.2-1.3l0.7-0.1c0.5-0.6,0.9-1.1,1.3-1.7
				c-0.7-0.9-1.4-1.7-2.1-2.3l0.8-1.1c0.1,0.1,0.2,0.2,0.4,0.3c0.4-0.6,0.8-1.3,1.2-2L48,7.5c-0.4,0.9-0.9,1.7-1.5,2.5
				c0.3,0.3,0.6,0.7,0.8,1c0.4-0.7,0.8-1.4,1.1-2.1l1.1,0.6c-0.5,1.2-1.4,2.5-2.5,4l1.3-0.2c-0.1-0.3-0.2-0.5-0.3-0.8l1.2-0.3
				c0.4,0.8,0.7,1.7,1,2.4L48.9,15C48.8,14.8,48.8,14.7,48.8,14.6z M49.6,15.7v4.6h-2.9v2c0,0.8-0.6,1.5-1.5,1.5h-0.1v-8.3h1.5V19
				H48v-3.2H49.6z"/>
			<path class="st0" d="M51.9,13.4c3.9-2.1,6.7-4.3,8.2-6.5h1.4c1.4,2.2,4.1,4.4,8.1,6.4l-0.9,1.4c-1.1-0.6-2.2-1.2-3.1-1.8v1.4H56
				v-1.4c-1,0.7-2.1,1.4-3.3,2L51.9,13.4z M54.2,16.2h13.4v6c0,0.8-0.6,1.5-1.5,1.5H66v-0.7H55.7v0.7h-1.5V16.2z M66,17.7H55.7v3.8
				H66V17.7z M60.8,8.3c-1.3,1.6-2.9,3-4.7,4.3h9.3C63.4,11.3,61.9,9.9,60.8,8.3z"/>
		</g>
	</g>
</g>
</svg>
