<?xml version="1.0" encoding="utf-8"?>
<!-- Generator: Adobe Illustrator 19.1.0, SVG Export Plug-In . SVG Version: 6.00 Build 0)  -->
<svg version="1.1" id="圖層_1" xmlns="http://www.w3.org/2000/svg" xmlns:xlink="http://www.w3.org/1999/xlink" x="0px" y="0px"
	 viewBox="0 0 169.5 28.4" style="enable-background:new 0 0 169.5 28.4;" xml:space="preserve">
<style type="text/css">
	.st0{fill:#EEEEEF;}
	.st1{fill:#F7F7F7;}
	.st2{fill:#FFFFFF;}
	.st3{fill:url(#SVGID_13_);}
	.st4{fill:#182987;}
	.st5{fill:none;stroke:#182987;stroke-miterlimit:10;}
	.st6{fill:url(#SVGID_14_);}
	.st7{fill:url(#SVGID_15_);}
	.st8{fill:url(#SVGID_16_);}
	.st9{fill:url(#SVGID_21_);}
	.st10{fill:url(#SVGID_22_);}
	.st11{fill:url(#SVGID_23_);}
	.st12{fill:url(#SVGID_24_);}
	.st13{fill:url(#SVGID_27_);}
	.st14{fill:url(#SVGID_28_);}
	.st15{fill:url(#SVGID_29_);}
	.st16{fill:none;stroke:#3E3A39;stroke-miterlimit:10;}
	.st17{fill:url(#SVGID_30_);}
	.st18{fill:none;stroke:#182987;stroke-width:5;stroke-miterlimit:10;}
	.st19{fill:url(#SVGID_31_);}
	.st20{fill:url(#SVGID_32_);}
	.st21{fill:url(#SVGID_33_);}
	.st22{fill:url(#SVGID_34_);}
	.st23{fill:url(#SVGID_35_);}
	.st24{fill:url(#SVGID_36_);}
	.st25{fill:none;stroke:url(#SVGID_37_);stroke-width:2;stroke-miterlimit:10;}
	.st26{fill:none;stroke:url(#SVGID_38_);stroke-width:2;stroke-miterlimit:10;}
	.st27{fill:none;stroke:url(#SVGID_39_);stroke-width:2;stroke-miterlimit:10;}
	.st28{fill:none;stroke:url(#SVGID_40_);stroke-width:2;stroke-miterlimit:10;}
	.st29{fill:url(#SVGID_41_);}
	.st30{fill:url(#SVGID_42_);}
	.st31{fill:url(#SVGID_43_);}
	.st32{fill:url(#SVGID_44_);}
	.st33{fill:url(#SVGID_45_);}
	.st34{fill:url(#SVGID_46_);}
	.st35{fill:url(#SVGID_47_);}
	.st36{fill:url(#SVGID_48_);}
	.st37{fill:url(#SVGID_49_);}
	.st38{fill:url(#SVGID_50_);}
	.st39{fill:none;stroke:#231815;stroke-width:0.25;stroke-miterlimit:10;}
	.st40{fill:none;stroke:url(#SVGID_51_);stroke-width:8;stroke-miterlimit:10;}
	.st41{clip-path:url(#SVGID_53_);}
	.st42{clip-path:url(#SVGID_55_);}
	.st43{fill:url(#SVGID_56_);}
	.st44{fill:url(#SVGID_57_);}
	.st45{fill:url(#SVGID_58_);}
	.st46{fill:none;stroke:url(#SVGID_59_);stroke-width:3;stroke-miterlimit:10;stroke-dasharray:11.9991,11.9991;}
	.st47{fill:url(#SVGID_60_);}
	.st48{fill:url(#SVGID_61_);}
	.st49{fill:#FFFFFF;stroke:#231815;stroke-miterlimit:10;}
	.st50{clip-path:url(#SVGID_65_);}
	.st51{clip-path:url(#SVGID_67_);fill:url(#SVGID_68_);}
	.st52{fill:#3E3A39;}
	.st53{fill:#DBDCDC;}
	.st54{fill:url(#SVGID_75_);}
	.st55{fill:url(#SVGID_76_);}
	.st56{fill:url(#SVGID_77_);}
	.st57{fill:url(#SVGID_78_);}
	.st58{fill:url(#SVGID_79_);}
	.st59{fill:none;stroke:url(#SVGID_80_);stroke-width:2;stroke-miterlimit:10;}
	.st60{fill:none;stroke:url(#SVGID_81_);stroke-width:2;stroke-miterlimit:10;}
	.st61{fill:url(#SVGID_82_);}
	.st62{fill:url(#SVGID_83_);}
	.st63{fill:url(#SVGID_84_);}
	.st64{fill:url(#SVGID_85_);}
	.st65{fill:url(#SVGID_86_);}
	.st66{fill:url(#SVGID_87_);}
	.st67{fill:url(#SVGID_88_);}
	.st68{fill:url(#SVGID_89_);}
	.st69{fill:url(#SVGID_90_);}
	.st70{clip-path:url(#SVGID_98_);}
	.st71{fill:url(#SVGID_103_);}
	.st72{fill:url(#SVGID_104_);}
	.st73{fill:url(#SVGID_105_);}
	.st74{fill:url(#SVGID_106_);}
	.st75{fill:url(#SVGID_107_);}
	.st76{fill:url(#SVGID_108_);}
	.st77{fill:url(#SVGID_109_);}
	.st78{fill:url(#SVGID_110_);}
	.st79{fill:none;stroke:url(#SVGID_111_);stroke-width:8;stroke-miterlimit:10;}
	.st80{fill:url(#SVGID_112_);}
	.st81{fill:none;stroke:url(#SVGID_113_);stroke-width:3;stroke-miterlimit:10;}
	.st82{fill:none;stroke:url(#SVGID_114_);stroke-width:3;stroke-miterlimit:10;}
	.st83{fill:none;stroke:url(#SVGID_115_);stroke-width:3;stroke-miterlimit:10;}
	.st84{fill:none;stroke:url(#SVGID_116_);stroke-width:3;stroke-miterlimit:10;}
	.st85{fill:url(#SVGID_117_);}
	.st86{fill:url(#SVGID_118_);}
	.st87{fill:url(#SVGID_119_);}
	.st88{clip-path:url(#SVGID_121_);}
	.st89{fill:url(#SVGID_122_);}
	.st90{fill:url(#SVGID_123_);}
	.st91{fill:url(#SVGID_124_);}
	.st92{fill:url(#SVGID_125_);}
	.st93{fill:url(#SVGID_126_);}
	.st94{fill:url(#SVGID_127_);}
	.st95{fill:url(#SVGID_128_);}
	.st96{fill:url(#SVGID_129_);}
	.st97{fill:url(#SVGID_130_);}
	.st98{fill:url(#SVGID_131_);}
	.st99{fill:url(#SVGID_132_);}
	.st100{fill:#E76A0F;}
	.st101{fill:#040000;}
	.st102{fill:#365288;stroke:#231815;stroke-miterlimit:10;}
	.st103{fill:url(#SVGID_135_);}
	.st104{fill:url(#SVGID_138_);}
	.st105{fill:url(#SVGID_139_);}
	.st106{fill:url(#SVGID_140_);}
	.st107{fill:url(#SVGID_141_);}
	.st108{fill:url(#SVGID_142_);}
	.st109{fill:url(#SVGID_143_);}
	.st110{fill:none;stroke:url(#SVGID_144_);stroke-width:2;stroke-miterlimit:10;}
	.st111{fill:none;stroke:url(#SVGID_145_);stroke-width:2;stroke-miterlimit:10;}
	.st112{fill:none;stroke:url(#SVGID_146_);stroke-width:2;stroke-miterlimit:10;}
	.st113{fill:none;stroke:url(#SVGID_147_);stroke-width:2;stroke-miterlimit:10;}
	.st114{fill:url(#SVGID_148_);}
	.st115{fill:none;stroke:url(#SVGID_149_);stroke-miterlimit:10;}
	.st116{fill:url(#SVGID_150_);}
	.st117{fill:url(#SVGID_151_);}
	.st118{fill:url(#SVGID_154_);}
	.st119{fill:none;stroke:#182987;stroke-width:4;stroke-miterlimit:10;}
	.st120{fill:url(#SVGID_155_);}
	.st121{fill:#888888;}
	.st122{fill:none;stroke:#9E9E9F;stroke-miterlimit:10;}
	.st123{fill:url(#SVGID_160_);}
	.st124{fill:url(#SVGID_161_);}
	.st125{fill:url(#SVGID_162_);}
	.st126{fill:url(#SVGID_163_);}
	.st127{fill:url(#SVGID_164_);}
	.st128{fill:url(#SVGID_165_);}
	.st129{fill:url(#SVGID_166_);}
	.st130{fill:url(#SVGID_169_);}
	.st131{fill:url(#SVGID_170_);}
	.st132{fill:url(#SVGID_171_);}
	.st133{fill:url(#SVGID_184_);}
	.st134{fill:url(#SVGID_189_);}
	.st135{fill:url(#SVGID_194_);}
	.st136{fill:url(#SVGID_195_);}
	.st137{fill:url(#SVGID_196_);}
	.st138{fill:url(#SVGID_197_);}
	.st139{fill:url(#SVGID_198_);}
	.st140{fill:url(#SVGID_199_);}
	.st141{fill:url(#SVGID_200_);}
	.st142{fill:url(#SVGID_201_);}
	.st143{fill:url(#SVGID_202_);}
	.st144{fill:url(#SVGID_203_);}
	.st145{fill:url(#SVGID_204_);}
	.st146{fill:url(#SVGID_205_);}
	.st147{fill:url(#SVGID_206_);}
	.st148{fill:url(#SVGID_207_);}
	.st149{fill:url(#SVGID_208_);}
	.st150{fill:url(#SVGID_209_);}
	.st151{fill:none;stroke:url(#SVGID_210_);stroke-width:3;stroke-miterlimit:10;}
	.st152{fill:url(#SVGID_211_);}
	.st153{fill:url(#SVGID_212_);}
	.st154{fill:none;stroke:url(#SVGID_213_);stroke-width:3;stroke-miterlimit:10;}
	.st155{fill:none;stroke:url(#SVGID_214_);stroke-width:3;stroke-miterlimit:10;}
	.st156{fill:none;stroke:url(#SVGID_215_);stroke-width:3;stroke-miterlimit:10;}
	.st157{fill:url(#SVGID_216_);}
	.st158{fill:url(#SVGID_217_);}
	.st159{fill:none;stroke:url(#SVGID_218_);stroke-width:3;stroke-miterlimit:10;}
	.st160{fill:url(#SVGID_219_);}
	.st161{fill:none;stroke:#182987;stroke-width:3;stroke-miterlimit:10;}
	.st162{clip-path:url(#SVGID_221_);fill:url(#SVGID_222_);}
	.st163{clip-path:url(#SVGID_224_);fill:url(#SVGID_225_);}
	.st164{fill:url(#SVGID_226_);}
	.st165{fill:#365288;}
	.st166{fill:url(#SVGID_231_);}
	.st167{fill:url(#SVGID_234_);}
	.st168{fill:none;stroke:#E73828;stroke-width:5;stroke-miterlimit:10;}
	.st169{fill:url(#SVGID_237_);}
	.st170{fill:url(#SVGID_238_);}
	.st171{fill:url(#SVGID_239_);}
	.st172{fill:url(#SVGID_242_);}
	.st173{fill:url(#SVGID_245_);}
	.st174{fill:url(#SVGID_248_);}
	.st175{fill:url(#SVGID_251_);}
	.st176{clip-path:url(#SVGID_253_);}
	.st177{fill:url(#SVGID_256_);}
	.st178{clip-path:url(#SVGID_258_);}
	.st179{fill:url(#SVGID_261_);}
	.st180{clip-path:url(#SVGID_263_);}
	.st181{fill:url(#SVGID_266_);}
	.st182{fill:url(#SVGID_267_);}
	.st183{fill:url(#SVGID_268_);}
	.st184{fill:none;stroke:url(#SVGID_269_);stroke-width:3;stroke-miterlimit:10;}
	.st185{fill:none;stroke:url(#SVGID_270_);stroke-width:3;stroke-miterlimit:10;}
	.st186{fill:none;stroke:url(#SVGID_271_);stroke-width:1.6;stroke-miterlimit:10;}
	.st187{fill:none;stroke:url(#SVGID_272_);stroke-width:1.6;stroke-miterlimit:10;}
	.st188{fill:none;stroke:url(#SVGID_273_);stroke-width:1.6;stroke-miterlimit:10;}
	.st189{fill:none;stroke:url(#SVGID_274_);stroke-width:1.6;stroke-miterlimit:10;}
	.st190{fill:none;stroke:url(#SVGID_275_);stroke-width:1.6;stroke-miterlimit:10;}
	.st191{fill:none;stroke:url(#SVGID_276_);stroke-width:1.6;stroke-miterlimit:10;}
	.st192{fill:none;stroke:url(#SVGID_277_);stroke-width:1.6;stroke-miterlimit:10;}
	.st193{fill:none;stroke:url(#SVGID_278_);stroke-width:1.6;stroke-miterlimit:10;}
	.st194{fill:none;stroke:url(#SVGID_279_);stroke-width:2;stroke-miterlimit:10;}
	.st195{fill:none;stroke:url(#SVGID_280_);stroke-width:2;stroke-miterlimit:10;}
	.st196{fill:none;stroke:url(#SVGID_281_);stroke-width:2;stroke-miterlimit:10;}
	.st197{fill:none;stroke:url(#SVGID_282_);stroke-width:2;stroke-miterlimit:10;}
	.st198{fill:none;stroke:url(#SVGID_283_);stroke-width:2;stroke-miterlimit:10;}
	.st199{fill:none;stroke:url(#SVGID_284_);stroke-width:2;stroke-miterlimit:10;}
	.st200{fill:none;stroke:#231815;stroke-miterlimit:10;}
	.st201{fill:url(#SVGID_285_);}
	.st202{fill:url(#SVGID_286_);}
	.st203{fill:url(#SVGID_287_);}
	.st204{fill:url(#SVGID_288_);}
	.st205{fill:none;stroke:url(#SVGID_289_);stroke-width:3;stroke-miterlimit:10;}
	.st206{fill:url(#SVGID_290_);}
	.st207{fill:url(#SVGID_291_);}
	.st208{fill:none;stroke:url(#SVGID_292_);stroke-width:3;stroke-miterlimit:10;}
	.st209{fill:none;stroke:url(#SVGID_293_);stroke-width:3;stroke-miterlimit:10;}
	.st210{fill:none;stroke:url(#SVGID_294_);stroke-width:3;stroke-miterlimit:10;}
	.st211{fill:url(#SVGID_295_);}
	.st212{fill:url(#SVGID_296_);}
	.st213{fill:none;stroke:url(#SVGID_297_);stroke-width:3;stroke-miterlimit:10;}
	.st214{fill:url(#SVGID_298_);}
	.st215{fill:url(#SVGID_299_);}
	.st216{fill:url(#SVGID_300_);}
	.st217{fill:url(#SVGID_301_);}
	.st218{fill:url(#SVGID_302_);}
	.st219{fill:url(#SVGID_303_);}
	.st220{fill:url(#SVGID_304_);}
	.st221{fill:url(#SVGID_305_);}
	.st222{fill:none;stroke:url(#SVGID_306_);stroke-miterlimit:10;}
	.st223{fill:url(#SVGID_307_);}
	.st224{fill:url(#SVGID_308_);}
	.st225{fill:url(#SVGID_309_);}
	.st226{fill:url(#SVGID_310_);}
	.st227{fill:url(#SVGID_311_);}
	.st228{fill:url(#SVGID_312_);}
	.st229{fill:url(#SVGID_313_);}
	.st230{fill:url(#SVGID_314_);stroke:#FFFFFF;stroke-miterlimit:10;}
	.st231{fill:none;stroke:url(#SVGID_315_);stroke-miterlimit:10;}
	.st232{fill:url(#SVGID_316_);}
	.st233{fill:url(#SVGID_317_);}
	.st234{fill:url(#SVGID_318_);}
	.st235{fill:url(#SVGID_319_);}
	.st236{fill:url(#SVGID_320_);}
	.st237{fill:url(#SVGID_321_);}
	.st238{fill:url(#SVGID_322_);}
	.st239{fill:url(#SVGID_325_);}
	.st240{fill:none;stroke:#182987;stroke-width:2;stroke-miterlimit:10;}
	.st241{fill:url(#SVGID_326_);}
	.st242{fill:url(#SVGID_327_);}
	.st243{fill:url(#SVGID_328_);}
	.st244{fill:url(#SVGID_329_);}
	.st245{fill:url(#SVGID_330_);}
	.st246{fill:url(#SVGID_331_);}
	.st247{fill:url(#SVGID_332_);}
	.st248{fill:url(#SVGID_333_);}
	.st249{fill:url(#SVGID_334_);}
	.st250{opacity:0.95;}
	.st251{fill:none;stroke:#FFFFFF;stroke-width:3;stroke-miterlimit:10;}
	.st252{fill:url(#SVGID_335_);}
	.st253{fill:none;stroke:#231815;stroke-width:2;stroke-miterlimit:10;}
	.st254{fill:none;stroke:url(#SVGID_336_);stroke-width:2;stroke-miterlimit:10;}
	.st255{fill:none;stroke:url(#SVGID_337_);stroke-width:2;stroke-miterlimit:10;}
	.st256{fill:url(#SVGID_338_);}
	.st257{fill:none;stroke:url(#SVGID_339_);stroke-width:2;stroke-miterlimit:10;}
	.st258{fill:none;stroke:url(#SVGID_340_);stroke-width:2;stroke-miterlimit:10;}
	.st259{fill:none;stroke:url(#SVGID_341_);stroke-width:2;stroke-miterlimit:10;}
	.st260{fill:none;stroke:url(#SVGID_342_);stroke-width:2;stroke-miterlimit:10;}
	.st261{fill:none;stroke:url(#SVGID_343_);stroke-width:2;stroke-miterlimit:10;}
	.st262{fill:none;stroke:url(#SVGID_344_);stroke-width:2;stroke-miterlimit:10;}
	.st263{fill:none;stroke:url(#SVGID_345_);stroke-width:2;stroke-miterlimit:10;}
	.st264{fill:url(#SVGID_346_);}
	.st265{fill:none;stroke:url(#SVGID_347_);stroke-width:2;stroke-miterlimit:10;}
	.st266{fill:none;stroke:url(#SVGID_348_);stroke-width:2;stroke-miterlimit:10;}
	.st267{fill:none;stroke:url(#SVGID_349_);stroke-width:2;stroke-miterlimit:10;}
	.st268{fill:none;stroke:url(#SVGID_350_);stroke-width:2;stroke-miterlimit:10;}
	.st269{fill:none;stroke:url(#SVGID_351_);stroke-width:2;stroke-miterlimit:10;}
	.st270{fill:none;stroke:url(#SVGID_352_);stroke-width:2;stroke-miterlimit:10;}
	.st271{fill:none;stroke:url(#SVGID_353_);stroke-width:2;stroke-miterlimit:10;}
	.st272{fill:url(#SVGID_354_);}
	.st273{fill:none;stroke:url(#SVGID_355_);stroke-width:2;stroke-miterlimit:10;}
	.st274{fill:none;stroke:url(#SVGID_356_);stroke-width:2;stroke-miterlimit:10;}
	.st275{fill:none;stroke:url(#SVGID_357_);stroke-width:2;stroke-miterlimit:10;}
	.st276{fill:url(#SVGID_358_);}
	.st277{fill:url(#SVGID_359_);}
	.st278{fill:url(#SVGID_360_);}
	.st279{fill:#6B6B6B;}
	.st280{fill:#BFBFBF;}
	.st281{fill:#B3D000;}
	.st282{fill:#00913D;}
	.st283{fill:#00763C;}
	.st284{fill:#9C0E59;}
	.st285{fill:#51AF33;}
	.st286{fill:#91C433;}
	.st287{fill:#F9BE00;}
	.st288{fill:#EA6118;}
	.st289{fill:#EE8500;}
	.st290{fill:#E95812;}
	.st291{fill:#EC6D22;}
	.st292{fill:#E78400;}
	.st293{fill:#F9BF00;}
	.st294{fill:#E9521A;}
	.st295{fill:#7F104A;}
	.st296{fill:#E40080;}
	.st297{fill:#F5AA00;}
	.st298{fill:#780712;}
	.st299{fill:#790910;}
	.st300{fill:#DF0518;}
	.st301{fill:#C61A1A;}
	.st302{fill:#B91221;}
	.st303{fill:#640015;}
	.st304{fill:#EC7026;}
	.st305{fill:#F7C000;}
	.st306{fill:#6F043D;}
	.st307{fill:#F5A600;}
	.st308{fill:#F5A900;}
</style>
<g>
	<g>
		<path class="st281" d="M4.4,3.6c-0.2,0-0.4,0.2-0.4,0.4v3.8c0,0.2,0.1,0.3,0.3,0.1L6,6.3c0.2-0.2,0.4-0.4,0.6-0.6l1.7-1.7
			c0.2-0.2,0.1-0.3-0.1-0.3H4.4z"/>
	</g>
	<g>
		<path class="st281" d="M9,9.6c0-0.2-0.2-0.4-0.4-0.4H4.7c-0.2,0-0.3,0.1-0.1,0.3l1.7,1.7c0.2,0.2,0.4,0.4,0.6,0.6l1.7,1.7
			C8.8,13.7,9,13.6,9,13.4V9.6z"/>
	</g>
	<g>
		<path class="st282" d="M4.4,14.6c-0.2,0-0.4,0.2-0.4,0.4v3.8c0,0.2,0.1,0.3,0.3,0.1L6,17.2c0.2-0.2,0.4-0.4,0.6-0.6l1.7-1.7
			c0.2-0.2,0.1-0.3-0.1-0.3H4.4z"/>
	</g>
	<g>
		<path class="st283" d="M8.7,24.5C8.8,24.6,9,24.6,9,24.3v-3.8c0-0.2-0.2-0.4-0.4-0.4H4.7c-0.2,0-0.3,0.1-0.1,0.3L8.7,24.5z"/>
	</g>
	<g>
		<path class="st284" d="M26.1,20.1c-0.1,0-0.2,0.1-0.2,0.2s0,0.4,0,0.6v3.5c0,0.2,0.1,0.3,0.3,0.1l4.1-4.1c0.2-0.2,0.1-0.3-0.1-0.3
			h-3.5C26.4,20.1,26.2,20.1,26.1,20.1z"/>
	</g>
	<g>
		<path class="st285" d="M6.9,17c-0.2,0.2-0.4,0.4-0.6,0.6l-1.7,1.7c-0.2,0.2-0.1,0.3,0.1,0.3h3.8c0.2,0,0.4-0.2,0.4-0.4v-3.8
			c0-0.2-0.1-0.3-0.3-0.1L6.9,17z"/>
	</g>
	<g>
		<path class="st285" d="M4.2,9.8C4.1,9.6,3.9,9.6,3.9,9.9v3.8c0,0.2,0.2,0.4,0.4,0.4h3.8c0.2,0,0.3-0.1,0.1-0.3l-1.7-1.7
			c-0.2-0.2-0.4-0.4-0.6-0.6L4.2,9.8z"/>
	</g>
	<g>
		<path class="st286" d="M9,4.4c0-0.2-0.1-0.3-0.3-0.1L6.9,6C6.8,6.2,6.5,6.4,6.3,6.6L4.6,8.3C4.4,8.5,4.5,8.7,4.7,8.7h3.8
			C8.8,8.7,9,8.5,9,8.2V4.4z"/>
	</g>
	<g>
		<path class="st287" d="M14.2,8c0.2,0.2,0.3,0.1,0.3-0.1V4.1c0-0.2-0.2-0.4-0.4-0.4h-3.8c-0.2,0-0.3,0.1-0.1,0.3l1.7,1.7
			c0.2,0.2,0.4,0.4,0.6,0.6L14.2,8z"/>
	</g>
	<g>
		<path class="st288" d="M9.4,13.4c0,0.2,0.1,0.3,0.3,0.1l1.7-1.7c0.2-0.2,0.4-0.4,0.6-0.6l1.7-1.7c0.2-0.2,0.1-0.3-0.1-0.3H9.9
			c-0.2,0-0.4,0.2-0.4,0.4V13.4z"/>
	</g>
	<g>
		<path class="st289" d="M14.2,19c0.2,0.2,0.3,0.1,0.3-0.1V15c0-0.2-0.2-0.4-0.4-0.4h-3.8c-0.2,0-0.3,0.1-0.1,0.3l1.7,1.7
			c0.2,0.2,0.4,0.4,0.6,0.6L14.2,19z"/>
	</g>
	<g>
		<path class="st290" d="M9.7,15.2c-0.2-0.2-0.3-0.1-0.3,0.1v3.8c0,0.2,0.2,0.4,0.4,0.4h3.8c0.2,0,0.3-0.1,0.1-0.3l-1.7-1.7
			c-0.2-0.2-0.4-0.4-0.6-0.6L9.7,15.2z"/>
	</g>
	<g>
		<path class="st291" d="M14,14.1c0.2,0,0.4-0.2,0.4-0.4V9.9c0-0.2-0.1-0.3-0.3-0.1l-1.7,1.7c-0.2,0.2-0.4,0.4-0.6,0.6l-1.7,1.7
			c-0.2,0.2-0.1,0.3,0.1,0.3H14z"/>
	</g>
	<g>
		<path class="st292" d="M9.4,24.3c0,0.2,0.1,0.3,0.3,0.1l1.7-1.7c0.2-0.2,0.4-0.4,0.6-0.6l1.7-1.7c0.2-0.2,0.1-0.3-0.1-0.3H9.9
			c-0.2,0-0.4,0.2-0.4,0.4V24.3z"/>
	</g>
	<g>
		<path class="st293" d="M10.1,24.8c-0.2,0.2-0.1,0.3,0.1,0.3H14c0.2,0,0.4-0.2,0.4-0.4v-3.8c0-0.2-0.1-0.3-0.3-0.1l-1.7,1.7
			c-0.2,0.2-0.4,0.4-0.6,0.6L10.1,24.8z"/>
	</g>
	<g>
		<path class="st293" d="M10.1,24.8l1.7-1.7c0.2-0.2,0.2-0.2,0,0L10.1,24.8"/>
	</g>
	<g>
		<path class="st292" d="M19.6,24.5c0.2,0.2,0.3,0.1,0.3-0.1v-3.8c0-0.2-0.2-0.4-0.4-0.4h-3.8c-0.2,0-0.3,0.1-0.1,0.3l1.7,1.7
			c0.2,0.2,0.4,0.4,0.6,0.6L19.6,24.5z"/>
	</g>
	<g>
		<path class="st294" d="M14.9,24.7c0,0.2,0.2,0.4,0.4,0.4h3.8c0.2,0,0.3-0.1,0.1-0.3l-1.7-1.7c-0.2-0.2-0.4-0.4-0.6-0.6l-1.7-1.7
			c-0.2-0.2-0.3-0.1-0.3,0.1V24.7z"/>
	</g>
	<g>
		<path class="st295" d="M22.5,22.7c0.2-0.2,0.4-0.4,0.6-0.6l1.7-1.7c0.2-0.2,0.1-0.3-0.1-0.3h-3.8c-0.2,0-0.4,0.2-0.4,0.4v3.8
			c0,0.2,0.1,0.3,0.3,0.1L22.5,22.7z"/>
	</g>
	<g>
		<path class="st296" d="M21.1,24.8c-0.2,0.2-0.1,0.3,0.1,0.3H25c0.2,0,0.4-0.2,0.4-0.4v-3.8c0-0.2-0.1-0.3-0.3-0.1l-1.7,1.7
			c-0.2,0.2-0.4,0.4-0.6,0.6L21.1,24.8z"/>
	</g>
	<g>
		<path class="st297" d="M9.4,8.2c0,0.2,0.2,0.4,0.4,0.4h3.8c0.2,0,0.3-0.1,0.1-0.3l-1.7-1.7c-0.2-0.2-0.4-0.4-0.6-0.6L9.7,4.3
			C9.6,4.1,9.4,4.2,9.4,4.4V8.2z"/>
	</g>
	<g>
		<path class="st298" d="M25.5,4.1c0-0.2-0.2-0.4-0.4-0.4h-3.8c-0.2,0-0.3,0.1-0.1,0.3l1.7,1.7c0.2,0.2,0.4,0.4,0.6,0.6L25.1,8
			c0.2,0.2,0.3,0.1,0.3-0.1V4.1z"/>
	</g>
	<g>
		<path class="st299" d="M20.9,9.1c-0.2,0-0.4,0.2-0.4,0.4v3.8c0,0.2,0.1,0.3,0.3,0.1l1.7-1.7c0.2-0.2,0.4-0.4,0.6-0.6l1.7-1.7
			c0.2-0.2,0.1-0.3-0.1-0.3H20.9z"/>
	</g>
	<g>
		<path class="st300" d="M25.5,15c0-0.2-0.2-0.4-0.4-0.4h-3.8c-0.2,0-0.3,0.1-0.1,0.3l1.7,1.7c0.2,0.2,0.4,0.4,0.6,0.6l1.7,1.7
			c0.2,0.2,0.3,0.1,0.3-0.1V15z"/>
	</g>
	<g>
		<path class="st301" d="M23.1,17.6c-0.2-0.2-0.4-0.4-0.6-0.6l-1.7-1.7c-0.2-0.2-0.3-0.1-0.3,0.1v3.8c0,0.2,0.2,0.4,0.4,0.4h3.8
			c0.2,0,0.3-0.1,0.1-0.3L23.1,17.6z"/>
	</g>
	<g>
		<path class="st302" d="M25.5,9.9c0-0.2-0.1-0.3-0.3-0.1l-1.7,1.7c-0.2,0.2-0.4,0.4-0.6,0.6l-1.7,1.7c-0.2,0.2-0.1,0.3,0.1,0.3H25
			c0.2,0,0.4-0.2,0.4-0.4V9.9z"/>
	</g>
	<g>
		<path class="st303" d="M20.7,4.3c-0.2-0.2-0.3-0.1-0.3,0.1v3.8c0,0.2,0.2,0.4,0.4,0.4h3.8c0.2,0,0.3-0.1,0.1-0.3l-1.7-1.7
			c-0.2-0.2-0.4-0.4-0.6-0.6L20.7,4.3z"/>
	</g>
	<g>
		<path class="st304" d="M25.9,7.9c0,0.2,0.1,0.3,0.3,0.1L28,6.3c0.2-0.2,0.4-0.4,0.6-0.6l1.7-1.7c0.2-0.2,0.1-0.3-0.1-0.3h-3.8
			c-0.2,0-0.4,0.2-0.4,0.4V7.9z"/>
	</g>
	<g>
		<path class="st287" d="M28.3,11.2c0.2,0.2,0.4,0.4,0.6,0.6l1.7,1.7c0.2,0.2,0.3,0.1,0.3-0.1V9.6c0-0.2-0.2-0.4-0.4-0.4h-3.8
			c-0.2,0-0.3,0.1-0.1,0.3L28.3,11.2z"/>
	</g>
	<g>
		<path class="st305" d="M28,17.2c0.2-0.2,0.4-0.4,0.6-0.6l1.7-1.7c0.2-0.2,0.1-0.3-0.1-0.3h-3.8c-0.2,0-0.4,0.2-0.4,0.4v3.8
			c0,0.2,0.1,0.3,0.3,0.1L28,17.2z"/>
	</g>
	<g>
		<path class="st306" d="M30.5,19.6c0.2,0,0.4-0.2,0.4-0.4v-3.8c0-0.2-0.1-0.3-0.3-0.1L28.9,17c-0.2,0.2-0.4,0.4-0.6,0.6l-1.7,1.7
			c-0.2,0.2-0.1,0.3,0.1,0.3H30.5z"/>
	</g>
	<g>
		<path class="st307" d="M25.9,13.7c0,0.2,0.2,0.4,0.4,0.4h3.8c0.2,0,0.3-0.1,0.1-0.3l-1.7-1.7c-0.2-0.2-0.4-0.4-0.6-0.6l-1.7-1.7
			c-0.2-0.2-0.3-0.1-0.3,0.1V13.7z"/>
	</g>
	<g>
		<path class="st308" d="M30.5,8.7c0.2,0,0.4-0.2,0.4-0.4V4.4c0-0.2-0.1-0.3-0.3-0.1L28.9,6c-0.2,0.2-0.4,0.4-0.6,0.6l-1.7,1.7
			c-0.2,0.2-0.1,0.3,0.1,0.3H30.5z"/>
	</g>
</g>
<g>
	<g>
		<path class="st2" d="M44.1,4.3L44.1,4.3c0,0.3-0.2,0.5-0.5,0.5h-8.9c-0.3,0-0.5-0.2-0.5-0.5v0c0-0.3,0.2-0.5,0.5-0.5h8.9
			C43.9,3.9,44.1,4.1,44.1,4.3z M38.7,13.4c-0.3,0-0.5,0.2-0.5,0.5l0,1c-0.1,1-0.8,1.9-2,2.6c-0.2,0.1-0.4,0.1-0.6-0.1v0
			c-0.2-0.2-0.1-0.6,0.1-0.7c0.2-0.1,0.4-0.2,0.6-0.4c0.6-0.4,0.9-1.2,0.9-2.4c0-0.3-0.2-0.5-0.5-0.5h-1.5l-0.1,0.1v10.2
			c0,0.3-0.2,0.5-0.5,0.5h0c-0.3,0-0.5-0.2-0.5-0.5v-11c0-0.2,0.1-0.2,0.2-0.2h9.6c0.1,0,0.2,0.1,0.2,0.2v10.4
			c0,0.4-0.2,0.7-0.4,0.9c-0.5,0.3-1.4,0.4-2.5,0.2c-0.2,0-0.4-0.2-0.4-0.5v-0.1c0-0.3,0.3-0.5,0.6-0.5c0.8,0.2,1.3,0.2,1.6,0
			c0.2-0.1,0.3-0.3,0.3-0.4V18c0-0.3-0.2-0.5-0.5-0.5h-2.4c-0.3,0-0.4-0.2-0.4-0.5v-3.1c0-0.3-0.2-0.5-0.5-0.5H38.7z M42.8,10.6H35
			c-0.1,0-0.1,0-0.1-0.2V7.3c0-0.3,0.3-0.6,0.6-0.6h7.8c0.1,0,0.2,0,0.2,0.1v3.1C43.4,10.3,43.1,10.6,42.8,10.6z M35.9,7.7L35.9,7.7
			l0,1.9l0,0h6.5l0,0V7.7l0,0H35.9z M36.1,19.1L36.1,19.1c0-0.3,0.2-0.5,0.5-0.5h5.3c0.3,0,0.5,0.2,0.5,0.5v0c0,0.3-0.2,0.5-0.5,0.5
			h-1.7c-0.3,0-0.5,0.2-0.5,0.5v2.7c0,0.3-0.2,0.5-0.5,0.5h0c-0.3,0-0.5-0.2-0.5-0.5v-2.7c0-0.3-0.2-0.5-0.5-0.5h-1.7
			C36.3,19.6,36.1,19.4,36.1,19.1z M42.9,16.5c0.3,0,0.5-0.2,0.5-0.5v-2.6l-0.1-0.1h-1.8c-0.3,0-0.5,0.2-0.5,0.5v2
			c0,0.4,0.3,0.7,0.7,0.7H42.9z M45.6,23.3l0-0.1c-0.1-0.3,0.1-0.5,0.4-0.6l2.8-0.5c0.2,0,0.4-0.2,0.4-0.5v-4.5
			c0-0.3-0.2-0.5-0.5-0.5H46c-0.1,0-0.1,0-0.1-0.2v-10c0-0.3,0.3-0.6,0.6-0.6h2.2c0.3,0,0.5-0.2,0.5-0.5V3.9c0-0.3,0.2-0.5,0.5-0.5
			h0.1c0.3,0,0.5,0.2,0.5,0.5v1.7c0,0.3,0.2,0.5,0.5,0.5h2.8c0.1,0,0.2,0,0.2,0.1v10c0,0.4-0.3,0.6-0.6,0.6h-2.4
			c-0.3,0-0.5,0.2-0.5,0.5v4.1c0,0.3,0.3,0.5,0.6,0.5l1.7-0.3c0.3,0,0.5-0.3,0.4-0.6c-0.1-0.5-0.3-0.9-0.4-1.3
			c-0.1-0.3,0-0.5,0.3-0.6l0.1,0c0.2-0.1,0.5,0,0.6,0.3c0.5,1.2,0.9,2.6,1.2,4.3c0,0.2-0.1,0.5-0.3,0.6l-0.1,0
			c-0.3,0.1-0.5-0.1-0.6-0.4L53.4,23c-0.1-0.2-0.3-0.4-0.5-0.4l-6.7,1.1C45.9,23.7,45.6,23.6,45.6,23.3z M49.1,7.5
			c0-0.3-0.2-0.5-0.5-0.5H47l0,0v8.5l0,0.1h1.7c0.3,0,0.5-0.2,0.5-0.5V7.5z M50.2,15.2c0,0.3,0.2,0.5,0.5,0.5h1.9l0.1-0.1V7.1
			l-0.1,0h-1.9c-0.3,0-0.5,0.2-0.5,0.5V15.2z"/>
		<path class="st2" d="M56.8,15.8c-0.2-0.2-0.3-0.5-0.1-0.8c0.6-1.6,1.2-3.7,1.7-6.4c0.1-0.3-0.2-0.6-0.5-0.6l-1.1,0
			c-0.3,0-0.5-0.2-0.5-0.5v0c0-0.3,0.2-0.5,0.5-0.5h1.5c0.3,0,0.5-0.2,0.5-0.5l0.4-2.7c0-0.3,0.3-0.5,0.6-0.4l0,0
			c0.3,0,0.5,0.3,0.4,0.6l-0.3,2.4c0,0.3,0.2,0.6,0.5,0.6h2.8c0.2,0,0.2,0.1,0.2,0.3v0c-0.1,4.1-0.8,7.6-2,10.6
			c-0.1,0.2,0,0.4,0.1,0.6l1.3,1.2c0.2,0.2,0.2,0.5,0.1,0.7l0,0c-0.2,0.3-0.5,0.3-0.8,0.1l-0.9-0.8c-0.2-0.2-0.6-0.2-0.8,0.1
			c-0.8,1.3-1.8,2.6-3.1,3.8c-0.2,0.2-0.5,0.2-0.7,0.1l0,0c-0.3-0.2-0.3-0.6-0.1-0.8c1-0.9,1.8-1.8,2.3-2.6c0,0,0,0,0,0
			c0.1-0.1,0.5-0.8,0.8-1.2c0.1-0.2,0.1-0.5-0.1-0.7L56.8,15.8z M61.8,8.1l-1.7,0c-0.3,0-0.5,0.2-0.5,0.4c-0.4,1.9-1,4.2-1.7,6.6
			c0,0.1,0,0.2,0.2,0.4l2.4,2.2l0.2-0.4c0.4-1,0.8-2.3,1.2-3.9c0.3-1.3,0.4-2.9,0.5-4.7C62.3,8.3,62.1,8.1,61.8,8.1z M63.6,15.9
			L63.6,15.9c0-0.3,0.2-0.5,0.5-0.5h5.3c0.3,0,0.5-0.2,0.5-0.5v-1.2c0-0.3-0.2-0.5-0.5-0.5h-3.3c-0.3,0-0.5-0.2-0.5-0.5v-6
			c0-0.3-0.2-0.5-0.5-0.5h-1.3c-0.3,0-0.5-0.2-0.5-0.5v0c0-0.3,0.2-0.5,0.5-0.5h1.3c0.3,0,0.5-0.2,0.5-0.5v-1c0-0.3,0.2-0.5,0.5-0.5
			h0c0.3,0,0.5,0.2,0.5,0.5v1c0,0.3,0.2,0.5,0.5,0.5h6.3C73.7,5,74,4.8,74,4.5v-1C74,3.2,74.2,3,74.5,3h0c0.3,0,0.5,0.2,0.5,0.5v1
			c0,0.3,0.2,0.5,0.5,0.5H77c0.3,0,0.5,0.2,0.5,0.5v0c0,0.3-0.2,0.5-0.5,0.5h-1.4c-0.3,0-0.5,0.2-0.5,0.5V12c0,0.6-0.5,1.1-1.1,1.1
			h-2.5c-0.3,0-0.5,0.2-0.5,0.5v1.2c0,0.3,0.2,0.5,0.5,0.5h5.4c0.3,0,0.5,0.2,0.5,0.5v0c0,0.3-0.2,0.5-0.5,0.5H72
			c-0.3,0-0.4,0.3-0.3,0.5c1.4,1.9,3.3,3.6,5.6,5.2c0.3,0.2,0.3,0.6,0.1,0.8l0,0c-0.2,0.2-0.4,0.2-0.7,0c-2-1.4-3.8-3-5.3-4.8
			C71.2,18,71,18.1,71,18.3l0,5.7c0,0.3-0.2,0.5-0.5,0.5h0c-0.3,0-0.5-0.2-0.5-0.5v-5.7c0-0.2-0.3-0.3-0.4-0.2c-2,2.3-4,4-6.1,5.1
			c-0.2,0.1-0.5,0.1-0.6-0.1l0,0c-0.2-0.3-0.1-0.6,0.1-0.8c2.5-1.4,4.6-3.2,6.3-5.3c0.2-0.2,0-0.5-0.3-0.5l-4.8,0
			C63.8,16.4,63.6,16.1,63.6,15.9z M73.5,6.1h-6.3c-0.3,0-0.5,0.2-0.5,0.5V8c0,0.3,0.2,0.5,0.5,0.5h6.3C73.7,8.6,74,8.3,74,8V6.6
			C74,6.3,73.7,6.1,73.5,6.1z M66.7,11.3c0,0.4,0.3,0.7,0.7,0.7h5.9c0.4,0,0.7-0.3,0.7-0.7v-1.1c0-0.3-0.2-0.5-0.5-0.5h-6.3
			c-0.3,0-0.5,0.2-0.5,0.5V11.3z"/>
		<path class="st2" d="M80.1,4.6c0-0.5,0.4-0.9,0.9-0.9h4.6c0.5,0,0.9,0.4,0.9,0.9v4.6c0,0.3,0.2,0.5,0.5,0.5h0.3
			c0.2,0,0.2,0.1,0.2,0.3c0,0.8-0.1,1.6-0.3,2.4c-0.1,0.3-0.3,0.5-0.6,0.4l-0.1,0c-0.3-0.1-0.4-0.3-0.4-0.6l0.1-1.3
			c0-0.1,0-0.1-0.1-0.1h-5.3c-0.3,0-0.6,0.3-0.6,0.6v1c0,0.3-0.2,0.5-0.5,0.5h0c-0.3,0-0.5-0.2-0.5-0.5V9.9c0-0.1,0.1-0.2,0.2-0.2
			h0.2c0.3,0,0.5-0.2,0.5-0.5V4.6z M81.2,24.1L81.2,24.1c-0.3,0-0.5-0.2-0.5-0.5V13.4c0-0.4,0.3-0.8,0.8-0.8h4.5
			c0.2,0,0.3,0.1,0.3,0.2V23c0,0.4-0.2,0.8-0.5,1c-0.3,0.2-0.9,0.3-1.8,0.1c-0.2-0.1-0.4-0.3-0.4-0.5v0c0-0.4,0.3-0.6,0.7-0.5
			c0.3,0.1,0.6,0.1,0.7,0c0.2-0.1,0.3-0.3,0.3-0.5v-1.8c0-0.3-0.2-0.5-0.5-0.5h-2.3c-0.3,0-0.5,0.2-0.5,0.5v2.8
			C81.8,23.9,81.5,24.1,81.2,24.1z M82.2,9.8c0.3,0,0.5-0.2,0.5-0.5V6.5c0-0.2,0.1-0.2,0.2-0.2H85c0.3,0,0.5-0.2,0.5-0.5V5.5
			c0-0.4-0.3-0.7-0.7-0.7h-2.9c-0.4,0-0.7,0.3-0.7,0.7v3.7c0,0.3,0.2,0.5,0.5,0.5H82.2z M84.6,15.9c0.3,0,0.5-0.2,0.5-0.5v-1.6
			l-0.1-0.1h-3.2l0,0.1v1.6c0,0.3,0.2,0.5,0.5,0.5H84.6z M85.2,18.6v-1.1c0-0.3-0.2-0.5-0.5-0.5h-2.3c-0.3,0-0.5,0.2-0.5,0.5v1.1
			c0,0.3,0.2,0.5,0.5,0.5h2.3C84.9,19.1,85.2,18.9,85.2,18.6z M85.5,9.2V7.9c0-0.3-0.2-0.5-0.5-0.5h-0.5c-0.4,0-0.7,0.3-0.7,0.7v1.2
			c0,0.3,0.2,0.5,0.5,0.5H85C85.3,9.8,85.5,9.5,85.5,9.2z M90.8,20.4c-0.1-0.2-0.3-0.3-0.5-0.3l-1.1,0c-0.1,0-0.1,0-0.1-0.2v-3.2
			c0-0.4,0.3-0.7,0.7-0.7h8.9c0.1,0,0.2,0,0.2,0.1v3.2c0,0.4-0.3,0.7-0.7,0.7h-0.4c-0.2,0-0.4,0.1-0.5,0.4l-0.4,1.1l-0.2,0.5
			c-0.1,0.3,0.1,0.7,0.5,0.7h2.2c0.3,0,0.5,0.2,0.5,0.5v0c0,0.3-0.2,0.5-0.5,0.5H88.5c-0.3,0-0.5-0.2-0.5-0.5v0
			c0-0.3,0.2-0.5,0.5-0.5l2.5,0c0.4,0,0.6-0.4,0.5-0.7C91.2,21.4,91,20.8,90.8,20.4z M100,13.9L100,13.9c0,0.3-0.2,0.5-0.5,0.5H88.6
			c-0.3,0-0.5-0.2-0.5-0.5v0c0-0.3,0.2-0.5,0.5-0.5h10.9C99.8,13.4,100,13.6,100,13.9z M98.8,4.6c0.4,0,0.7,0.3,0.7,0.7v6.4
			c0,0.1,0,0.2-0.1,0.2H88.8c-0.1,0-0.1,0-0.1-0.2V5.3c0-0.4,0.3-0.7,0.7-0.7h2c0.3,0,0.5-0.2,0.5-0.5V3.8c0-0.3,0.2-0.5,0.5-0.5h0
			c0.3,0,0.5,0.2,0.5,0.5v0.4c0,0.3,0.2,0.5,0.5,0.5h1c0.3,0,0.5-0.2,0.5-0.5V3.8c0-0.3,0.2-0.5,0.5-0.5h0c0.3,0,0.5,0.2,0.5,0.5
			v0.4c0,0.3,0.2,0.5,0.5,0.5H98.8z M91.8,6c0-0.2-0.1-0.3-0.3-0.3h-1.8l0,0v1.6c0,0.2,0.1,0.3,0.3,0.3h1.5c0.2,0,0.3-0.1,0.3-0.3V6
			z M91.5,8.7H90c-0.2,0-0.3,0.1-0.3,0.3v1.7l0,0.1h1.8c0.2,0,0.3-0.1,0.3-0.3V9C91.8,8.9,91.7,8.7,91.5,8.7z M90.2,17.1L90.2,17.1
			l0,1.9l0,0.1h7.5l0.1-0.1v-1.8l-0.1,0H90.2z M95.4,22.4l0.6-1.6c0.1-0.3-0.1-0.7-0.5-0.7h-2.9c-0.4,0-0.6,0.4-0.5,0.7l0.6,1.6
			c0.1,0.2,0.3,0.3,0.5,0.3h1.7C95.1,22.8,95.3,22.6,95.4,22.4z M94.6,5.7h-1.4c-0.2,0-0.3,0.1-0.3,0.3v1.4c0,0.2,0.1,0.3,0.3,0.3
			h1.4c0.2,0,0.3-0.1,0.3-0.3V6C94.9,5.8,94.8,5.7,94.6,5.7z M94.6,8.7h-1.4c-0.2,0-0.3,0.1-0.3,0.3v1.4c0,0.2,0.1,0.3,0.3,0.3h1.4
			c0.2,0,0.3-0.1,0.3-0.3V9C94.9,8.9,94.8,8.7,94.6,8.7z M96.3,7.6h1.8c0.2,0,0.3-0.1,0.3-0.3V5.8l-0.1,0h-2C96.1,5.7,96,5.8,96,6
			v1.4C96,7.5,96.1,7.6,96.3,7.6z M96,10.5c0,0.2,0.1,0.3,0.3,0.3h2l0.1-0.1V9c0-0.2-0.1-0.3-0.3-0.3h-1.8C96.1,8.7,96,8.9,96,9
			V10.5z"/>
	</g>
	<g>
		<path class="st2" d="M103.5,18.6l-0.6-0.2c-0.2-0.1-0.4-0.3-0.4-0.6l0.5-3.9c0-0.2,0.2-0.4,0.4-0.4h4.4c0.4,0,0.7-0.3,0.7-0.7
			v-1.8c0-0.1,0-0.1-0.1-0.1H103v-0.4l-1.4,0.3c-0.2,0-0.4-0.1-0.6-0.2l0,0c-0.2-0.3,0-0.7,0.3-0.8c1.1-0.2,2-0.5,2.9-0.8l0.7-0.3
			c-0.8-0.7-1.6-1.3-2.3-1.9c-0.2-0.2-0.3-0.5-0.1-0.7v0c0.2-0.2,0.5-0.2,0.7-0.1c1.3,1,2.2,1.7,2.6,2.1l0,0
			c1.1-0.7,1.9-1.5,2.5-2.3c0.3-0.3,0-0.8-0.4-0.8h-3.3c-0.3,0-0.5-0.2-0.5-0.5v0c0-0.3,0.2-0.5,0.5-0.5h4.9c0.1,0,0.3,0,0.3,0.1
			l0.2,0.2c0.2,0.1,0.2,0.4,0.1,0.6c-0.8,1.7-2.1,3.2-4,4.3c-0.4,0.2-0.2,0.8,0.2,0.8l2.1,0c0.4,0,0.8,0.3,0.8,0.8v3.7
			c0,0.2-0.1,0.3-0.3,0.3h-5.1c-0.1,0-0.2,0.1-0.2,0.2l-0.2,1.6c0,0.3,0.2,0.6,0.5,0.6h4.7c0.2,0,0.3,0.1,0.3,0.3
			c0,3.4-0.5,5.4-1.1,6c-0.6,0.6-2.2,0.7-4.6,0.3c-0.2,0-0.4-0.2-0.4-0.5l0,0c0-0.3,0.3-0.6,0.6-0.5c1,0.2,2,0.2,2.9,0.2
			c0.5,0,0.9-0.2,1-0.5c0.3-0.7,0.5-2,0.6-4c0-0.1,0-0.1-0.2-0.1h-4.6V18.6z M110.2,23.8L110.2,23.8c-0.2-0.4-0.1-0.7,0.2-0.8
			c1.1-0.3,2.2-0.8,3.4-1.3c0.3-0.2,0.4-0.6,0.1-0.8c-0.6-0.6-1.2-1.4-1.8-2.3c-0.2-0.3-0.1-0.6,0.2-0.7l0.1,0
			c0.2-0.1,0.5,0,0.6,0.2c0.6,0.9,1.2,1.7,2,2.4c0.2,0.2,0.4,0.2,0.6,0c1-0.7,1.8-1.7,2.5-2.7c0.2-0.3,0-0.8-0.4-0.8h-6.6
			c-0.3,0-0.5-0.2-0.5-0.5v0c0-0.3,0.2-0.5,0.5-0.5h8c0.1,0,0.3,0.1,0.4,0.1l0.2,0.2c0.1,0.1,0.2,0.4,0.1,0.5
			c-0.6,1.6-1.5,2.9-2.9,4c-0.3,0.2-0.2,0.7,0.1,0.9c1.1,0.4,2.4,0.8,3.8,1c0.3,0,0.5,0.4,0.4,0.7l0,0.1c-0.1,0.2-0.3,0.4-0.5,0.4
			c-1.9-0.2-3.6-0.8-5.1-1.7c-0.2-0.1-0.4-0.1-0.5,0c-1.7,1-3.2,1.7-4.5,1.9C110.5,24.1,110.3,24,110.2,23.8z M113.3,10.8v1
			c0,0.4-0.1,0.8-0.3,1.2c-0.3,0.6-0.9,1.1-1.7,1.5c-0.2,0.1-0.5,0-0.7-0.2l-0.1-0.1c-0.2-0.3,0-0.6,0.2-0.7
			c0.3-0.1,0.5-0.2,0.6-0.4c0.5-0.3,0.8-0.9,0.8-1.7V9.8l0.1-0.2l0.1-0.1h5.1l0.2,0l0.1,0.2v3.1l0.1,0.4c0.1,0.1,0.2,0.1,0.4,0.1
			h1.1l0.3-0.1c0.1,0,0.1-0.2,0.2-0.4l0.1-0.4c0-0.3,0.3-0.5,0.6-0.4l0,0c0.3,0,0.4,0.3,0.4,0.6c-0.1,0.9-0.3,1.4-0.4,1.6
			c-0.3,0.2-0.5,0.3-0.7,0.3h-2c-0.3,0-0.6-0.1-0.8-0.3c-0.2-0.2-0.3-0.5-0.3-0.8v-2.6c0-0.1-0.1-0.2-0.2-0.2h-3.1
			C113.4,10.6,113.3,10.7,113.3,10.8z M121.7,10.5L121.7,10.5c-0.2,0.2-0.4,0.3-0.6,0.2c-3.2-1.4-6.1-3.3-8.5-5.7
			c-0.2-0.2-0.2-0.4-0.1-0.7l0,0c0.2-0.3,0.6-0.3,0.8-0.1l1,1c0.2,0.2,0.5,0.2,0.7,0c0.6-0.5,1.1-1,1.5-1.5c0.2-0.2,0.5-0.2,0.7,0
			l0,0c0.2,0.2,0.2,0.5,0,0.7c-0.4,0.5-0.9,0.9-1.4,1.4c-0.2,0.2-0.2,0.6,0,0.8c0.3,0.2,0.6,0.4,0.9,0.6c0.2,0.1,0.5,0.1,0.6-0.1
			c0.6-0.6,1.1-1.1,1.5-1.6c0.2-0.2,0.5-0.3,0.7-0.1l0.1,0.1c0.2,0.2,0.2,0.5,0,0.7c-0.3,0.4-0.7,0.8-1.1,1.2
			c-0.2,0.2-0.2,0.7,0.1,0.8c0.8,0.4,1.8,0.9,2.8,1.3C121.8,9.8,121.9,10.2,121.7,10.5z"/>
		<path class="st2" d="M141.9,18L141.9,18c0.1,0.2,0.1,0.6-0.2,0.7c-0.8,0.5-1.8,1.1-2.9,1.6c-0.4,0.2-0.4,0.7,0,1
			c1.1,0.6,2.6,1.2,4.3,1.6c0.3,0.1,0.5,0.4,0.3,0.7l-0.2,0.4l-0.2,0c-4.8-0.9-8.1-3.4-9.9-7.4c-0.1-0.2-0.3-0.3-0.5-0.3h-1.9
			c-0.3,0-0.5,0.2-0.5,0.5v5.4c0,0.3,0.3,0.6,0.6,0.5c1.2-0.2,2.2-0.4,3.1-0.7c0.3-0.1,0.6,0.1,0.7,0.4l0,0c0.1,0.3-0.1,0.6-0.4,0.6
			c-2,0.6-4.4,0.9-7.2,1.1c-0.3,0-0.6-0.2-0.6-0.5l0,0c0-0.3,0.2-0.5,0.5-0.6l1.7-0.2c0.3,0,0.5-0.3,0.5-0.5v-5.7
			c0-0.3-0.2-0.5-0.5-0.5h-2.7c-0.3,0-0.5,0.2-0.5,0.5c-0.1,1.2-0.3,2.4-0.7,3.6c-0.2,1-0.6,1.9-0.9,2.6c-0.1,0.3-0.5,0.4-0.7,0.2
			l-0.1,0c-0.3-0.1-0.4-0.5-0.2-0.7c1.1-2.1,1.7-4.6,1.7-7.6V4.4c0-0.3,0.1-0.4,0.4-0.4h17.8c0.3,0,0.4,0.1,0.4,0.4v3.4
			c0,0.5-0.4,1-1,1h-3.2c-0.3,0-0.5,0.2-0.5,0.5v1.6c0,0.3,0.2,0.5,0.5,0.5h3.7c0.3,0,0.5,0.2,0.5,0.5v0c0,0.3-0.2,0.5-0.5,0.5h-3.7
			c-0.3,0-0.5,0.2-0.5,0.5v1.5c0,0.3,0.2,0.5,0.5,0.5h4.6c0.3,0,0.5,0.2,0.5,0.5v0c0,0.3-0.2,0.5-0.5,0.5H135
			c-0.4,0-0.7,0.4-0.5,0.8c0.6,1.1,1.3,2,2.1,2.7c0.2,0.1,0.4,0.2,0.6,0.1c1.6-0.7,3-1.4,4-2C141.4,17.6,141.8,17.7,141.9,18z
			 M125.9,7.7H141c0.4,0,0.7-0.3,0.7-0.7V5.8c0-0.4-0.3-0.7-0.7-0.7h-15.6c-0.1,0-0.1,0-0.1,0.1v2C125.3,7.5,125.6,7.7,125.9,7.7z
			 M130.3,14.6v-1.5c0-0.3-0.2-0.5-0.5-0.5h-2.6c-0.3,0-0.5-0.2-0.5-0.5v0c0-0.3,0.2-0.5,0.5-0.5h2.6c0.3,0,0.5-0.2,0.5-0.5V9.3
			c0-0.3-0.2-0.5-0.5-0.5h-3.9c-0.3,0-0.5,0.2-0.5,0.5v5.2c0,0.3,0.2,0.5,0.5,0.5h3.9C130,15.1,130.3,14.9,130.3,14.6z M136.6,8.8
			h-4.7c-0.3,0-0.5,0.2-0.5,0.5v1.6c0,0.3,0.2,0.5,0.5,0.5h4.7c0.3,0,0.5-0.2,0.5-0.5V9.3C137.1,9.1,136.9,8.8,136.6,8.8z
			 M137.1,14.6v-1.5c0-0.3-0.2-0.5-0.5-0.5h-4.7c-0.3,0-0.5,0.2-0.5,0.5v1.5c0,0.3,0.2,0.5,0.5,0.5h4.7
			C136.9,15.1,137.1,14.9,137.1,14.6z"/>
		<path class="st2" d="M154.3,7.1L154.3,7.1c0.3,0.1,0.4,0.4,0.3,0.7c-0.5,1.6-1,2.9-1.4,3.9c-0.1,0.3,0.1,0.7,0.5,0.7h2.5
			c0.3,0,0.5,0.2,0.5,0.5v0c0,0.3-0.2,0.5-0.5,0.5h-10.9c-0.3,0-0.5-0.2-0.5-0.5v0c0-0.3,0.2-0.5,0.5-0.5h6.1c0.2,0,0.4-0.1,0.5-0.3
			c0.7-1.5,1.3-3.1,1.7-4.6C153.7,7.2,154,7,154.3,7.1z M150.6,3.4L150.6,3.4c0.3,0,0.5,0.2,0.5,0.5v0.6c0,0.3,0.2,0.5,0.5,0.5h3.9
			c0.3,0,0.5,0.2,0.5,0.5v0c0,0.3-0.2,0.5-0.5,0.5h-9.6c-0.3,0-0.5-0.2-0.5-0.5v0c0-0.3,0.2-0.5,0.5-0.5h3.6c0.3,0,0.5-0.2,0.5-0.5
			V3.9C150.1,3.6,150.3,3.4,150.6,3.4z M146.8,24.3L146.8,24.3c-0.3,0-0.5-0.2-0.5-0.5v-7.6c0-0.3,0.1-0.3,0.4-0.3h7.8
			c0.5,0,0.9,0.4,0.9,0.9v7c0,0.3-0.2,0.5-0.5,0.5h0c-0.3,0-0.5-0.2-0.5-0.5v-0.6c0-0.3-0.2-0.5-0.5-0.5h-5.9
			c-0.3,0-0.5,0.2-0.5,0.5v0.6C147.3,24,147.1,24.3,146.8,24.3z M147.6,7.5c0.4,1.1,0.8,2.3,1.2,3.5c0.1,0.3-0.1,0.6-0.4,0.6l0,0
			c-0.3,0.1-0.6-0.1-0.6-0.4c-0.3-1.1-0.7-2.2-1.1-3.4c-0.1-0.3,0-0.6,0.3-0.7v0C147.3,7.1,147.5,7.2,147.6,7.5z M153.8,21.6
			c0.3,0,0.5-0.2,0.5-0.5V17c0-0.1,0-0.1-0.2-0.1h-6.6c-0.1,0-0.2,0-0.2,0.2v4.1c0,0.3,0.2,0.5,0.5,0.5H153.8z M159.6,5.1
			c-0.4,0-0.7,0.3-0.7,0.7v17.9c0,0.3-0.2,0.5-0.5,0.5h0c-0.3,0-0.5-0.2-0.5-0.5V4.2c0-0.1,0.1-0.2,0.2-0.2h6.3c0.1,0,0.2,0,0.3,0.1
			l0.3,0.2c0.2,0.1,0.2,0.4,0.2,0.6l-2,6.5c0,0.1,0,0.3,0,0.4c1.1,1.4,1.9,2.6,2.4,3.7c0,0,0,0,0,0.1c0.7,2.1,0.7,3.8,0,5.1
			c-0.3,0.6-0.7,1-1.2,1.2c-0.4,0.2-0.9,0.3-1.4,0.3c-0.5,0-1.1-0.2-2-0.5c-0.2-0.1-0.4-0.3-0.4-0.5l0-0.1c0-0.3,0.4-0.6,0.7-0.5
			c1.1,0.4,2,0.5,2.5,0.3c1-0.4,1.4-1.6,1.3-3.5c0,0,0-0.1,0-0.1c-0.3-1.4-1.3-3.1-3-5.3c-0.1-0.1-0.1-0.3-0.1-0.4l1.9-5.8
			c0.1-0.3-0.1-0.7-0.5-0.7H159.6z"/>
	</g>
</g>
</svg>
