<?xml version="1.0" encoding="utf-8"?>
<!-- Generator: Adobe Illustrator 19.1.0, SVG Export Plug-In . SVG Version: 6.00 Build 0)  -->
<svg version="1.1" id="圖層_1" xmlns="http://www.w3.org/2000/svg" xmlns:xlink="http://www.w3.org/1999/xlink" x="0px" y="0px"
	 viewBox="0 0 164.7 26" style="enable-background:new 0 0 164.7 26;" xml:space="preserve">
<style type="text/css">
	.st0{fill:#EEEEEF;}
	.st1{fill:#F7F7F7;}
	.st2{fill:#FFFFFF;}
	.st3{fill:url(#SVGID_13_);}
	.st4{fill:#182987;}
	.st5{fill:none;stroke:#182987;stroke-miterlimit:10;}
	.st6{fill:url(#SVGID_14_);}
	.st7{fill:url(#SVGID_15_);}
	.st8{fill:url(#SVGID_16_);}
	.st9{fill:url(#SVGID_21_);}
	.st10{fill:url(#SVGID_22_);}
	.st11{fill:url(#SVGID_23_);}
	.st12{fill:url(#SVGID_24_);}
	.st13{fill:url(#SVGID_27_);}
	.st14{fill:url(#SVGID_28_);}
	.st15{fill:url(#SVGID_29_);}
	.st16{fill:none;stroke:#3E3A39;stroke-miterlimit:10;}
	.st17{fill:url(#SVGID_30_);}
	.st18{fill:none;stroke:#182987;stroke-width:5;stroke-miterlimit:10;}
	.st19{fill:url(#SVGID_31_);}
	.st20{fill:url(#SVGID_32_);}
	.st21{fill:url(#SVGID_33_);}
	.st22{fill:url(#SVGID_34_);}
	.st23{fill:url(#SVGID_35_);}
	.st24{fill:url(#SVGID_36_);}
	.st25{fill:none;stroke:url(#SVGID_37_);stroke-width:2;stroke-miterlimit:10;}
	.st26{fill:none;stroke:url(#SVGID_38_);stroke-width:2;stroke-miterlimit:10;}
	.st27{fill:none;stroke:url(#SVGID_39_);stroke-width:2;stroke-miterlimit:10;}
	.st28{fill:none;stroke:url(#SVGID_40_);stroke-width:2;stroke-miterlimit:10;}
	.st29{fill:url(#SVGID_41_);}
	.st30{fill:url(#SVGID_42_);}
	.st31{fill:url(#SVGID_43_);}
	.st32{fill:url(#SVGID_44_);}
	.st33{fill:url(#SVGID_45_);}
	.st34{fill:url(#SVGID_46_);}
	.st35{fill:url(#SVGID_47_);}
	.st36{fill:url(#SVGID_48_);}
	.st37{fill:url(#SVGID_49_);}
	.st38{fill:url(#SVGID_50_);}
	.st39{fill:none;stroke:#231815;stroke-width:0.25;stroke-miterlimit:10;}
	.st40{fill:none;stroke:url(#SVGID_51_);stroke-width:8;stroke-miterlimit:10;}
	.st41{clip-path:url(#SVGID_53_);}
	.st42{clip-path:url(#SVGID_55_);}
	.st43{fill:url(#SVGID_56_);}
	.st44{fill:url(#SVGID_57_);}
	.st45{fill:url(#SVGID_58_);}
	.st46{fill:none;stroke:url(#SVGID_59_);stroke-width:3;stroke-miterlimit:10;stroke-dasharray:11.9991,11.9991;}
	.st47{fill:url(#SVGID_60_);}
	.st48{fill:url(#SVGID_61_);}
	.st49{fill:#FFFFFF;stroke:#231815;stroke-miterlimit:10;}
	.st50{clip-path:url(#SVGID_65_);}
	.st51{clip-path:url(#SVGID_67_);fill:url(#SVGID_68_);}
	.st52{fill:#3E3A39;}
	.st53{fill:#DBDCDC;}
	.st54{fill:url(#SVGID_75_);}
	.st55{fill:url(#SVGID_76_);}
	.st56{fill:url(#SVGID_77_);}
	.st57{fill:url(#SVGID_78_);}
	.st58{fill:url(#SVGID_79_);}
	.st59{fill:none;stroke:url(#SVGID_80_);stroke-width:2;stroke-miterlimit:10;}
	.st60{fill:none;stroke:url(#SVGID_81_);stroke-width:2;stroke-miterlimit:10;}
	.st61{fill:url(#SVGID_82_);}
	.st62{fill:url(#SVGID_83_);}
	.st63{fill:url(#SVGID_84_);}
	.st64{fill:url(#SVGID_85_);}
	.st65{fill:url(#SVGID_86_);}
	.st66{fill:url(#SVGID_87_);}
	.st67{fill:url(#SVGID_88_);}
	.st68{fill:url(#SVGID_89_);}
	.st69{fill:url(#SVGID_90_);}
	.st70{clip-path:url(#SVGID_98_);}
	.st71{fill:url(#SVGID_103_);}
	.st72{fill:url(#SVGID_104_);}
	.st73{fill:url(#SVGID_105_);}
	.st74{fill:url(#SVGID_106_);}
	.st75{fill:url(#SVGID_107_);}
	.st76{fill:url(#SVGID_108_);}
	.st77{fill:url(#SVGID_109_);}
	.st78{fill:url(#SVGID_110_);}
	.st79{fill:none;stroke:url(#SVGID_111_);stroke-width:8;stroke-miterlimit:10;}
	.st80{fill:url(#SVGID_112_);}
	.st81{fill:none;stroke:url(#SVGID_113_);stroke-width:3;stroke-miterlimit:10;}
	.st82{fill:none;stroke:url(#SVGID_114_);stroke-width:3;stroke-miterlimit:10;}
	.st83{fill:none;stroke:url(#SVGID_115_);stroke-width:3;stroke-miterlimit:10;}
	.st84{fill:none;stroke:url(#SVGID_116_);stroke-width:3;stroke-miterlimit:10;}
	.st85{fill:url(#SVGID_117_);}
	.st86{fill:url(#SVGID_118_);}
	.st87{fill:url(#SVGID_119_);}
	.st88{clip-path:url(#SVGID_121_);}
	.st89{fill:url(#SVGID_122_);}
	.st90{fill:url(#SVGID_123_);}
	.st91{fill:url(#SVGID_124_);}
	.st92{fill:url(#SVGID_125_);}
	.st93{fill:url(#SVGID_126_);}
	.st94{fill:url(#SVGID_127_);}
	.st95{fill:url(#SVGID_128_);}
	.st96{fill:url(#SVGID_129_);}
	.st97{fill:url(#SVGID_130_);}
	.st98{fill:url(#SVGID_131_);}
	.st99{fill:url(#SVGID_132_);}
	.st100{fill:#E76A0F;}
	.st101{fill:#040000;}
	.st102{fill:#365288;stroke:#231815;stroke-miterlimit:10;}
	.st103{fill:url(#SVGID_135_);}
	.st104{fill:url(#SVGID_138_);}
	.st105{fill:url(#SVGID_139_);}
	.st106{fill:url(#SVGID_140_);}
	.st107{fill:url(#SVGID_141_);}
	.st108{fill:url(#SVGID_142_);}
	.st109{fill:url(#SVGID_143_);}
	.st110{fill:none;stroke:url(#SVGID_144_);stroke-width:2;stroke-miterlimit:10;}
	.st111{fill:none;stroke:url(#SVGID_145_);stroke-width:2;stroke-miterlimit:10;}
	.st112{fill:none;stroke:url(#SVGID_146_);stroke-width:2;stroke-miterlimit:10;}
	.st113{fill:none;stroke:url(#SVGID_147_);stroke-width:2;stroke-miterlimit:10;}
	.st114{fill:url(#SVGID_148_);}
	.st115{fill:none;stroke:url(#SVGID_149_);stroke-miterlimit:10;}
	.st116{fill:url(#SVGID_150_);}
	.st117{fill:url(#SVGID_151_);}
	.st118{fill:url(#SVGID_154_);}
	.st119{fill:none;stroke:#182987;stroke-width:4;stroke-miterlimit:10;}
	.st120{fill:url(#SVGID_155_);}
	.st121{fill:#888888;}
	.st122{fill:none;stroke:#9E9E9F;stroke-miterlimit:10;}
	.st123{fill:url(#SVGID_160_);}
	.st124{fill:url(#SVGID_161_);}
	.st125{fill:url(#SVGID_162_);}
	.st126{fill:url(#SVGID_163_);}
	.st127{fill:url(#SVGID_164_);}
	.st128{fill:url(#SVGID_165_);}
	.st129{fill:url(#SVGID_166_);}
	.st130{fill:url(#SVGID_169_);}
	.st131{fill:url(#SVGID_170_);}
	.st132{fill:url(#SVGID_171_);}
	.st133{fill:url(#SVGID_184_);}
	.st134{fill:url(#SVGID_189_);}
	.st135{fill:url(#SVGID_194_);}
	.st136{fill:url(#SVGID_195_);}
	.st137{fill:url(#SVGID_196_);}
	.st138{fill:url(#SVGID_197_);}
	.st139{fill:url(#SVGID_198_);}
	.st140{fill:url(#SVGID_199_);}
	.st141{fill:url(#SVGID_200_);}
	.st142{fill:url(#SVGID_201_);}
	.st143{fill:url(#SVGID_202_);}
	.st144{fill:url(#SVGID_203_);}
	.st145{fill:url(#SVGID_204_);}
	.st146{fill:url(#SVGID_205_);}
	.st147{fill:url(#SVGID_206_);}
	.st148{fill:url(#SVGID_207_);}
	.st149{fill:url(#SVGID_208_);}
	.st150{fill:url(#SVGID_209_);}
	.st151{fill:none;stroke:url(#SVGID_210_);stroke-width:3;stroke-miterlimit:10;}
	.st152{fill:url(#SVGID_211_);}
	.st153{fill:url(#SVGID_212_);}
	.st154{fill:none;stroke:url(#SVGID_213_);stroke-width:3;stroke-miterlimit:10;}
	.st155{fill:none;stroke:url(#SVGID_214_);stroke-width:3;stroke-miterlimit:10;}
	.st156{fill:none;stroke:url(#SVGID_215_);stroke-width:3;stroke-miterlimit:10;}
	.st157{fill:url(#SVGID_216_);}
	.st158{fill:url(#SVGID_217_);}
	.st159{fill:none;stroke:url(#SVGID_218_);stroke-width:3;stroke-miterlimit:10;}
	.st160{fill:url(#SVGID_219_);}
	.st161{fill:none;stroke:#182987;stroke-width:3;stroke-miterlimit:10;}
	.st162{clip-path:url(#SVGID_221_);fill:url(#SVGID_222_);}
	.st163{clip-path:url(#SVGID_224_);fill:url(#SVGID_225_);}
	.st164{fill:url(#SVGID_226_);}
	.st165{fill:#365288;}
	.st166{fill:url(#SVGID_231_);}
	.st167{fill:url(#SVGID_234_);}
	.st168{fill:none;stroke:#E73828;stroke-width:5;stroke-miterlimit:10;}
	.st169{fill:url(#SVGID_237_);}
	.st170{fill:url(#SVGID_238_);}
	.st171{fill:url(#SVGID_239_);}
	.st172{fill:url(#SVGID_242_);}
	.st173{fill:url(#SVGID_245_);}
	.st174{fill:url(#SVGID_248_);}
	.st175{fill:url(#SVGID_251_);}
	.st176{clip-path:url(#SVGID_253_);}
	.st177{fill:url(#SVGID_256_);}
	.st178{clip-path:url(#SVGID_258_);}
	.st179{fill:url(#SVGID_261_);}
	.st180{clip-path:url(#SVGID_263_);}
	.st181{fill:url(#SVGID_266_);}
	.st182{fill:url(#SVGID_267_);}
	.st183{fill:url(#SVGID_268_);}
	.st184{fill:none;stroke:url(#SVGID_269_);stroke-width:3;stroke-miterlimit:10;}
	.st185{fill:none;stroke:url(#SVGID_270_);stroke-width:3;stroke-miterlimit:10;}
	.st186{fill:none;stroke:url(#SVGID_271_);stroke-width:1.6;stroke-miterlimit:10;}
	.st187{fill:none;stroke:url(#SVGID_272_);stroke-width:1.6;stroke-miterlimit:10;}
	.st188{fill:none;stroke:url(#SVGID_273_);stroke-width:1.6;stroke-miterlimit:10;}
	.st189{fill:none;stroke:url(#SVGID_274_);stroke-width:1.6;stroke-miterlimit:10;}
	.st190{fill:none;stroke:url(#SVGID_275_);stroke-width:1.6;stroke-miterlimit:10;}
	.st191{fill:none;stroke:url(#SVGID_276_);stroke-width:1.6;stroke-miterlimit:10;}
	.st192{fill:none;stroke:url(#SVGID_277_);stroke-width:1.6;stroke-miterlimit:10;}
	.st193{fill:none;stroke:url(#SVGID_278_);stroke-width:1.6;stroke-miterlimit:10;}
	.st194{fill:none;stroke:url(#SVGID_279_);stroke-width:2;stroke-miterlimit:10;}
	.st195{fill:none;stroke:url(#SVGID_280_);stroke-width:2;stroke-miterlimit:10;}
	.st196{fill:none;stroke:url(#SVGID_281_);stroke-width:2;stroke-miterlimit:10;}
	.st197{fill:none;stroke:url(#SVGID_282_);stroke-width:2;stroke-miterlimit:10;}
	.st198{fill:none;stroke:url(#SVGID_283_);stroke-width:2;stroke-miterlimit:10;}
	.st199{fill:none;stroke:url(#SVGID_284_);stroke-width:2;stroke-miterlimit:10;}
	.st200{fill:none;stroke:#231815;stroke-miterlimit:10;}
	.st201{fill:url(#SVGID_285_);}
	.st202{fill:url(#SVGID_286_);}
	.st203{fill:url(#SVGID_287_);}
	.st204{fill:url(#SVGID_288_);}
	.st205{fill:none;stroke:url(#SVGID_289_);stroke-width:3;stroke-miterlimit:10;}
	.st206{fill:url(#SVGID_290_);}
	.st207{fill:url(#SVGID_291_);}
	.st208{fill:none;stroke:url(#SVGID_292_);stroke-width:3;stroke-miterlimit:10;}
	.st209{fill:none;stroke:url(#SVGID_293_);stroke-width:3;stroke-miterlimit:10;}
	.st210{fill:none;stroke:url(#SVGID_294_);stroke-width:3;stroke-miterlimit:10;}
	.st211{fill:url(#SVGID_295_);}
	.st212{fill:url(#SVGID_296_);}
	.st213{fill:none;stroke:url(#SVGID_297_);stroke-width:3;stroke-miterlimit:10;}
	.st214{fill:url(#SVGID_298_);}
	.st215{fill:url(#SVGID_299_);}
	.st216{fill:url(#SVGID_300_);}
	.st217{fill:url(#SVGID_301_);}
	.st218{fill:url(#SVGID_302_);}
	.st219{fill:url(#SVGID_303_);}
	.st220{fill:url(#SVGID_304_);}
	.st221{fill:url(#SVGID_305_);}
	.st222{fill:none;stroke:url(#SVGID_306_);stroke-miterlimit:10;}
	.st223{fill:url(#SVGID_307_);}
	.st224{fill:url(#SVGID_308_);}
	.st225{fill:url(#SVGID_309_);}
	.st226{fill:url(#SVGID_310_);}
	.st227{fill:url(#SVGID_311_);}
	.st228{fill:url(#SVGID_312_);}
	.st229{fill:url(#SVGID_313_);}
	.st230{fill:url(#SVGID_314_);stroke:#FFFFFF;stroke-miterlimit:10;}
	.st231{fill:none;stroke:url(#SVGID_315_);stroke-miterlimit:10;}
	.st232{fill:url(#SVGID_316_);}
	.st233{fill:url(#SVGID_317_);}
	.st234{fill:url(#SVGID_318_);}
	.st235{fill:url(#SVGID_319_);}
	.st236{fill:url(#SVGID_320_);}
	.st237{fill:url(#SVGID_321_);}
	.st238{fill:url(#SVGID_322_);}
	.st239{fill:url(#SVGID_325_);}
	.st240{fill:none;stroke:#182987;stroke-width:2;stroke-miterlimit:10;}
	.st241{fill:url(#SVGID_326_);}
	.st242{fill:url(#SVGID_327_);}
	.st243{fill:url(#SVGID_328_);}
	.st244{fill:url(#SVGID_329_);}
	.st245{fill:url(#SVGID_330_);}
	.st246{fill:url(#SVGID_331_);}
	.st247{fill:url(#SVGID_332_);}
	.st248{fill:url(#SVGID_333_);}
	.st249{fill:url(#SVGID_334_);}
	.st250{opacity:0.95;}
	.st251{fill:none;stroke:#FFFFFF;stroke-width:3;stroke-miterlimit:10;}
	.st252{fill:url(#SVGID_335_);}
	.st253{fill:none;stroke:#231815;stroke-width:2;stroke-miterlimit:10;}
	.st254{fill:none;stroke:url(#SVGID_336_);stroke-width:2;stroke-miterlimit:10;}
	.st255{fill:none;stroke:url(#SVGID_337_);stroke-width:2;stroke-miterlimit:10;}
	.st256{fill:url(#SVGID_338_);}
	.st257{fill:none;stroke:url(#SVGID_339_);stroke-width:2;stroke-miterlimit:10;}
	.st258{fill:none;stroke:url(#SVGID_340_);stroke-width:2;stroke-miterlimit:10;}
	.st259{fill:none;stroke:url(#SVGID_341_);stroke-width:2;stroke-miterlimit:10;}
	.st260{fill:none;stroke:url(#SVGID_342_);stroke-width:2;stroke-miterlimit:10;}
	.st261{fill:none;stroke:url(#SVGID_343_);stroke-width:2;stroke-miterlimit:10;}
	.st262{fill:none;stroke:url(#SVGID_344_);stroke-width:2;stroke-miterlimit:10;}
	.st263{fill:none;stroke:url(#SVGID_345_);stroke-width:2;stroke-miterlimit:10;}
	.st264{fill:url(#SVGID_346_);}
	.st265{fill:none;stroke:url(#SVGID_347_);stroke-width:2;stroke-miterlimit:10;}
	.st266{fill:none;stroke:url(#SVGID_348_);stroke-width:2;stroke-miterlimit:10;}
	.st267{fill:none;stroke:url(#SVGID_349_);stroke-width:2;stroke-miterlimit:10;}
	.st268{fill:url(#SVGID_350_);}
	.st269{fill:url(#SVGID_351_);}
	.st270{fill:url(#SVGID_352_);}
	.st271{fill:#6B6B6B;}
	.st272{fill:#BFBFBF;}
	.st273{fill:#B3D000;}
	.st274{fill:#00913D;}
	.st275{fill:#00763C;}
	.st276{fill:#9C0E59;}
	.st277{fill:#51AF33;}
	.st278{fill:#91C433;}
	.st279{fill:#F9BE00;}
	.st280{fill:#EA6118;}
	.st281{fill:#EE8500;}
	.st282{fill:#E95812;}
	.st283{fill:#EC6D22;}
	.st284{fill:#E78400;}
	.st285{fill:#F9BF00;}
	.st286{fill:#E9521A;}
	.st287{fill:#7F104A;}
	.st288{fill:#E40080;}
	.st289{fill:#F5AA00;}
	.st290{fill:#780712;}
	.st291{fill:#790910;}
	.st292{fill:#DF0518;}
	.st293{fill:#C61A1A;}
	.st294{fill:#B91221;}
	.st295{fill:#640015;}
	.st296{fill:#EC7026;}
	.st297{fill:#F7C000;}
	.st298{fill:#6F043D;}
	.st299{fill:#F5A600;}
	.st300{fill:#F5A900;}
</style>
<g>
	<g>
		<path class="st271" d="M31.5,7.4h6.3c3.4,0,4.8,0.9,4.8,2.8c0,1.4-0.6,1.9-1.8,2.2c1.4,0.3,2.1,1.1,2.1,2.6c0,2-2,2.9-4.8,2.9
			h-5.1c-0.8,0-1.4-0.6-1.4-1.4V7.4z M37.1,11.6c0.9,0,1.1-0.2,1.1-0.9c0-0.6-0.3-0.8-1.2-0.8h-1v1.7H37.1z M37.1,15.5
			c1.1,0,1.3-0.3,1.3-1c0-0.7-0.2-0.9-1.3-0.9h-1.2v1.9H37.1z"/>
		<path class="st271" d="M55,15.3l1.1,2.7h-3.6c-0.6,0-1.1-0.4-1.3-0.9l-0.8-1.9c-0.2-0.5-0.5-0.7-1-0.7c0,0-0.7,0-0.7,0v3.5h-4.5
			V8.8c0-0.8,0.6-1.4,1.4-1.4H51c3.6,0,4.9,1.2,4.9,3.6c0,1.6-0.9,2.5-2.1,2.9C54.3,14.1,54.7,14.5,55,15.3z M50,12.2
			c1.1,0,1.5-0.3,1.5-1.1c0-0.8-0.5-1.1-1.3-1.1h-1.5v2.2H50z"/>
		<path class="st271" d="M61.5,16.9c-0.2,0.6-0.7,1-1.4,1H57l3.4-9.6c0.2-0.6,0.7-0.9,1.3-0.9h3.6c0.6,0,1.1,0.4,1.3,0.9l3.4,9.6
			h-3.6c-0.6,0-1.2-0.4-1.4-1L65,16.4c0,0-3.3,0-3.3,0L61.5,16.9z M63.7,12.1c-0.2-0.7-0.4-1.6-0.4-1.6s-0.2,1-0.4,1.6l-0.5,1.7h1.8
			L63.7,12.1z"/>
		<path class="st271" d="M71.8,7.4h4.6l2,3.9c0.4,0.7,0.6,1.4,0.6,1.4V7.4h3.7v10.5h-3.6c-0.5,0-1-0.3-1.3-0.8L76.2,14
			c-0.3-0.6-0.6-1.4-0.6-1.4v5.3h-3.7V7.4z"/>
		<path class="st271" d="M85.1,8.8c0-0.8,0.6-1.4,1.4-1.4h4.2c3.7,0,5.9,1.5,5.9,5.2c0,3.6-2.2,5.3-5.9,5.3h-4.2
			c-0.8,0-1.4-0.6-1.4-1.4V8.8z M90.3,15c1.4,0,1.7-0.4,1.7-2.2s-0.3-2.4-1.7-2.4h-0.8V15H90.3z"/>
	</g>
	<g>
		<path class="st272" d="M98.1,16.4c0-0.8,0.6-1.4,1.4-1.4h3.2c0.4,0,0.6-0.2,0.6-0.5c0-0.3-0.2-0.5-0.6-0.5H101
			c-2.3,0-3.3-1.5-3.3-3.3c0-1.8,0.9-3.3,3.3-3.3h6V9c0,0.8-0.6,1.4-1.4,1.4h-3.1c-0.4,0-0.6,0.2-0.6,0.5c0,0.3,0.2,0.5,0.6,0.5h1.8
			c2.3,0,3.2,1.3,3.2,3.3c0,1.9-0.9,3.3-3.2,3.3h-6.3V16.4z"/>
		<path class="st272" d="M110.9,10.4h-3v-3h10.5v3h-3V18h-4.5V10.4z"/>
		<path class="st272" d="M119.2,13.5v-6h3c0.8,0,1.4,0.6,1.4,1.4V13c0,1.7,0.2,2.2,1.1,2.2c1,0,1.2-0.5,1.2-2.2V8.9
			c0-0.8,0.6-1.4,1.4-1.4h3v6c0,3.5-2,4.7-5.8,4.7C121.2,18.2,119.2,17,119.2,13.5z"/>
		<path class="st272" d="M132,8.9c0-0.8,0.6-1.4,1.4-1.4h4.2c3.7,0,5.9,1.5,5.9,5.2c0,3.6-2.2,5.3-5.9,5.3h-4.2
			c-0.8,0-1.4-0.6-1.4-1.4V8.9z M137.3,15.1c1.4,0,1.7-0.4,1.7-2.2s-0.3-2.4-1.7-2.4h-0.8v4.7H137.3z"/>
		<path class="st272" d="M144.9,7.4h3c0.8,0,1.4,0.6,1.4,1.4V18h-3c-0.8,0-1.4-0.6-1.4-1.4V7.4z"/>
		<path class="st272" d="M150.4,12.7c0-3.6,2.1-5.5,6-5.5c3.9,0,6,1.9,6,5.5c0,3.6-2.1,5.5-6,5.5C152.5,18.2,150.4,16.3,150.4,12.7z
			 M157.8,12.7c0-2-0.3-2.6-1.5-2.6c-1.1,0-1.5,0.5-1.5,2.6c0,2,0.3,2.5,1.5,2.5C157.5,15.2,157.8,14.7,157.8,12.7z"/>
	</g>
	<g>
		<g>
			<path class="st273" d="M2.3,2.2C2,2.2,1.8,2.4,1.8,2.6v3.8c0,0.2,0.1,0.3,0.3,0.1l1.7-1.7C4,4.7,4.3,4.4,4.5,4.2l1.7-1.7
				c0.2-0.2,0.1-0.3-0.1-0.3H2.3z"/>
		</g>
		<g>
			<path class="st273" d="M6.9,8.1c0-0.2-0.2-0.4-0.4-0.4H2.6C2.4,7.7,2.3,7.8,2.5,8l1.7,1.7c0.2,0.2,0.4,0.4,0.6,0.6L6.6,12
				c0.2,0.2,0.3,0.1,0.3-0.1V8.1z"/>
		</g>
		<g>
			<path class="st274" d="M2.3,13.1c-0.2,0-0.4,0.2-0.4,0.4v3.8c0,0.2,0.1,0.3,0.3,0.1l1.7-1.7c0.2-0.2,0.4-0.4,0.6-0.6l1.7-1.7
				c0.2-0.2,0.1-0.3-0.1-0.3H2.3z"/>
		</g>
		<g>
			<path class="st275" d="M6.6,23c0.2,0.2,0.3,0.1,0.3-0.1v-3.8c0-0.2-0.2-0.4-0.4-0.4H2.6c-0.2,0-0.3,0.1-0.1,0.3L6.6,23z"/>
		</g>
		<g>
			<path class="st276" d="M24,18.6c-0.1,0-0.2,0.1-0.2,0.2s0,0.4,0,0.6v3.5c0,0.2,0.1,0.3,0.3,0.1l4.1-4.1c0.2-0.2,0.1-0.3-0.1-0.3
				h-3.5C24.3,18.6,24.1,18.6,24,18.6z"/>
		</g>
		<g>
			<path class="st277" d="M4.8,15.5c-0.2,0.2-0.4,0.4-0.6,0.6l-1.7,1.7c-0.2,0.2-0.1,0.3,0.1,0.3h3.8c0.2,0,0.4-0.2,0.4-0.4v-3.8
				c0-0.2-0.1-0.3-0.3-0.1L4.8,15.5z"/>
		</g>
		<g>
			<path class="st277" d="M2.1,8.3C2,8.1,1.8,8.2,1.8,8.4v3.8c0,0.2,0.2,0.4,0.4,0.4h3.8c0.2,0,0.3-0.1,0.1-0.3l-1.7-1.7
				C4.3,10.5,4,10.2,3.9,10L2.1,8.3z"/>
		</g>
		<g>
			<path class="st278" d="M6.9,3c0-0.2-0.1-0.3-0.3-0.1L4.8,4.6C4.7,4.7,4.4,5,4.2,5.2L2.5,6.9C2.3,7.1,2.4,7.2,2.6,7.2h3.8
				c0.2,0,0.4-0.2,0.4-0.4V3z"/>
		</g>
		<g>
			<path class="st279" d="M12,6.6c0.2,0.2,0.3,0.1,0.3-0.1V2.6c0-0.2-0.2-0.4-0.4-0.4H8.1C7.9,2.2,7.8,2.3,8,2.5l1.7,1.7
				c0.2,0.2,0.4,0.4,0.6,0.6L12,6.6z"/>
		</g>
		<g>
			<path class="st280" d="M7.3,11.9c0,0.2,0.1,0.3,0.3,0.1l1.7-1.7c0.2-0.2,0.4-0.4,0.6-0.6L11.7,8c0.2-0.2,0.1-0.3-0.1-0.3H7.8
				c-0.2,0-0.4,0.2-0.4,0.4V11.9z"/>
		</g>
		<g>
			<path class="st281" d="M12,17.5c0.2,0.2,0.3,0.1,0.3-0.1v-3.8c0-0.2-0.2-0.4-0.4-0.4H8.1c-0.2,0-0.3,0.1-0.1,0.3l1.7,1.7
				c0.2,0.2,0.4,0.4,0.6,0.6L12,17.5z"/>
		</g>
		<g>
			<path class="st282" d="M7.6,13.8c-0.2-0.2-0.3-0.1-0.3,0.1v3.8c0,0.2,0.2,0.4,0.4,0.4h3.8c0.2,0,0.3-0.1,0.1-0.3L10,16.1
				c-0.2-0.2-0.4-0.4-0.6-0.6L7.6,13.8z"/>
		</g>
		<g>
			<path class="st283" d="M11.9,12.7c0.2,0,0.4-0.2,0.4-0.4V8.4c0-0.2-0.1-0.3-0.3-0.1L10.3,10c-0.2,0.2-0.4,0.4-0.6,0.6L8,12.4
				c-0.2,0.2-0.1,0.3,0.1,0.3H11.9z"/>
		</g>
		<g>
			<path class="st284" d="M7.3,22.9c0,0.2,0.1,0.3,0.3,0.1l1.7-1.7c0.2-0.2,0.4-0.4,0.6-0.6l1.7-1.7c0.2-0.2,0.1-0.3-0.1-0.3H7.8
				c-0.2,0-0.4,0.2-0.4,0.4V22.9z"/>
		</g>
		<g>
			<path class="st285" d="M8,23.3c-0.2,0.2-0.1,0.3,0.1,0.3h3.8c0.2,0,0.4-0.2,0.4-0.4v-3.8c0-0.2-0.1-0.3-0.3-0.1L10.3,21
				c-0.2,0.2-0.4,0.4-0.6,0.6L8,23.3z"/>
		</g>
		<g>
			<path class="st285" d="M8,23.3l1.7-1.7c0.2-0.2,0.2-0.2,0,0L8,23.3"/>
		</g>
		<g>
			<path class="st284" d="M17.5,23c0.2,0.2,0.3,0.1,0.3-0.1v-3.8c0-0.2-0.2-0.4-0.4-0.4h-3.8c-0.2,0-0.3,0.1-0.1,0.3l1.7,1.7
				c0.2,0.2,0.4,0.4,0.6,0.6L17.5,23z"/>
		</g>
		<g>
			<path class="st286" d="M12.8,23.2c0,0.2,0.2,0.4,0.4,0.4h3.8c0.2,0,0.3-0.1,0.1-0.3l-1.7-1.7c-0.2-0.2-0.4-0.4-0.6-0.6l-1.7-1.7
				c-0.2-0.2-0.3-0.1-0.3,0.1V23.2z"/>
		</g>
		<g>
			<path class="st287" d="M20.3,21.3c0.2-0.2,0.4-0.4,0.6-0.6l1.7-1.7c0.2-0.2,0.1-0.3-0.1-0.3h-3.8c-0.2,0-0.4,0.2-0.4,0.4v3.8
				c0,0.2,0.1,0.3,0.3,0.1L20.3,21.3z"/>
		</g>
		<g>
			<path class="st288" d="M18.9,23.3c-0.2,0.2-0.1,0.3,0.1,0.3h3.8c0.2,0,0.4-0.2,0.4-0.4v-3.8c0-0.2-0.1-0.3-0.3-0.1L21.3,21
				c-0.2,0.2-0.4,0.4-0.6,0.6L18.9,23.3z"/>
		</g>
		<g>
			<path class="st289" d="M7.3,6.8c0,0.2,0.2,0.4,0.4,0.4h3.8c0.2,0,0.3-0.1,0.1-0.3L10,5.2C9.8,5,9.5,4.7,9.4,4.6L7.6,2.8
				C7.5,2.7,7.3,2.7,7.3,3V6.8z"/>
		</g>
		<g>
			<path class="st290" d="M23.3,2.6c0-0.2-0.2-0.4-0.4-0.4h-3.8c-0.2,0-0.3,0.1-0.1,0.3l1.7,1.7c0.2,0.2,0.4,0.4,0.6,0.6L23,6.6
				c0.2,0.2,0.3,0.1,0.3-0.1V2.6z"/>
		</g>
		<g>
			<path class="st291" d="M18.7,7.7c-0.2,0-0.4,0.2-0.4,0.4v3.8c0,0.2,0.1,0.3,0.3,0.1l1.7-1.7c0.2-0.2,0.4-0.4,0.6-0.6L22.7,8
				c0.2-0.2,0.1-0.3-0.1-0.3H18.7z"/>
		</g>
		<g>
			<path class="st292" d="M23.3,13.6c0-0.2-0.2-0.4-0.4-0.4h-3.8c-0.2,0-0.3,0.1-0.1,0.3l1.7,1.7c0.2,0.2,0.4,0.4,0.6,0.6l1.7,1.7
				c0.2,0.2,0.3,0.1,0.3-0.1V13.6z"/>
		</g>
		<g>
			<path class="st293" d="M21,16.1c-0.2-0.2-0.4-0.4-0.6-0.6l-1.7-1.7c-0.2-0.2-0.3-0.1-0.3,0.1v3.8c0,0.2,0.2,0.4,0.4,0.4h3.8
				c0.2,0,0.3-0.1,0.1-0.3L21,16.1z"/>
		</g>
		<g>
			<path class="st294" d="M23.3,8.4c0-0.2-0.1-0.3-0.3-0.1L21.3,10c-0.2,0.2-0.4,0.4-0.6,0.6l-1.7,1.7c-0.2,0.2-0.1,0.3,0.1,0.3h3.8
				c0.2,0,0.4-0.2,0.4-0.4V8.4z"/>
		</g>
		<g>
			<path class="st295" d="M18.6,2.8c-0.2-0.2-0.3-0.1-0.3,0.1v3.8c0,0.2,0.2,0.4,0.4,0.4h3.8c0.2,0,0.3-0.1,0.1-0.3L21,5.2
				c-0.2-0.2-0.4-0.4-0.6-0.6L18.6,2.8z"/>
		</g>
		<g>
			<path class="st296" d="M23.8,6.4c0,0.2,0.1,0.3,0.3,0.1l1.7-1.7c0.2-0.2,0.4-0.4,0.6-0.6l1.7-1.7c0.2-0.2,0.1-0.3-0.1-0.3h-3.8
				c-0.2,0-0.4,0.2-0.4,0.4V6.4z"/>
		</g>
		<g>
			<path class="st279" d="M26.2,9.7c0.2,0.2,0.4,0.4,0.6,0.6l1.7,1.7c0.2,0.2,0.3,0.1,0.3-0.1V8.1c0-0.2-0.2-0.4-0.4-0.4h-3.8
				c-0.2,0-0.3,0.1-0.1,0.3L26.2,9.7z"/>
		</g>
		<g>
			<path class="st297" d="M25.8,15.8c0.2-0.2,0.4-0.4,0.6-0.6l1.7-1.7c0.2-0.2,0.1-0.3-0.1-0.3h-3.8c-0.2,0-0.4,0.2-0.4,0.4v3.8
				c0,0.2,0.1,0.3,0.3,0.1L25.8,15.8z"/>
		</g>
		<g>
			<path class="st298" d="M28.4,18.2c0.2,0,0.4-0.2,0.4-0.4v-3.8c0-0.2-0.1-0.3-0.3-0.1l-1.7,1.7c-0.2,0.2-0.4,0.4-0.6,0.6l-1.7,1.7
				c-0.2,0.2-0.1,0.3,0.1,0.3H28.4z"/>
		</g>
		<g>
			<path class="st299" d="M23.8,12.2c0,0.2,0.2,0.4,0.4,0.4h3.8c0.2,0,0.3-0.1,0.1-0.3l-1.7-1.7c-0.2-0.2-0.4-0.4-0.6-0.6l-1.7-1.7
				c-0.2-0.2-0.3-0.1-0.3,0.1V12.2z"/>
		</g>
		<g>
			<path class="st300" d="M28.4,7.2c0.2,0,0.4-0.2,0.4-0.4V3c0-0.2-0.1-0.3-0.3-0.1l-1.7,1.7c-0.2,0.2-0.4,0.4-0.6,0.6l-1.7,1.7
				c-0.2,0.2-0.1,0.3,0.1,0.3H28.4z"/>
		</g>
	</g>
</g>
</svg>
