<?xml version="1.0" encoding="utf-8"?>
<!-- Generator: Adobe Illustrator 19.1.0, SVG Export Plug-In . SVG Version: 6.00 Build 0)  -->
<svg version="1.1" id="圖層_1" xmlns="http://www.w3.org/2000/svg" xmlns:xlink="http://www.w3.org/1999/xlink" x="0px" y="0px"
	 viewBox="0 0 324.5 63" style="enable-background:new 0 0 324.5 63;" xml:space="preserve">
<style type="text/css">
	.st0{fill:#ABC71D;}
	.st1{fill:#128B3C;}
	.st2{fill:#0C723B;}
	.st3{fill:#931D57;}
	.st4{fill:#51A737;}
	.st5{fill:#8DBC3A;}
	.st6{fill:#EFB91B;}
	.st7{fill:#DE601E;}
	.st8{fill:#E58213;}
	.st9{fill:#DD5819;}
	.st10{fill:#E16A27;}
	.st11{fill:#DE8111;}
	.st12{fill:#EEB91B;}
	.st13{fill:#DD521F;}
	.st14{fill:#791D49;}
	.st15{fill:#D31478;}
	.st16{fill:#ECA517;}
	.st17{fill:#74151A;}
	.st18{fill:#75161B;}
	.st19{fill:#D1181D;}
	.st20{fill:#BC2121;}
	.st21{fill:#AF1E24;}
	.st22{fill:#610F16;}
	.st23{fill:#E16E2A;}
	.st24{fill:#EDBA19;}
	.st25{fill:#6B183D;}
	.st26{fill:#EBA218;}
	.st27{fill:#EBA517;}
	.st28{fill:#231815;}
	.st29{fill:none;}
	.st30{fill:#898989;}
	.st31{font-family:'ARHeiB5-Light-B5pc-H';}
	.st32{font-size:12.1815px;}
	.st33{fill:#BFBFBF;}
</style>
<g>
	<g>
		<g>
			<path class="st0" d="M4.9,5.3c-0.6,0-1.1,0.5-1.1,1.1v9.3c0,0.6,0.3,0.7,0.8,0.3l4.2-4.2c0.4-0.4,1.1-1.1,1.5-1.5l4.2-4.2
				c0.4-0.4,0.3-0.8-0.3-0.8H4.9z"/>
		</g>
		<g>
			<path class="st0" d="M16.1,19.7c0-0.6-0.5-1.1-1.1-1.1H5.7c-0.6,0-0.7,0.3-0.3,0.8l4.2,4.2c0.4,0.4,1.1,1.1,1.5,1.5l4.2,4.2
				c0.4,0.4,0.8,0.3,0.8-0.3V19.7z"/>
		</g>
		<g>
			<path class="st1" d="M4.9,32c-0.6,0-1.1,0.5-1.1,1.1v9.3c0,0.6,0.3,0.7,0.8,0.3l4.2-4.2c0.4-0.4,1.1-1.1,1.5-1.5l4.2-4.2
				c0.4-0.4,0.3-0.8-0.3-0.8H4.9z"/>
		</g>
		<g>
			<path class="st2" d="M15.3,55.9c0.4,0.4,0.8,0.3,0.8-0.3v-9.3c0-0.6-0.5-1.1-1.1-1.1H5.7c-0.6,0-0.7,0.3-0.3,0.8L15.3,55.9z"/>
		</g>
		<g>
			<path class="st3" d="M57.6,45.3c-0.2,0-0.4,0.2-0.4,0.4c0,0.2,0,0.9,0,1.5v8.5c0,0.6,0.3,0.7,0.8,0.3l9.9-9.9
				c0.4-0.4,0.3-0.8-0.3-0.8h-8.5C58.5,45.3,57.9,45.3,57.6,45.3z"/>
		</g>
		<g>
			<path class="st4" d="M11.1,37.7c-0.4,0.4-1.1,1.1-1.5,1.5l-4.2,4.2c-0.4,0.4-0.3,0.8,0.3,0.8H15c0.6,0,1.1-0.5,1.1-1.1v-9.3
				c0-0.6-0.3-0.7-0.8-0.3L11.1,37.7z"/>
		</g>
		<g>
			<path class="st4" d="M4.6,20.2c-0.4-0.4-0.8-0.3-0.8,0.3v9.3c0,0.6,0.5,1.1,1.1,1.1h9.3c0.6,0,0.7-0.3,0.3-0.8l-4.2-4.2
				c-0.4-0.4-1.1-1.1-1.5-1.5L4.6,20.2z"/>
		</g>
		<g>
			<path class="st5" d="M16.1,7.2c0-0.6-0.3-0.7-0.8-0.3l-4.2,4.2c-0.4,0.4-1.1,1.1-1.5,1.5l-4.2,4.2c-0.4,0.4-0.3,0.8,0.3,0.8H15
				c0.6,0,1.1-0.5,1.1-1.1V7.2z"/>
		</g>
		<g>
			<path class="st6" d="M28.7,16c0.4,0.4,0.8,0.3,0.8-0.3V6.4c0-0.6-0.5-1.1-1.1-1.1h-9.3c-0.6,0-0.7,0.3-0.3,0.8l4.2,4.2
				c0.4,0.4,1.1,1.1,1.5,1.5L28.7,16z"/>
		</g>
		<g>
			<path class="st7" d="M17.2,29c0,0.6,0.3,0.7,0.8,0.3l4.2-4.2c0.4-0.4,1.1-1.1,1.5-1.5l4.2-4.2c0.4-0.4,0.3-0.8-0.3-0.8h-9.3
				c-0.6,0-1.1,0.5-1.1,1.1V29z"/>
		</g>
		<g>
			<path class="st8" d="M28.7,42.6c0.4,0.4,0.8,0.3,0.8-0.3V33c0-0.6-0.5-1.1-1.1-1.1h-9.3c-0.6,0-0.7,0.3-0.3,0.8l4.2,4.2
				c0.4,0.4,1.1,1.1,1.5,1.5L28.7,42.6z"/>
		</g>
		<g>
			<path class="st9" d="M17.9,33.5c-0.4-0.4-0.8-0.3-0.8,0.3v9.3c0,0.6,0.5,1.1,1.1,1.1h9.3c0.6,0,0.7-0.3,0.3-0.8l-4.2-4.2
				c-0.4-0.4-1.1-1.1-1.5-1.5L17.9,33.5z"/>
		</g>
		<g>
			<path class="st10" d="M28.3,30.8c0.6,0,1.1-0.5,1.1-1.1v-9.3c0-0.6-0.3-0.7-0.8-0.3l-4.2,4.2c-0.4,0.4-1.1,1.1-1.5,1.5l-4.2,4.2
				c-0.4,0.4-0.3,0.8,0.3,0.8H28.3z"/>
		</g>
		<g>
			<path class="st11" d="M17.2,55.6c0,0.6,0.3,0.7,0.8,0.3l4.2-4.2c0.4-0.4,1.1-1.1,1.5-1.5l4.2-4.2c0.4-0.4,0.3-0.8-0.3-0.8h-9.3
				c-0.6,0-1.1,0.5-1.1,1.1V55.6z"/>
		</g>
		<g>
			<path class="st12" d="M18.7,56.7c-0.4,0.4-0.3,0.8,0.3,0.8h9.3c0.6,0,1.1-0.5,1.1-1.1v-9.3c0-0.6-0.3-0.7-0.8-0.3L24.5,51
				c-0.4,0.4-1.1,1.1-1.5,1.5L18.7,56.7z"/>
		</g>
		<g>
			<path class="st12" d="M18.7,56.7l4.2-4.2c0.4-0.4,0.4-0.4,0,0L18.7,56.7"/>
		</g>
		<g>
			<path class="st11" d="M42,55.9c0.4,0.4,0.8,0.3,0.8-0.3v-9.3c0-0.6-0.5-1.1-1.1-1.1h-9.3c-0.6,0-0.7,0.3-0.3,0.8l4.2,4.2
				c0.4,0.4,1.1,1.1,1.5,1.5L42,55.9z"/>
		</g>
		<g>
			<path class="st13" d="M30.5,56.4c0,0.6,0.5,1.1,1.1,1.1h9.3c0.6,0,0.7-0.3,0.3-0.8L37,52.5c-0.4-0.4-1.1-1.1-1.5-1.5l-4.2-4.2
				c-0.4-0.4-0.8-0.3-0.8,0.3V56.4z"/>
		</g>
		<g>
			<path class="st14" d="M48.8,51.7c0.4-0.4,1.1-1.1,1.5-1.5l4.2-4.2c0.4-0.4,0.3-0.8-0.3-0.8H45c-0.6,0-1.1,0.5-1.1,1.1v9.3
				c0,0.6,0.3,0.7,0.8,0.3L48.8,51.7z"/>
		</g>
		<g>
			<path class="st15" d="M45.4,56.7c-0.4,0.4-0.3,0.8,0.3,0.8H55c0.6,0,1.1-0.5,1.1-1.1v-9.3c0-0.6-0.3-0.7-0.8-0.3L51.2,51
				c-0.4,0.4-1.1,1.1-1.5,1.5L45.4,56.7z"/>
		</g>
		<g>
			<path class="st16" d="M17.2,16.5c0,0.6,0.5,1.1,1.1,1.1h9.3c0.6,0,0.7-0.3,0.3-0.8l-4.2-4.2c-0.4-0.4-1.1-1.1-1.5-1.5l-4.2-4.2
				c-0.4-0.4-0.8-0.3-0.8,0.3V16.5z"/>
		</g>
		<g>
			<path class="st17" d="M56.1,6.4c0-0.6-0.5-1.1-1.1-1.1h-9.3c-0.6,0-0.7,0.3-0.3,0.8l4.2,4.2c0.4,0.4,1.1,1.1,1.5,1.5l4.2,4.2
				c0.4,0.4,0.8,0.3,0.8-0.3V6.4z"/>
		</g>
		<g>
			<path class="st18" d="M45,18.7c-0.6,0-1.1,0.5-1.1,1.1V29c0,0.6,0.3,0.7,0.8,0.3l4.2-4.2c0.4-0.4,1.1-1.1,1.5-1.5l4.2-4.2
				c0.4-0.4,0.3-0.8-0.3-0.8H45z"/>
		</g>
		<g>
			<path class="st19" d="M56.1,33c0-0.6-0.5-1.1-1.1-1.1h-9.3c-0.6,0-0.7,0.3-0.3,0.8l4.2,4.2c0.4,0.4,1.1,1.1,1.5,1.5l4.2,4.2
				c0.4,0.4,0.8,0.3,0.8-0.3V33z"/>
		</g>
		<g>
			<path class="st20" d="M50.4,39.2c-0.4-0.4-1.1-1.1-1.5-1.5l-4.2-4.2c-0.4-0.4-0.8-0.3-0.8,0.3v9.3c0,0.6,0.5,1.1,1.1,1.1h9.3
				c0.6,0,0.7-0.3,0.3-0.8L50.4,39.2z"/>
		</g>
		<g>
			<path class="st21" d="M56.1,20.5c0-0.6-0.3-0.7-0.8-0.3l-4.2,4.2c-0.4,0.4-1.1,1.1-1.5,1.5l-4.2,4.2c-0.4,0.4-0.3,0.8,0.3,0.8H55
				c0.6,0,1.1-0.5,1.1-1.1V20.5z"/>
		</g>
		<g>
			<path class="st22" d="M44.6,6.9c-0.4-0.4-0.8-0.3-0.8,0.3v9.3c0,0.6,0.5,1.1,1.1,1.1h9.3c0.6,0,0.7-0.3,0.3-0.8l-4.2-4.2
				c-0.4-0.4-1.1-1.1-1.5-1.5L44.6,6.9z"/>
		</g>
		<g>
			<path class="st23" d="M57.2,15.7c0,0.6,0.3,0.7,0.8,0.3l4.2-4.2c0.4-0.4,1.1-1.1,1.5-1.5l4.2-4.2c0.4-0.4,0.3-0.8-0.3-0.8h-9.3
				c-0.6,0-1.1,0.5-1.1,1.1V15.7z"/>
		</g>
		<g>
			<path class="st6" d="M63,23.6c0.4,0.4,1.1,1.1,1.5,1.5l4.2,4.2c0.4,0.4,0.8,0.3,0.8-0.3v-9.3c0-0.6-0.5-1.1-1.1-1.1h-9.3
				c-0.6,0-0.7,0.3-0.3,0.8L63,23.6z"/>
		</g>
		<g>
			<path class="st24" d="M62.2,38.4c0.4-0.4,1.1-1.1,1.5-1.5l4.2-4.2c0.4-0.4,0.3-0.8-0.3-0.8h-9.3c-0.6,0-1.1,0.5-1.1,1.1v9.3
				c0,0.6,0.3,0.7,0.8,0.3L62.2,38.4z"/>
		</g>
		<g>
			<path class="st25" d="M68.4,44.1c0.6,0,1.1-0.5,1.1-1.1v-9.3c0-0.6-0.3-0.7-0.8-0.3l-4.2,4.2c-0.4,0.4-1.1,1.1-1.5,1.5l-4.2,4.2
				c-0.4,0.4-0.3,0.8,0.3,0.8H68.4z"/>
		</g>
		<g>
			<path class="st26" d="M57.2,29.8c0,0.6,0.5,1.1,1.1,1.1h9.3c0.6,0,0.7-0.3,0.3-0.8l-4.2-4.2c-0.4-0.4-1.1-1.1-1.5-1.5L58,20.2
				c-0.4-0.4-0.8-0.3-0.8,0.3V29.8z"/>
		</g>
		<g>
			<path class="st27" d="M68.4,17.5c0.6,0,1.1-0.5,1.1-1.1V7.2c0-0.6-0.3-0.7-0.8-0.3l-4.2,4.2c-0.4,0.4-1.1,1.1-1.5,1.5l-4.2,4.2
				c-0.4,0.4-0.3,0.8,0.3,0.8H68.4z"/>
		</g>
	</g>
	<g>
		<g>
			<g>
				<path class="st28" d="M95.6,19.9L95.6,19.9c0,0.5-0.4,0.9-0.9,0.9H78.2c-0.5,0-0.9-0.4-0.9-0.9v0c0-0.5,0.4-0.9,0.9-0.9h16.5
					C95.2,19,95.6,19.4,95.6,19.9z M85.7,36.7c-0.5,0-0.9,0.4-0.9,0.9l0,1.8c-0.2,1.9-1.5,3.6-3.7,4.9c-0.4,0.2-0.8,0.1-1.1-0.2l0,0
					c-0.4-0.4-0.2-1.1,0.3-1.4c0.4-0.2,0.8-0.5,1-0.7c1.1-0.8,1.6-2.2,1.7-4.4c0-0.5-0.4-0.9-0.9-0.9h-2.8l-0.1,0.1v18.9
					c0,0.5-0.4,0.9-0.9,0.9h0c-0.5,0-0.9-0.4-0.9-0.9V35.3c0-0.3,0.1-0.4,0.4-0.4h17.8c0.3,0,0.4,0.1,0.4,0.4v19.3
					c0,0.7-0.3,1.3-0.8,1.7c-1,0.6-2.5,0.7-4.7,0.3c-0.4-0.1-0.7-0.4-0.7-0.9v-0.2c0-0.6,0.5-1,1.1-0.9c1.5,0.3,2.5,0.3,2.9,0
					c0.3-0.2,0.5-0.5,0.5-0.8v-8.7c0-0.5-0.4-0.9-0.9-0.9h-4.5c-0.5,0-0.8-0.3-0.8-0.9v-5.8c0-0.5-0.4-0.9-0.9-0.9H85.7z M93.1,31.5
					H78.8c-0.2,0-0.3-0.1-0.3-0.3v-5.8c0-0.6,0.5-1.1,1.1-1.1H94c0.2,0,0.3,0.1,0.3,0.3v5.8C94.3,30.9,93.8,31.5,93.1,31.5z
					 M80.4,26.1L80.4,26.1l-0.1,3.5l0.1,0.1h12l0.1-0.1v-3.4l-0.1-0.1H80.4z M80.7,47.3L80.7,47.3c0-0.5,0.4-0.9,0.9-0.9h9.9
					c0.5,0,0.9,0.4,0.9,0.9v0c0,0.5-0.4,0.9-0.9,0.9h-3.2c-0.5,0-0.9,0.4-0.9,0.9v5.1c0,0.5-0.4,0.9-0.9,0.9h0
					c-0.5,0-0.9-0.4-0.9-0.9v-5.1c0-0.5-0.4-0.9-0.9-0.9h-3.1C81.1,48.2,80.7,47.8,80.7,47.3z M93.3,42.5c0.5,0,0.9-0.4,0.9-0.9
					v-4.8L94,36.7h-3.3c-0.5,0-0.9,0.4-0.9,0.9v3.7c0,0.7,0.6,1.2,1.2,1.2H93.3z M98.3,55.1l-0.1-0.2c-0.1-0.5,0.2-1,0.7-1.1
					l5.2-0.8c0.4-0.1,0.7-0.4,0.7-0.9v-8.3c0-0.5-0.4-0.9-0.9-0.9h-4.9c-0.2,0-0.3-0.1-0.3-0.3V24.1c0-0.6,0.5-1.1,1.1-1.1h4.1
					c0.5,0,0.9-0.4,0.9-0.9v-3.1c0-0.5,0.4-0.9,0.9-0.9h0.2c0.5,0,0.9,0.4,0.9,0.9v3.1c0,0.5,0.4,0.9,0.9,0.9h5.2
					c0.2,0,0.3,0,0.3,0.2v18.5c0,0.7-0.5,1.2-1.2,1.2h-4.4c-0.5,0-0.9,0.4-0.9,0.9v7.7c0,0.5,0.5,1,1,0.9l3.1-0.5
					c0.5-0.1,0.8-0.6,0.7-1.1c-0.2-0.9-0.5-1.7-0.7-2.4c-0.2-0.5,0.1-1,0.6-1.1l0.2-0.1c0.4-0.1,0.9,0.1,1.1,0.5
					c0.9,2.2,1.6,4.8,2.2,7.9c0.1,0.5-0.2,0.9-0.6,1l-0.3,0.1c-0.5,0.1-1-0.2-1.1-0.7l-0.3-1.6c-0.1-0.5-0.5-0.8-1-0.7l-12.4,2.1
					C98.9,55.8,98.4,55.5,98.3,55.1z M104.9,25.8c0-0.5-0.4-0.9-0.9-0.9h-3.1l-0.1,0.1v15.7l0.1,0.1h3.1c0.5,0,0.9-0.4,0.9-0.9V25.8
					z M106.9,40c0,0.5,0.4,0.9,0.9,0.9h3.4l0.1-0.1V25l-0.1-0.1h-3.4c-0.5,0-0.9,0.4-0.9,0.9V40z"/>
				<path class="st28" d="M119.2,41.2c-0.4-0.3-0.5-0.9-0.3-1.4c1.1-2.9,2.2-6.9,3.2-11.8c0.1-0.6-0.3-1.2-1-1.2l-2.1,0
					c-0.5,0-1-0.4-1-1v0c0-0.5,0.4-1,1-1h2.8c0.5,0,0.9-0.4,1-0.8l0.7-4.9c0.1-0.5,0.6-0.9,1.1-0.8l0,0c0.5,0.1,0.9,0.6,0.8,1.1
					l-0.6,4.4c-0.1,0.6,0.4,1.1,1,1.1h5.1c0.3,0,0.4,0.2,0.3,0.6v0.1c-0.2,7.6-1.5,14.1-3.7,19.6c-0.2,0.4-0.1,0.8,0.3,1.1l2.5,2.2
					c0.4,0.3,0.4,0.9,0.2,1.3l0,0c-0.3,0.5-1,0.6-1.4,0.2l-1.7-1.5c-0.4-0.4-1.1-0.3-1.5,0.2c-1.5,2.4-3.4,4.7-5.7,6.9
					c-0.3,0.3-0.8,0.4-1.2,0.1l0,0c-0.5-0.4-0.6-1.1-0.1-1.5c1.8-1.7,3.3-3.2,4.3-4.7c0,0,0,0,0,0c0.1-0.2,0.9-1.5,1.4-2.3
					c0.2-0.4,0.2-0.9-0.2-1.2L119.2,41.2z M128.4,26.8l-3.2,0c-0.5,0-0.9,0.3-1,0.8c-0.7,3.6-1.8,7.7-3.2,12.3
					c-0.1,0.2,0,0.4,0.3,0.6l4.5,4l0.3-0.7c0.8-1.8,1.5-4.3,2.2-7.3c0.5-2.5,0.8-5.4,1-8.6C129.4,27.3,129,26.8,128.4,26.8z
					 M131.6,41.2L131.6,41.2c0-0.6,0.4-1,1-1h9.8c0.5,0,1-0.4,1-1v-2.2c0-0.5-0.4-1-1-1h-6c-0.6,0-1-0.3-1-1v-11c0-0.5-0.4-1-1-1
					h-2.4c-0.5,0-1-0.4-1-1v0c0-0.5,0.4-1,1-1h2.4c0.5,0,1-0.4,1-1v-1.8c0-0.5,0.4-1,1-1h0c0.5,0,1,0.4,1,1v1.8c0,0.5,0.4,1,1,1H150
					c0.5,0,1-0.4,1-1v-1.8c0-0.5,0.4-1,1-1h0c0.5,0,1,0.4,1,1v1.8c0,0.5,0.4,1,1,1h2.6c0.5,0,1,0.4,1,1v0c0,0.5-0.4,1-1,1h-2.6
					c-0.5,0-1,0.4-1,1v10.1c0,1.1-0.9,2-2,2h-4.7c-0.5,0-1,0.4-1,1v2.2c0,0.5,0.4,1,1,1h10.1c0.5,0,1,0.4,1,1v0c0,0.5-0.4,1-1,1
					h-9.1c-0.5,0-0.8,0.5-0.5,0.9c2.6,3.6,6.1,6.8,10.4,9.6c0.5,0.4,0.6,1.1,0.1,1.5l0,0c-0.3,0.3-0.8,0.3-1.2,0.1
					c-3.7-2.5-7-5.5-9.8-8.9c-0.3-0.3-0.8-0.1-0.8,0.3v10.5c0,0.5-0.4,1-1,1l0,0c-0.5,0-1-0.4-1-1V45.7c0-0.4-0.5-0.6-0.8-0.3
					c-3.6,4.2-7.5,7.4-11.4,9.4c-0.4,0.2-0.9,0.1-1.2-0.2l-0.1-0.1c-0.4-0.5-0.3-1.2,0.3-1.5c4.5-2.6,8.5-5.9,11.7-9.9
					c0.3-0.4,0-1-0.5-1l-8.8,0C132.1,42.2,131.6,41.8,131.6,41.2z M150,23.1h-11.6c-0.5,0-1,0.4-1,1v2.7c0,0.5,0.4,1,1,1H150
					c0.5,0,1-0.4,1-1v-2.7C150.9,23.5,150.5,23.1,150,23.1z M137.4,32.8c0,0.7,0.6,1.3,1.3,1.3h10.9c0.7,0,1.3-0.6,1.3-1.3v-2.1
					c0-0.5-0.4-1-1-1h-11.6c-0.5,0-1,0.4-1,1V32.8z"/>
				<path class="st28" d="M162.3,20.5c0-0.9,0.8-1.7,1.7-1.7h8.6c1,0,1.7,0.8,1.7,1.7v8.4c0,0.5,0.4,1,1,1h0.6
					c0.3,0,0.4,0.2,0.4,0.6c-0.1,1.4-0.2,2.9-0.5,4.4c-0.1,0.5-0.6,0.9-1.2,0.8l-0.1,0c-0.5-0.1-0.8-0.6-0.8-1l0.2-2.5
					c0-0.2,0-0.3-0.3-0.3h-9.9c-0.6,0-1.2,0.5-1.2,1.2v1.8c0,0.5-0.4,1-1,1h0c-0.5,0-1-0.4-1-1v-4.6c0-0.2,0.1-0.3,0.4-0.3h0.3
					c0.5,0,1-0.4,1-1V20.5z M164.4,56.5L164.4,56.5c-0.6,0-1-0.4-1-1V36.7c0-0.8,0.6-1.4,1.4-1.4h8.3c0.3,0,0.5,0.2,0.5,0.4v18.6
					c0,0.8-0.3,1.4-1,1.9c-0.6,0.4-1.7,0.5-3.3,0.1c-0.5-0.1-0.8-0.5-0.8-1v0c0-0.7,0.6-1.1,1.3-1c0.6,0.2,1,0.2,1.2,0
					c0.4-0.2,0.6-0.6,0.6-0.9v-3.3c0-0.5-0.4-1-1-1h-4.3c-0.5,0-1,0.4-1,1v5.2C165.4,56.1,164.9,56.5,164.4,56.5z M166.1,29.9
					c0.5,0,1-0.4,1-1v-5c0-0.3,0.1-0.4,0.4-0.4h3.8c0.5,0,1-0.4,1-1v-0.4c0-0.7-0.6-1.3-1.3-1.3h-5.4c-0.7,0-1.3,0.6-1.3,1.3v6.9
					c0,0.5,0.4,1,1,1H166.1z M170.6,41.4c0.5,0,1-0.4,1-1v-2.9l-0.2-0.1h-6l-0.1,0.1v2.9c0,0.5,0.4,1,1,1H170.6z M171.6,46.3v-2
					c0-0.5-0.4-1-1-1h-4.3c-0.5,0-1,0.4-1,1v2c0,0.5,0.4,1,1,1h4.3C171.2,47.3,171.6,46.9,171.6,46.3z M172.3,28.9v-2.5
					c0-0.5-0.4-1-1-1h-1c-0.7,0-1.2,0.6-1.2,1.2v2.2c0,0.5,0.4,1,1,1h1.3C171.9,29.9,172.3,29.5,172.3,28.9z M182.1,49.7
					c-0.2-0.3-0.5-0.5-0.9-0.5l-2,0c-0.2,0-0.3-0.1-0.3-0.3v-6c0-0.7,0.6-1.2,1.2-1.2h16.5c0.2,0,0.3,0.1,0.3,0.3v6
					c0,0.7-0.6,1.3-1.3,1.3H195c-0.4,0-0.8,0.3-0.9,0.7l-0.7,2l-0.4,1c-0.2,0.6,0.2,1.3,0.9,1.3h4.1c0.5,0,1,0.4,1,1v0
					c0,0.5-0.4,1-1,1h-20.2c-0.5,0-1-0.4-1-1v0c0-0.5,0.4-1,1-1l4.6,0c0.7,0,1.2-0.7,0.9-1.3C182.9,51.4,182.4,50.4,182.1,49.7z
					 M199.1,37.7L199.1,37.7c0,0.6-0.4,1-1,1h-20.2c-0.5,0-1-0.4-1-1v0c0-0.5,0.4-1,1-1h20.2C198.7,36.7,199.1,37.1,199.1,37.7z
					 M196.8,20.5c0.7,0,1.2,0.6,1.2,1.2v11.8c0,0.2-0.1,0.3-0.3,0.3h-19.5c-0.2,0-0.2-0.1-0.2-0.3V21.7c0-0.7,0.6-1.2,1.2-1.2h3.6
					c0.5,0,1-0.4,1-1v-0.7c0-0.5,0.4-1,1-1h0c0.5,0,1,0.4,1,1v0.7c0,0.5,0.4,1,1,1h1.8c0.5,0,1-0.4,1-1v-0.7c0-0.5,0.4-1,1-1h0
					c0.5,0,1,0.4,1,1v0.7c0,0.5,0.4,1,1,1H196.8z M183.9,23c0-0.3-0.2-0.5-0.5-0.5h-3.3l-0.1,0.1v3c0,0.3,0.2,0.5,0.5,0.5h2.9
					c0.3,0,0.5-0.2,0.5-0.5V23z M183.4,28h-2.9c-0.3,0-0.5,0.2-0.5,0.5v3.1l0.1,0.1h3.3c0.3,0,0.5-0.2,0.5-0.5v-2.7
					C183.9,28.3,183.7,28,183.4,28z M181,43.5L181,43.5l-0.1,3.5l0.1,0.1h13.8l0.1-0.1v-3.4l-0.1-0.1H181z M190.6,53.4l1.1-2.9
					c0.2-0.6-0.2-1.3-0.9-1.3h-5.4c-0.7,0-1.2,0.7-0.9,1.4l1.2,2.9c0.2,0.4,0.5,0.6,0.9,0.6h3.1C190.1,54,190.4,53.8,190.6,53.4z
					 M189.2,22.4h-2.7c-0.3,0-0.5,0.2-0.5,0.5v2.5c0,0.3,0.2,0.5,0.5,0.5h2.7c0.3,0,0.5-0.2,0.5-0.5V23
					C189.7,22.7,189.5,22.4,189.2,22.4z M189.2,28h-2.7c-0.3,0-0.5,0.2-0.5,0.5v2.7c0,0.3,0.2,0.5,0.5,0.5h2.7
					c0.3,0,0.5-0.2,0.5-0.5v-2.7C189.7,28.3,189.5,28,189.2,28z M192.2,26h3.4c0.3,0,0.5-0.2,0.5-0.5v-3l-0.1-0.1h-3.8
					c-0.3,0-0.5,0.2-0.5,0.5v2.5C191.7,25.8,191.9,26,192.2,26z M191.7,31.2c0,0.3,0.2,0.5,0.5,0.5h3.8l0.1-0.1v-3.1
					c0-0.3-0.2-0.5-0.5-0.5h-3.4c-0.3,0-0.5,0.2-0.5,0.5V31.2z"/>
			</g>
			<g>
				<path class="st28" d="M205.7,46.3l-1.2-0.3c-0.5-0.1-0.7-0.6-0.7-1l0.9-7.3c0.1-0.4,0.3-0.7,0.7-0.6h8.1c0.7,0,1.3-0.6,1.3-1.3
					v-3.2c0-0.2,0-0.3-0.3-0.3h-9.9v-0.7l-2.6,0.5c-0.4,0.1-0.8-0.1-1-0.5l0,0c-0.3-0.6,0-1.3,0.6-1.4c2-0.4,3.8-0.9,5.4-1.5
					l1.3-0.5c-1.5-1.3-2.9-2.5-4.2-3.4c-0.4-0.3-0.5-1-0.2-1.4v0c0.3-0.4,0.9-0.4,1.3-0.1c2.4,1.8,4.1,3.2,4.9,4l0.1-0.1
					c2-1.3,3.6-2.8,4.7-4.2c0.5-0.6,0-1.5-0.8-1.5h-6c-0.5,0-0.9-0.4-0.9-0.9v-0.1c0-0.5,0.4-0.9,0.9-0.9h9c0.2,0,0.5,0.1,0.6,0.3
					l0.4,0.4c0.3,0.3,0.4,0.7,0.2,1.1c-1.5,3.2-3.9,5.8-7.4,7.9c-0.7,0.4-0.4,1.4,0.4,1.4l3.9,0c0.8,0,1.4,0.6,1.4,1.4v6.8
					c0,0.3-0.2,0.5-0.5,0.5H207c-0.3,0-0.4,0.2-0.4,0.4l-0.4,2.9c-0.1,0.6,0.4,1.1,0.9,1.1h8.8c0.4,0,0.6,0.2,0.6,0.5
					c-0.1,6.3-0.9,10-2.1,11.1c-1.2,1.2-4.1,1.4-8.5,0.6c-0.4-0.1-0.7-0.4-0.8-0.9l0-0.1c-0.1-0.6,0.5-1.1,1.1-1
					c1.9,0.3,3.7,0.5,5.4,0.4c1-0.1,1.6-0.4,1.9-1c0.6-1.2,1-3.7,1.2-7.4c0-0.1-0.1-0.2-0.3-0.2h-8.6V46.3z M218,55.9l-0.1-0.2
					c-0.3-0.5,0-1.2,0.5-1.4c2-0.6,4.2-1.4,6.3-2.5c0.6-0.3,0.7-1.1,0.2-1.6c-1.2-1.1-2.3-2.5-3.3-4.2c-0.3-0.5-0.1-1.1,0.4-1.4
					l0.1,0c0.4-0.2,0.9,0,1.2,0.4c1,1.7,2.3,3.2,3.7,4.5c0.3,0.3,0.8,0.3,1.2,0.1c1.8-1.4,3.4-3.1,4.6-5.1c0.4-0.6-0.1-1.4-0.8-1.4
					H220c-0.5,0-0.9-0.4-0.9-0.9v-0.1c0-0.5,0.4-0.9,0.9-0.9h14.7c0.2,0,0.5,0.1,0.7,0.3l0.4,0.4c0.3,0.3,0.4,0.7,0.2,1
					c-1.1,2.9-2.8,5.4-5.3,7.4c-0.5,0.5-0.4,1.3,0.2,1.6c2,0.8,4.4,1.4,7,1.8c0.6,0.1,1,0.7,0.8,1.2l0,0.1c-0.1,0.4-0.6,0.7-1,0.7
					c-3.4-0.4-6.6-1.4-9.5-3.1c-0.3-0.2-0.7-0.2-1,0c-3.1,1.9-6,3.1-8.4,3.6C218.6,56.5,218.2,56.3,218,55.9z M223.8,31.8v1.9
					c0,0.8-0.2,1.6-0.5,2.2c-0.5,1.1-1.6,2.1-3.1,2.9c-0.5,0.2-1,0.1-1.3-0.4l-0.1-0.2c-0.3-0.5-0.1-1.1,0.4-1.3
					c0.5-0.2,0.9-0.5,1.2-0.7c1-0.6,1.4-1.7,1.4-3.1V30l0.1-0.3l0.3-0.1h9.4l0.3,0.1L232,30v5.7l0.1,0.7c0.1,0.1,0.4,0.2,0.8,0.3h2
					l0.6-0.2c0.2,0,0.3-0.3,0.3-0.8l0.1-0.8c0.1-0.5,0.6-0.9,1.1-0.8l0,0c0.5,0.1,0.8,0.5,0.8,1c-0.2,1.7-0.5,2.7-0.8,2.9
					c-0.5,0.4-0.9,0.6-1.3,0.6h-3.6c-0.6,0-1-0.2-1.4-0.6c-0.4-0.4-0.6-0.9-0.6-1.4v-4.8c0-0.2-0.1-0.3-0.3-0.3H224
					C223.8,31.6,223.8,31.7,223.8,31.8z M239.3,31.3L239.3,31.3c-0.3,0.4-0.8,0.5-1.2,0.4c-5.9-2.5-11.2-6-15.8-10.5
					c-0.3-0.3-0.4-0.8-0.1-1.2l0-0.1c0.3-0.5,1-0.6,1.5-0.1l1.8,1.8c0.4,0.4,0.9,0.4,1.3,0c1.1-1,2-1.9,2.7-2.8
					c0.4-0.4,1-0.5,1.4-0.1l0.1,0.1c0.4,0.3,0.4,0.9,0.1,1.3c-0.7,0.9-1.6,1.7-2.6,2.7c-0.4,0.4-0.4,1.1,0.1,1.5
					c0.6,0.4,1.1,0.8,1.6,1.2c0.4,0.3,0.9,0.2,1.2-0.1c1.1-1.1,2-2,2.7-2.9c0.3-0.4,1-0.5,1.4-0.1l0.1,0.1c0.4,0.3,0.4,0.9,0.1,1.3
					c-0.6,0.7-1.3,1.5-2.1,2.3c-0.5,0.4-0.4,1.2,0.2,1.5c1.5,0.8,3.2,1.6,5.2,2.4C239.4,30,239.6,30.8,239.3,31.3z"/>
				<path class="st28" d="M276.7,45.2L276.7,45.2c0.2,0.5,0.1,1-0.3,1.3c-1.6,1-3.4,2-5.4,2.9c-0.7,0.3-0.8,1.4-0.1,1.8
					c2.1,1.2,4.8,2.1,7.9,3c0.6,0.2,0.9,0.8,0.6,1.4l-0.3,0.7l-0.4-0.1c-8.9-1.7-15-6.3-18.4-13.7c-0.2-0.4-0.5-0.6-0.9-0.6h-3.6
					c-0.5,0-1,0.4-1,1v10c0,0.6,0.5,1.1,1.2,1c2.1-0.3,4-0.8,5.7-1.2c0.5-0.1,1.1,0.2,1.2,0.7l0,0c0.1,0.5-0.2,1.1-0.7,1.2
					c-3.7,1-8.1,1.7-13.2,2.1c-0.5,0-1-0.4-1.1-0.9l0,0c0-0.5,0.4-1,0.9-1l3.2-0.3c0.5,0,0.9-0.5,0.9-1V42.8c0-0.5-0.4-1-1-1h-5
					c-0.5,0-0.9,0.4-1,0.9c-0.2,2.3-0.6,4.5-1.2,6.7c-0.5,1.9-1.1,3.5-1.8,4.8c-0.3,0.5-0.8,0.7-1.3,0.4l-0.2-0.1
					c-0.5-0.3-0.7-0.9-0.4-1.3c2-3.9,3.1-8.6,3.1-14V20c0-0.5,0.3-0.7,0.7-0.7h32.9c0.6,0,0.8,0.2,0.8,0.7v6.4c0,1-0.8,1.8-1.8,1.8
					h-5.8c-0.5,0-1,0.4-1,1v3c0,0.5,0.4,1,1,1h6.8c0.5,0,1,0.4,1,1v0c0,0.5-0.4,1-1,1h-6.8c-0.5,0-1,0.4-1,1v2.8c0,0.5,0.4,1,1,1
					h8.5c0.5,0,1,0.4,1,1v0c0,0.5-0.4,1-1,1h-15.4c-0.8,0-1.2,0.8-0.9,1.5c1.1,2,2.4,3.7,3.9,5.1c0.3,0.3,0.7,0.3,1.1,0.2
					c3-1.3,5.5-2.5,7.4-3.7C275.8,44.5,276.5,44.7,276.7,45.2z M247,26.2h28.1c0.7,0,1.3-0.6,1.3-1.3v-2.3c0-0.7-0.6-1.2-1.2-1.2
					h-28.9c-0.2,0-0.3,0-0.3,0.3v3.7C246,25.8,246.5,26.2,247,26.2z M255.2,38.9v-2.8c0-0.5-0.4-1-1-1h-4.9c-0.5,0-1-0.4-1-1v0
					c0-0.5,0.4-1,1-1h4.9c0.5,0,1-0.4,1-1v-3c0-0.5-0.4-1-1-1H247c-0.5,0-1,0.4-1,1v9.7c0,0.5,0.4,1,1,1h7.1
					C254.7,39.9,255.2,39.4,255.2,38.9z M266.8,28.2h-8.7c-0.5,0-1,0.4-1,1v3c0,0.5,0.4,1,1,1h8.7c0.5,0,1-0.4,1-1v-3
					C267.8,28.6,267.4,28.2,266.8,28.2z M267.8,38.9v-2.8c0-0.5-0.4-1-1-1h-8.7c-0.5,0-1,0.4-1,1v2.8c0,0.5,0.4,1,1,1h8.7
					C267.4,39.9,267.8,39.4,267.8,38.9z"/>
				<path class="st28" d="M299.6,25.1L299.6,25.1c0.5,0.2,0.8,0.7,0.6,1.2c-1,3-1.9,5.4-2.6,7.2c-0.3,0.6,0.2,1.3,0.9,1.3h4.6
					c0.5,0,1,0.4,1,1v0c0,0.5-0.4,1-1,1h-20.2c-0.5,0-1-0.4-1-1v0c0-0.5,0.4-1,1-1h11.3c0.4,0,0.7-0.2,0.9-0.6
					c1.2-2.8,2.3-5.7,3.2-8.5C298.5,25.1,299.1,24.9,299.6,25.1z M292.8,18.2L292.8,18.2c0.6,0,1,0.4,1,1v1c0,0.5,0.4,1,1,1h7.2
					c0.5,0,1,0.4,1,1v0c0,0.5-0.4,1-1,1h-17.8c-0.5,0-1-0.4-1-1v0c0-0.5,0.4-1,1-1h6.7c0.5,0,1-0.4,1-1v-1
					C291.8,18.6,292.3,18.2,292.8,18.2z M285.8,56.8L285.8,56.8c-0.6,0-1-0.4-1-1V41.7c0-0.5,0.2-0.6,0.6-0.6h14.5
					c0.9,0,1.7,0.8,1.7,1.7v13c0,0.5-0.4,1-1,1h0c-0.5,0-1-0.4-1-1v-1c0-0.5-0.4-1-1-1h-10.9c-0.5,0-1,0.4-1,1v1
					C286.7,56.4,286.3,56.8,285.8,56.8z M287.3,25.7c0.8,2.1,1.6,4.3,2.2,6.5c0.1,0.5-0.2,1.1-0.7,1.2l0,0c-0.5,0.1-1-0.2-1.2-0.7
					c-0.5-2-1.2-4.1-2.1-6.3c-0.2-0.5,0.1-1.1,0.6-1.3l0,0C286.6,25,287.1,25.2,287.3,25.7z M298.6,51.9c0.5,0,1-0.4,1-1v-7.6
					c0-0.2-0.1-0.3-0.3-0.3H287c-0.2,0-0.3,0.1-0.3,0.3v7.6c0,0.5,0.4,1,1,1H298.6z M309.4,21.3c-0.7,0-1.2,0.6-1.2,1.2v33.2
					c0,0.5-0.4,1-1,1h0c-0.5,0-1-0.4-1-1V19.6c0-0.2,0.1-0.3,0.3-0.3h11.7c0.2,0,0.4,0.1,0.6,0.2l0.5,0.4c0.3,0.3,0.4,0.7,0.3,1
					L315.9,33c-0.1,0.3-0.1,0.6,0,0.8c2.1,2.5,3.6,4.8,4.4,6.8c0,0,0,0.1,0,0.1c1.3,3.9,1.3,7,0,9.4c-0.6,1.1-1.3,1.8-2.3,2.3
					c-0.7,0.3-1.6,0.5-2.6,0.6c-0.9,0-2.1-0.3-3.7-0.9c-0.4-0.1-0.7-0.6-0.7-1l0-0.2c0-0.6,0.7-1,1.3-0.8c2.1,0.7,3.7,0.9,4.7,0.5
					c1.9-0.7,2.6-2.9,2.3-6.5c0-0.1,0-0.1,0-0.2c-0.5-2.5-2.4-5.8-5.5-9.8c-0.2-0.2-0.3-0.5-0.2-0.8l3.4-10.7
					c0.2-0.6-0.3-1.3-0.9-1.3H309.4z"/>
			</g>
		</g>
		<rect x="77.5" y="3.6" class="st29" width="54.9" height="17.6"/>
		<text transform="matrix(1 0 0 1 77.4887 14.2754)" class="st30 st31 st32">聯合報</text>
	</g>
	<g>
		<g>
			<path class="st33" d="M128.7,6.1h5.1c2.8,0,3.9,0.7,3.9,2.3c0,1.2-0.5,1.6-1.5,1.8c1.2,0.3,1.7,0.9,1.7,2.1c0,1.6-1.6,2.4-4,2.4
				h-4.2c-0.6,0-1.2-0.5-1.2-1.2V6.1z M133.3,9.5c0.7,0,0.9-0.2,0.9-0.7s-0.2-0.7-1-0.7h-0.8v1.4H133.3z M133.3,12.7
				c0.9,0,1.1-0.2,1.1-0.8c0-0.5-0.2-0.8-1-0.8h-1v1.6H133.3z"/>
			<path class="st33" d="M148,12.6l0.9,2.2H146c-0.5,0-0.9-0.3-1.1-0.7l-0.6-1.6c-0.2-0.4-0.4-0.6-0.9-0.6c0,0-0.6,0-0.6,0v2.9h-3.7
				V7.3c0-0.6,0.5-1.2,1.2-1.2h4.3c2.9,0,4,1,4,2.9c0,1.3-0.7,2-1.7,2.4C147.4,11.6,147.8,11.9,148,12.6z M143.9,10
				c0.9,0,1.2-0.2,1.2-0.9c0-0.6-0.4-0.9-1.1-0.9h-1.2V10H143.9z"/>
			<path class="st33" d="M153.3,13.9c-0.1,0.5-0.6,0.8-1.1,0.8h-2.6l2.8-7.9c0.2-0.5,0.6-0.8,1.1-0.8h3c0.5,0,0.9,0.3,1.1,0.8
				l2.8,7.9h-3c-0.5,0-1-0.3-1.1-0.8l-0.1-0.4c0,0-2.7,0-2.7,0L153.3,13.9z M155.1,9.9c-0.2-0.5-0.3-1.3-0.3-1.3s-0.2,0.8-0.3,1.3
				l-0.4,1.4h1.5L155.1,9.9z"/>
			<path class="st33" d="M161.8,6.1h3.7l1.7,3.2c0.3,0.5,0.5,1.1,0.5,1.1V6.1h3.1v8.6h-3c-0.4,0-0.8-0.2-1-0.6l-1.4-2.6
				c-0.3-0.5-0.5-1.1-0.5-1.1v4.3h-3.1V6.1z"/>
			<path class="st33" d="M172.7,7.3c0-0.6,0.5-1.2,1.2-1.2h3.5c3,0,4.8,1.3,4.8,4.3c0,2.9-1.8,4.3-4.8,4.3h-3.4
				c-0.6,0-1.2-0.5-1.2-1.2V7.3z M176.9,12.3c1.2,0,1.4-0.3,1.4-1.8s-0.3-2-1.4-2h-0.6v3.8H176.9z"/>
		</g>
		<g>
			<path class="st33" d="M186,13.5c0-0.6,0.5-1.2,1.2-1.2h2.6c0.3,0,0.5-0.2,0.5-0.4c0-0.2-0.2-0.4-0.5-0.4h-1.4
				c-1.9,0-2.7-1.2-2.7-2.7c0-1.5,0.8-2.7,2.7-2.7h4.9v1.3c0,0.6-0.5,1.2-1.2,1.2h-2.5c-0.3,0-0.5,0.2-0.5,0.4
				c0,0.2,0.2,0.4,0.5,0.4h1.5c1.9,0,2.6,1.1,2.6,2.7c0,1.6-0.8,2.7-2.6,2.7H186V13.5z"/>
			<path class="st33" d="M196.6,8.6h-2.5V6.1h8.6v2.4h-2.5v6.2h-3.7V8.6z"/>
			<path class="st33" d="M203.4,11.1v-5h2.5c0.6,0,1.2,0.5,1.2,1.2v3.4c0,1.4,0.1,1.8,0.9,1.8c0.8,0,1-0.4,1-1.8V7.3
				c0-0.6,0.5-1.2,1.2-1.2h2.5v5c0,2.9-1.7,3.8-4.7,3.8C205,14.9,203.4,13.9,203.4,11.1z"/>
			<path class="st33" d="M213.9,7.3c0-0.6,0.5-1.2,1.2-1.2h3.5c3,0,4.8,1.3,4.8,4.3c0,2.9-1.8,4.3-4.8,4.3h-3.4
				c-0.6,0-1.2-0.5-1.2-1.2V7.3z M218.2,12.4c1.2,0,1.4-0.3,1.4-1.8s-0.3-2-1.4-2h-0.6v3.8H218.2z"/>
			<path class="st33" d="M224.5,6.1h2.5c0.6,0,1.2,0.5,1.2,1.2v7.5h-2.5c-0.6,0-1.2-0.5-1.2-1.2V6.1z"/>
			<path class="st33" d="M229,10.4c0-3,1.8-4.5,4.9-4.5c3.2,0,4.9,1.5,4.9,4.5c0,2.9-1.8,4.5-4.9,4.5C230.7,14.9,229,13.4,229,10.4z
				 M235.1,10.4c0-1.7-0.3-2.1-1.2-2.1c-0.9,0-1.2,0.4-1.2,2.1c0,1.6,0.3,2.1,1.2,2.1C234.8,12.5,235.1,12.1,235.1,10.4z"/>
		</g>
		<path class="st33" d="M115.8,11v-5h2.5c0.6,0,1.2,0.5,1.2,1.2v3.4c0,1.4,0.1,1.8,0.9,1.8c0.8,0,1-0.4,1-1.8V7.2
			c0-0.6,0.5-1.2,1.2-1.2h2.5v5c0,2.9-1.7,3.8-4.7,3.8C117.5,14.9,115.8,13.9,115.8,11z"/>
	</g>
</g>
</svg>
