<?xml version="1.0" encoding="utf-8"?>
<!-- Generator: Adobe Illustrator 22.0.1, SVG Export Plug-In . SVG Version: 6.00 Build 0)  -->
<svg version="1.1" id="圖層_1" xmlns="http://www.w3.org/2000/svg" xmlns:xlink="http://www.w3.org/1999/xlink" x="0px" y="0px"
	 viewBox="0 0 156.3 20.9" style="enable-background:new 0 0 156.3 20.9;" xml:space="preserve">
<style type="text/css">
	.st0{fill:#6B6B6B;}
	.st1{fill:#BFBFBF;}
	.st2{fill:#B3D000;}
	.st3{fill:#00913D;}
	.st4{fill:#00763C;}
	.st5{fill:#9C0E59;}
	.st6{fill:#51AF33;}
	.st7{fill:#91C433;}
	.st8{fill:#F9BE00;}
	.st9{fill:#EA6118;}
	.st10{fill:#EE8500;}
	.st11{fill:#E95812;}
	.st12{fill:#EC6D22;}
	.st13{fill:#E78400;}
	.st14{fill:#F9BF00;}
	.st15{fill:#E9521A;}
	.st16{fill:#7F104A;}
	.st17{fill:#E40080;}
	.st18{fill:#F5AA00;}
	.st19{fill:#780712;}
	.st20{fill:#790910;}
	.st21{fill:#DF0518;}
	.st22{fill:#C61A1A;}
	.st23{fill:#B91221;}
	.st24{fill:#640015;}
	.st25{fill:#EC7026;}
	.st26{fill:#F7C000;}
	.st27{fill:#6F043D;}
	.st28{fill:#F5A600;}
	.st29{fill:#F5A900;}
</style>
<g>
	<g>
		<path class="st0" d="M28.9,5.1H35c3.3,0,4.6,0.8,4.6,2.7c0,1.4-0.6,1.9-1.8,2.2c1.4,0.3,2,1,2,2.5c0,1.9-1.9,2.8-4.7,2.8h-4.9
			c-0.8,0-1.4-0.6-1.4-1.4V5.1z M34.3,9.1c0.8,0,1-0.2,1-0.8s-0.3-0.8-1.2-0.8h-1v1.7H34.3z M34.4,12.9c1.1,0,1.3-0.3,1.3-0.9
			c0-0.6-0.2-0.9-1.2-0.9h-1.2v1.8H34.4z"/>
		<path class="st0" d="M51.8,12.7l1.1,2.6h-3.5c-0.6,0-1.1-0.3-1.3-0.9l-0.8-1.9c-0.2-0.5-0.4-0.7-1-0.7c0,0-0.7,0-0.7,0v3.4h-4.3
			V6.5c0-0.8,0.6-1.4,1.4-1.4h5.1c3.5,0,4.7,1.2,4.7,3.5c0,1.6-0.8,2.4-2,2.9C51.1,11.6,51.5,12,51.8,12.7z M46.9,9.7
			c1,0,1.5-0.3,1.5-1.1c0-0.7-0.5-1.1-1.2-1.1h-1.5v2.2H46.9z"/>
		<path class="st0" d="M58.1,14.3c-0.2,0.6-0.7,1-1.3,1h-3.1L57,6c0.2-0.5,0.7-0.9,1.3-0.9h3.5c0.6,0,1.1,0.4,1.3,0.9l3.4,9.3h-3.5
			c-0.6,0-1.2-0.4-1.3-1l-0.1-0.5c0,0-3.2,0-3.2,0L58.1,14.3z M60.2,9.6C60.1,9,59.9,8,59.9,8S59.7,9,59.5,9.6L59,11.3h1.7L60.2,9.6
			z"/>
		<path class="st0" d="M68.1,5.1h4.4l2,3.8c0.3,0.6,0.6,1.3,0.6,1.3V5.1h3.6v10.2h-3.5c-0.5,0-1-0.3-1.2-0.7l-1.6-3.1
			c-0.3-0.6-0.6-1.3-0.6-1.3v5.1h-3.6V5.1z"/>
		<path class="st0" d="M81,6.5c0-0.8,0.6-1.4,1.4-1.4h4.1c3.6,0,5.7,1.5,5.7,5.1c0,3.5-2.2,5.1-5.7,5.1h-4.1c-0.8,0-1.4-0.6-1.4-1.4
			V6.5z M86.1,12.5c1.4,0,1.7-0.3,1.7-2.2s-0.3-2.4-1.7-2.4h-0.7v4.5H86.1z"/>
	</g>
	<g>
		<path class="st1" d="M93.7,13.8c0-0.8,0.6-1.4,1.4-1.4h3.1c0.4,0,0.6-0.2,0.6-0.5c0-0.3-0.2-0.5-0.6-0.5h-1.7
			c-2.3,0-3.2-1.4-3.2-3.2c0-1.7,0.9-3.2,3.2-3.2h5.9v1.5c0,0.8-0.6,1.4-1.4,1.4h-3c-0.4,0-0.6,0.2-0.6,0.5C97.4,8.8,97.6,9,98,9
			h1.8c2.2,0,3.1,1.3,3.1,3.2c0,1.9-0.9,3.2-3.1,3.2h-6.1V13.8z"/>
		<path class="st1" d="M106.2,8h-2.9V5.1h10.2V8h-2.9v7.3h-4.3V8z"/>
		<path class="st1" d="M114.3,11V5.1h3c0.8,0,1.4,0.6,1.4,1.4v4c0,1.7,0.2,2.2,1.1,2.2c1,0,1.1-0.4,1.1-2.2v-4
			c0-0.8,0.6-1.4,1.4-1.4h3V11c0,3.4-2,4.6-5.6,4.6C116.2,15.5,114.3,14.4,114.3,11z"/>
		<path class="st1" d="M126.8,6.5c0-0.8,0.6-1.4,1.4-1.4h4.1c3.6,0,5.7,1.5,5.7,5.1c0,3.5-2.2,5.1-5.7,5.1h-4.1
			c-0.8,0-1.4-0.6-1.4-1.4V6.5z M131.9,12.5c1.4,0,1.7-0.3,1.7-2.2S133.3,8,131.9,8h-0.7v4.5H131.9z"/>
		<path class="st1" d="M139.3,5.1h3c0.8,0,1.4,0.6,1.4,1.4v8.9h-3c-0.8,0-1.4-0.6-1.4-1.4V5.1z"/>
		<path class="st1" d="M144.6,10.2c0-3.5,2.1-5.3,5.8-5.3c3.8,0,5.8,1.8,5.8,5.3c0,3.5-2.1,5.3-5.8,5.3
			C146.7,15.5,144.6,13.7,144.6,10.2z M151.9,10.2c0-2-0.3-2.5-1.4-2.5c-1.1,0-1.4,0.5-1.4,2.5c0,1.9,0.3,2.5,1.4,2.5
			C151.6,12.7,151.9,12.2,151.9,10.2z"/>
	</g>
	<g>
		<g>
			<path class="st2" d="M0.4,0C0.2,0,0,0.2,0,0.4v3.7c0,0.2,0.1,0.3,0.3,0.1L2,2.6C2.2,2.4,2.4,2.1,2.6,2l1.7-1.7
				C4.4,0.1,4.4,0,4.1,0H0.4z"/>
		</g>
		<g>
			<path class="st2" d="M4.9,5.8c0-0.2-0.2-0.4-0.4-0.4H0.7c-0.2,0-0.3,0.1-0.1,0.3l1.7,1.7c0.2,0.2,0.4,0.4,0.6,0.6l1.7,1.7
				c0.2,0.2,0.3,0.1,0.3-0.1V5.8z"/>
		</g>
		<g>
			<path class="st3" d="M0.4,10.7c-0.2,0-0.4,0.2-0.4,0.4v3.7c0,0.2,0.1,0.3,0.3,0.1L2,13.2c0.2-0.2,0.4-0.4,0.6-0.6L4.3,11
				c0.2-0.2,0.1-0.3-0.1-0.3H0.4z"/>
		</g>
		<g>
			<path class="st4" d="M4.6,20.2c0.2,0.2,0.3,0.1,0.3-0.1v-3.7c0-0.2-0.2-0.4-0.4-0.4H0.7c-0.2,0-0.3,0.1-0.1,0.3L4.6,20.2z"/>
		</g>
		<g>
			<path class="st5" d="M21.5,16c-0.1,0-0.2,0.1-0.2,0.2s0,0.4,0,0.6v3.4c0,0.2,0.1,0.3,0.3,0.1l4-4c0.2-0.2,0.1-0.3-0.1-0.3h-3.4
				C21.9,16,21.6,16,21.5,16z"/>
		</g>
		<g>
			<path class="st6" d="M2.9,13c-0.2,0.2-0.4,0.4-0.6,0.6l-1.7,1.7c-0.2,0.2-0.1,0.3,0.1,0.3h3.7c0.2,0,0.4-0.2,0.4-0.4v-3.7
				c0-0.2-0.1-0.3-0.3-0.1L2.9,13z"/>
		</g>
		<g>
			<path class="st6" d="M0.3,5.9C0.1,5.8,0,5.8,0,6.1v3.7c0,0.2,0.2,0.4,0.4,0.4h3.7c0.2,0,0.3-0.1,0.1-0.3L2.6,8.2
				C2.4,8.1,2.2,7.8,2,7.6L0.3,5.9z"/>
		</g>
		<g>
			<path class="st7" d="M4.9,0.7c0-0.2-0.1-0.3-0.3-0.1L2.9,2.3C2.7,2.5,2.5,2.7,2.3,2.9L0.6,4.6C0.5,4.7,0.5,4.9,0.7,4.9h3.7
				c0.2,0,0.4-0.2,0.4-0.4V0.7z"/>
		</g>
		<g>
			<path class="st8" d="M9.9,4.3c0.2,0.2,0.3,0.1,0.3-0.1V0.4C10.2,0.2,10,0,9.8,0H6.1C5.9,0,5.8,0.1,6,0.3L7.7,2
				c0.2,0.2,0.4,0.4,0.6,0.6L9.9,4.3z"/>
		</g>
		<g>
			<path class="st9" d="M5.3,9.5c0,0.2,0.1,0.3,0.3,0.1l1.7-1.7c0.2-0.2,0.4-0.4,0.6-0.6l1.7-1.7c0.2-0.2,0.1-0.3-0.1-0.3H5.8
				c-0.2,0-0.4,0.2-0.4,0.4V9.5z"/>
		</g>
		<g>
			<path class="st10" d="M9.9,14.9c0.2,0.2,0.3,0.1,0.3-0.1v-3.7c0-0.2-0.2-0.4-0.4-0.4H6.1c-0.2,0-0.3,0.1-0.1,0.3l1.7,1.7
				c0.2,0.2,0.4,0.4,0.6,0.6L9.9,14.9z"/>
		</g>
		<g>
			<path class="st11" d="M5.6,11.3c-0.2-0.2-0.3-0.1-0.3,0.1v3.7c0,0.2,0.2,0.4,0.4,0.4h3.7c0.2,0,0.3-0.1,0.1-0.3l-1.7-1.7
				c-0.2-0.2-0.4-0.4-0.6-0.6L5.6,11.3z"/>
		</g>
		<g>
			<path class="st12" d="M9.8,10.2c0.2,0,0.4-0.2,0.4-0.4V6.1c0-0.2-0.1-0.3-0.3-0.1L8.3,7.6C8.1,7.8,7.8,8.1,7.7,8.2L6,9.9
				c-0.2,0.2-0.1,0.3,0.1,0.3H9.8z"/>
		</g>
		<g>
			<path class="st13" d="M5.3,20.1c0,0.2,0.1,0.3,0.3,0.1l1.7-1.7c0.2-0.2,0.4-0.4,0.6-0.6l1.7-1.7C9.8,16.1,9.7,16,9.5,16H5.8
				c-0.2,0-0.4,0.2-0.4,0.4V20.1z"/>
		</g>
		<g>
			<path class="st14" d="M6,20.6c-0.2,0.2-0.1,0.3,0.1,0.3h3.7c0.2,0,0.4-0.2,0.4-0.4v-3.7c0-0.2-0.1-0.3-0.3-0.1l-1.7,1.7
				c-0.2,0.2-0.4,0.4-0.6,0.6L6,20.6z"/>
		</g>
		<g>
			<path class="st14" d="M6,20.6l1.7-1.7c0.2-0.2,0.2-0.2,0,0L6,20.6"/>
		</g>
		<g>
			<path class="st13" d="M15.3,20.2c0.2,0.2,0.3,0.1,0.3-0.1v-3.7c0-0.2-0.2-0.4-0.4-0.4h-3.7c-0.2,0-0.3,0.1-0.1,0.3L13,18
				c0.2,0.2,0.4,0.4,0.6,0.6L15.3,20.2z"/>
		</g>
		<g>
			<path class="st15" d="M10.7,20.4c0,0.2,0.2,0.4,0.4,0.4h3.7c0.2,0,0.3-0.1,0.1-0.3l-1.7-1.7c-0.2-0.2-0.4-0.4-0.6-0.6L11,16.6
				c-0.2-0.2-0.3-0.1-0.3,0.1V20.4z"/>
		</g>
		<g>
			<path class="st16" d="M18,18.6c0.2-0.2,0.4-0.4,0.6-0.6l1.7-1.7c0.2-0.2,0.1-0.3-0.1-0.3h-3.7c-0.2,0-0.4,0.2-0.4,0.4v3.7
				c0,0.2,0.1,0.3,0.3,0.1L18,18.6z"/>
		</g>
		<g>
			<path class="st17" d="M16.7,20.6c-0.2,0.2-0.1,0.3,0.1,0.3h3.7c0.2,0,0.4-0.2,0.4-0.4v-3.7c0-0.2-0.1-0.3-0.3-0.1l-1.7,1.7
				c-0.2,0.2-0.4,0.4-0.6,0.6L16.7,20.6z"/>
		</g>
		<g>
			<path class="st18" d="M5.3,4.5c0,0.2,0.2,0.4,0.4,0.4h3.7c0.2,0,0.3-0.1,0.1-0.3L7.9,2.9C7.8,2.7,7.5,2.5,7.3,2.3L5.6,0.6
				C5.5,0.5,5.3,0.5,5.3,0.7V4.5z"/>
		</g>
		<g>
			<path class="st19" d="M20.9,0.4c0-0.2-0.2-0.4-0.4-0.4h-3.7c-0.2,0-0.3,0.1-0.1,0.3L18.3,2c0.2,0.2,0.4,0.4,0.6,0.6l1.7,1.7
				c0.2,0.2,0.3,0.1,0.3-0.1V0.4z"/>
		</g>
		<g>
			<path class="st20" d="M16.5,5.3c-0.2,0-0.4,0.2-0.4,0.4v3.7c0,0.2,0.1,0.3,0.3,0.1L18,7.9c0.2-0.2,0.4-0.4,0.6-0.6l1.7-1.7
				c0.2-0.2,0.1-0.3-0.1-0.3H16.5z"/>
		</g>
		<g>
			<path class="st21" d="M20.9,11.1c0-0.2-0.2-0.4-0.4-0.4h-3.7c-0.2,0-0.3,0.1-0.1,0.3l1.7,1.7c0.2,0.2,0.4,0.4,0.6,0.6l1.7,1.7
				c0.2,0.2,0.3,0.1,0.3-0.1V11.1z"/>
		</g>
		<g>
			<path class="st22" d="M18.6,13.6c-0.2-0.2-0.4-0.4-0.6-0.6l-1.7-1.7c-0.2-0.2-0.3-0.1-0.3,0.1v3.7c0,0.2,0.2,0.4,0.4,0.4h3.7
				c0.2,0,0.3-0.1,0.1-0.3L18.6,13.6z"/>
		</g>
		<g>
			<path class="st23" d="M20.9,6.1c0-0.2-0.1-0.3-0.3-0.1l-1.7,1.7c-0.2,0.2-0.4,0.4-0.6,0.6l-1.7,1.7c-0.2,0.2-0.1,0.3,0.1,0.3h3.7
				c0.2,0,0.4-0.2,0.4-0.4V6.1z"/>
		</g>
		<g>
			<path class="st24" d="M16.3,0.6C16.2,0.5,16,0.5,16,0.7v3.7c0,0.2,0.2,0.4,0.4,0.4h3.7c0.2,0,0.3-0.1,0.1-0.3l-1.7-1.7
				c-0.2-0.2-0.4-0.4-0.6-0.6L16.3,0.6z"/>
		</g>
		<g>
			<path class="st25" d="M21.4,4.1c0,0.2,0.1,0.3,0.3,0.1l1.7-1.7C23.5,2.4,23.8,2.1,24,2l1.7-1.7C25.8,0.1,25.8,0,25.5,0h-3.7
				c-0.2,0-0.4,0.2-0.4,0.4V4.1z"/>
		</g>
		<g>
			<path class="st8" d="M23.7,7.3c0.2,0.2,0.4,0.4,0.6,0.6L26,9.6c0.2,0.2,0.3,0.1,0.3-0.1V5.8c0-0.2-0.2-0.4-0.4-0.4h-3.7
				c-0.2,0-0.3,0.1-0.1,0.3L23.7,7.3z"/>
		</g>
		<g>
			<path class="st26" d="M23.4,13.2c0.2-0.2,0.4-0.4,0.6-0.6l1.7-1.7c0.2-0.2,0.1-0.3-0.1-0.3h-3.7c-0.2,0-0.4,0.2-0.4,0.4v3.7
				c0,0.2,0.1,0.3,0.3,0.1L23.4,13.2z"/>
		</g>
		<g>
			<path class="st27" d="M25.9,15.5c0.2,0,0.4-0.2,0.4-0.4v-3.7c0-0.2-0.1-0.3-0.3-0.1L24.3,13c-0.2,0.2-0.4,0.4-0.6,0.6L22,15.2
				c-0.2,0.2-0.1,0.3,0.1,0.3H25.9z"/>
		</g>
		<g>
			<path class="st28" d="M21.4,9.8c0,0.2,0.2,0.4,0.4,0.4h3.7c0.2,0,0.3-0.1,0.1-0.3L24,8.2c-0.2-0.2-0.4-0.4-0.6-0.6l-1.7-1.7
				c-0.2-0.2-0.3-0.1-0.3,0.1V9.8z"/>
		</g>
		<g>
			<path class="st29" d="M25.9,4.9c0.2,0,0.4-0.2,0.4-0.4V0.7c0-0.2-0.1-0.3-0.3-0.1l-1.7,1.7c-0.2,0.2-0.4,0.4-0.6,0.6L22,4.6
				c-0.2,0.2-0.1,0.3,0.1,0.3H25.9z"/>
		</g>
	</g>
</g>
<g>
	<path class="st1" d="M29,0.4h0.6V2c0,0.5,0.2,0.8,0.6,0.8c0.4,0,0.6-0.3,0.6-0.8V0.4h0.6v1.8c0,0.8-0.4,1.1-1.1,1.1
		c-0.7,0-1.1-0.3-1.1-1.1V0.4z"/>
	<path class="st1" d="M31.7,1.1h0.5v0.3h0c0.2-0.2,0.4-0.3,0.7-0.3c0.5,0,0.7,0.3,0.7,0.8v1.3h-0.5V2.1c0-0.3,0-0.6-0.4-0.6
		c-0.4,0-0.5,0.4-0.5,0.7v1h-0.5V1.1z"/>
	<path class="st1" d="M34.2,1.1h0.5v2.1h-0.5V1.1z M34.2,0.2h0.5v0.5h-0.5V0.2z"/>
	<path class="st1" d="M35.4,1.5H35V1.1h0.4V0.7l0.5-0.2v0.6h0.5v0.4h-0.5v1c0,0.2,0,0.3,0.3,0.3c0.1,0,0.2,0,0.2-0.1l0,0.4
		c-0.1,0-0.2,0-0.4,0c-0.4,0-0.7-0.3-0.7-0.7V1.5z"/>
	<path class="st1" d="M37.1,2c0-0.3,0.2-0.5,0.5-0.5c0.3,0,0.4,0.2,0.4,0.5H37.1z M38.4,2.7c-0.2,0.1-0.4,0.2-0.7,0.2
		c-0.3,0-0.6-0.2-0.6-0.5h1.4c0-0.7-0.2-1.3-1-1.3c-0.6,0-1,0.5-1,1.1c0,0.7,0.4,1.1,1.1,1.1c0.3,0,0.5-0.1,0.7-0.2V2.7z"/>
	<path class="st1" d="M39.4,2.2c0-0.3,0.1-0.7,0.4-0.7c0.3,0,0.5,0.4,0.5,0.7c0,0.3-0.1,0.7-0.5,0.7C39.5,2.8,39.4,2.5,39.4,2.2z
		 M40.3,3.2h0.5v-3h-0.5v1.2h0c-0.2-0.2-0.4-0.3-0.6-0.3c-0.6,0-0.9,0.5-0.9,1.1c0,0.6,0.2,1.1,0.9,1.1c0.3,0,0.5-0.1,0.6-0.3h0V3.2
		z"/>
	<path class="st1" d="M42.9,0.8h0.3c0.5,0,0.9,0.4,0.9,1c0,0.6-0.5,1-0.9,1h-0.3V0.8z M42.4,3.2h0.8c0.9,0,1.6-0.3,1.6-1.4
		c0-1.1-0.8-1.4-1.6-1.4h-0.8V3.2z"/>
	<path class="st1" d="M45.5,2.6c0-0.3,0.4-0.4,0.6-0.4h0.2c0,0.2,0,0.3-0.1,0.4c-0.1,0.1-0.2,0.2-0.4,0.2
		C45.6,2.9,45.5,2.8,45.5,2.6z M45.2,1.7c0.2-0.1,0.4-0.2,0.6-0.2c0.3,0,0.5,0.1,0.5,0.4H46c-0.2,0-0.5,0-0.7,0.1
		C45.1,2.1,45,2.3,45,2.6c0,0.4,0.4,0.6,0.7,0.6c0.2,0,0.5-0.1,0.6-0.4h0c0,0.1,0,0.2,0,0.3h0.5c0-0.2,0-0.3,0-0.5
		c0-0.2,0-0.3,0-0.5V2c0-0.6-0.3-0.9-0.9-0.9c-0.2,0-0.5,0.1-0.7,0.2L45.2,1.7z"/>
	<path class="st1" d="M47.3,1.1h0.5v2.1h-0.5V1.1z M47.3,0.2h0.5v0.5h-0.5V0.2z"/>
	<path class="st1" d="M48.3,0.2h0.5v3h-0.5V0.2z"/>
	<path class="st1" d="M50.3,2.6L50.3,2.6l0.5-1.5h0.5l-0.8,2.1c-0.2,0.5-0.3,0.9-0.9,0.9c-0.1,0-0.3,0-0.4-0.1l0-0.4
		c0.1,0,0.1,0,0.3,0c0.2,0,0.4-0.1,0.4-0.4l-0.8-2.2h0.6L50.3,2.6z"/>
	<path class="st1" d="M52.3,0.4H53l1.1,2.1h0V0.4h0.5v2.8H54l-1.1-2.1h0v2.1h-0.5V0.4z"/>
	<path class="st1" d="M55.5,2c0-0.3,0.2-0.5,0.5-0.5c0.3,0,0.4,0.2,0.4,0.5H55.5z M56.8,2.7c-0.2,0.1-0.4,0.2-0.7,0.2
		c-0.3,0-0.6-0.2-0.6-0.5h1.4c0-0.7-0.2-1.3-1-1.3c-0.6,0-1,0.5-1,1.1c0,0.7,0.4,1.1,1.1,1.1c0.3,0,0.5-0.1,0.7-0.2V2.7z"/>
	<path class="st1" d="M57,1.1h0.6l0.5,1.5h0l0.4-1.5h0.6l0.5,1.5h0L60,1.1h0.5l-0.6,2.1h-0.6l-0.5-1.6h0l-0.4,1.6h-0.6L57,1.1z"/>
	<path class="st1" d="M62,1.6c-0.2-0.1-0.3-0.1-0.5-0.1c-0.1,0-0.3,0.1-0.3,0.2c0,0.3,0.9,0.1,0.9,0.9c0,0.5-0.4,0.7-0.9,0.7
		c-0.2,0-0.4,0-0.6-0.1l0-0.4c0.2,0.1,0.3,0.1,0.5,0.1c0.1,0,0.4-0.1,0.4-0.3c0-0.4-0.9-0.1-0.9-0.9c0-0.4,0.4-0.6,0.8-0.6
		c0.3,0,0.4,0,0.6,0.1L62,1.6z"/>
</g>
</svg>
