<svg id="圖層_1" data-name="圖層 1" xmlns="http://www.w3.org/2000/svg" viewBox="0 0 156 20"><defs><style>.cls-1{fill:#b3d000;}.cls-2{fill:#00913d;}.cls-3{fill:#00763c;}.cls-4{fill:#9c0e59;}.cls-5{fill:#51af33;}.cls-6{fill:#91c433;}.cls-7{fill:#f9be00;}.cls-8{fill:#ea6118;}.cls-9{fill:#ee8500;}.cls-10{fill:#e95812;}.cls-11{fill:#ec6d22;}.cls-12{fill:#e78400;}.cls-13{fill:#f9bf00;}.cls-14{fill:#e9521a;}.cls-15{fill:#7f104a;}.cls-16{fill:#e40080;}.cls-17{fill:#f5aa00;}.cls-18{fill:#780712;}.cls-19{fill:#790910;}.cls-20{fill:#df0518;}.cls-21{fill:#c61a1a;}.cls-22{fill:#b91221;}.cls-23{fill:#640015;}.cls-24{fill:#ec7026;}.cls-25{fill:#f7c000;}.cls-26{fill:#6f043d;}.cls-27{fill:#f5a600;}.cls-28{fill:#f5a900;}.cls-29{fill:#231815;}</style></defs><title>工作區域 1</title><path class="cls-1" d="M8.2,1a.38.38,0,0,0-.38.38V4.66c0,.21.12.26.27.11L9.58,3.28l.53-.53L11.6,1.27c.15-.15.1-.27-.11-.27Z"/><path class="cls-1" d="M12.15,6.09a.38.38,0,0,0-.37-.37H8.48c-.2,0-.25.12-.11.26L9.86,7.47,10.4,8l1.49,1.49c.14.14.26.09.26-.11Z"/><path class="cls-2" d="M8.2,10.43a.38.38,0,0,0-.38.38v3.28c0,.21.12.26.27.11l1.49-1.48.53-.53L11.6,10.7c.15-.15.1-.27-.11-.27Z"/><path class="cls-3" d="M11.89,18.92c.14.15.26.1.26-.11V15.53a.38.38,0,0,0-.37-.38H8.48c-.2,0-.25.12-.11.27Z"/><path class="cls-4" d="M26.89,15.15a.14.14,0,0,0-.14.14v3.52c0,.21.12.26.26.11l3.52-3.5c.14-.15.1-.27-.11-.27H26.89Z"/><path class="cls-5" d="M10.4,12.47,9.86,13,8.37,14.48c-.14.15-.09.27.11.27h3.3a.38.38,0,0,0,.37-.38V11.09c0-.21-.12-.26-.26-.11Z"/><path class="cls-5" d="M8.09,6.26c-.15-.14-.27-.09-.27.12V9.66A.38.38,0,0,0,8.2,10h3.29c.21,0,.26-.12.11-.26L10.11,8.28l-.53-.53Z"/><path class="cls-6" d="M12.15,1.66c0-.21-.12-.26-.26-.11L10.4,3l-.54.54L8.37,5.05c-.14.15-.09.27.11.27h3.3a.38.38,0,0,0,.37-.38Z"/><path class="cls-7" d="M16.62,4.77c.15.15.27.1.27-.11V1.38A.38.38,0,0,0,16.51,1h-3.3c-.2,0-.25.12-.11.27l1.49,1.48.54.53Z"/><path class="cls-8" d="M12.55,9.38c0,.2.12.25.27.11L14.31,8l.54-.53L16.34,6c.14-.14.09-.26-.11-.26h-3.3a.38.38,0,0,0-.38.37Z"/><path class="cls-9" d="M16.62,14.2c.15.15.27.1.27-.11V10.81a.38.38,0,0,0-.38-.38h-3.3c-.2,0-.25.12-.11.27l1.49,1.49.54.53Z"/><path class="cls-10" d="M12.82,11c-.15-.15-.27-.1-.27.11v3.28a.38.38,0,0,0,.38.38h3.3c.2,0,.25-.12.11-.27L14.85,13l-.54-.53Z"/><path class="cls-11" d="M16.51,10a.38.38,0,0,0,.38-.37V6.38c0-.21-.12-.26-.27-.12L15.13,7.75l-.54.53L13.1,9.77c-.14.14-.09.26.11.26Z"/><path class="cls-12" d="M12.55,18.81c0,.21.12.26.27.11l1.49-1.49.54-.53,1.49-1.48c.14-.15.09-.27-.11-.27h-3.3a.38.38,0,0,0-.38.38Z"/><path class="cls-13" d="M13.1,19.2c-.14.15-.09.27.11.27h3.3a.38.38,0,0,0,.38-.38V15.81c0-.21-.12-.26-.27-.11l-1.49,1.48-.54.54Z"/><path class="cls-13" d="M13.1,19.2l1.49-1.48h0L13.1,19.2"/><path class="cls-12" d="M21.35,18.92c.15.15.27.1.27-.11V15.53a.38.38,0,0,0-.38-.38H18c-.21,0-.26.12-.11.27l1.49,1.48.53.53Z"/><path class="cls-14" d="M17.28,19.09a.38.38,0,0,0,.38.38H21c.2,0,.25-.12.11-.27l-1.49-1.48L19,17.18,17.55,15.7c-.15-.15-.27-.1-.27.11Z"/><path class="cls-15" d="M23.77,17.43l.54-.53,1.49-1.48c.14-.15.09-.27-.11-.27h-3.3a.38.38,0,0,0-.37.38v3.28c0,.21.12.26.26.11Z"/><path class="cls-16" d="M22.57,19.2c-.15.15-.1.27.11.27H26a.38.38,0,0,0,.38-.38V15.81c0-.21-.12-.26-.27-.11l-1.49,1.48-.53.54Z"/><path class="cls-17" d="M12.55,4.94a.38.38,0,0,0,.38.38h3.3c.2,0,.25-.12.11-.27L14.85,3.57,14.31,3,12.82,1.55c-.15-.15-.27-.1-.27.11Z"/><path class="cls-18" d="M26.35,1.38A.38.38,0,0,0,26,1H22.68c-.21,0-.26.12-.11.27l1.49,1.48.53.53,1.49,1.49c.15.15.27.1.27-.11Z"/><path class="cls-19" d="M22.39,5.72a.38.38,0,0,0-.37.37V9.38c0,.2.12.25.26.11L23.77,8l.54-.53L25.8,6c.14-.14.09-.26-.11-.26Z"/><path class="cls-20" d="M26.35,10.81a.38.38,0,0,0-.38-.38H22.68c-.21,0-.26.12-.11.27l1.49,1.49.53.53,1.49,1.48c.15.15.27.1.27-.11Z"/><path class="cls-21" d="M24.31,13l-.54-.53L22.28,11c-.14-.15-.26-.1-.26.11v3.28a.38.38,0,0,0,.37.38h3.3c.2,0,.25-.12.11-.27Z"/><path class="cls-22" d="M26.35,6.38c0-.21-.12-.26-.27-.12L24.59,7.75l-.53.53L22.57,9.77c-.15.14-.1.26.11.26H26a.38.38,0,0,0,.38-.37Z"/><path class="cls-23" d="M22.28,1.55c-.14-.15-.26-.1-.26.11V4.94a.38.38,0,0,0,.37.38h3.3c.2,0,.25-.12.11-.27L24.31,3.57,23.77,3Z"/><path class="cls-24" d="M26.75,4.66c0,.21.12.26.26.11L28.5,3.28,29,2.75l1.49-1.48c.14-.15.1-.27-.11-.27h-3.3a.38.38,0,0,0-.37.38Z"/><path class="cls-7" d="M28.79,7.47l.53.53,1.49,1.49c.15.14.27.09.27-.11V6.09a.38.38,0,0,0-.38-.37H27.41c-.21,0-.26.12-.11.26Z"/><path class="cls-25" d="M28.5,12.72l.54-.53,1.49-1.49c.14-.15.1-.27-.11-.27h-3.3a.38.38,0,0,0-.37.38v3.28c0,.21.12.26.26.11Z"/><path class="cls-26" d="M30.7,14.75a.38.38,0,0,0,.38-.38V11.09c0-.21-.12-.26-.27-.11l-1.49,1.49-.53.53L27.3,14.48c-.15.15-.1.27.11.27Z"/><path class="cls-27" d="M26.75,9.66a.38.38,0,0,0,.37.37h3.3c.21,0,.25-.12.11-.26L29,8.28l-.54-.53L27,6.26c-.14-.14-.26-.09-.26.12Z"/><path class="cls-28" d="M30.7,5.32a.38.38,0,0,0,.38-.38V1.66c0-.21-.12-.26-.27-.11L29.32,3l-.53.54L27.3,5.05c-.15.15-.1.27.11.27Z"/><path class="cls-29" d="M42.31,2.17v0a.41.41,0,0,1-.41.41H34.28a.42.42,0,0,1-.41-.41v0a.41.41,0,0,1,.41-.41H41.9A.41.41,0,0,1,42.31,2.17ZM37.73,9.92a.4.4,0,0,0-.41.4l0,.83a3,3,0,0,1-1.72,2.26.42.42,0,0,1-.51-.1h0a.41.41,0,0,1,.12-.62,3.06,3.06,0,0,0,.48-.32,2.5,2.5,0,0,0,.8-2,.4.4,0,0,0-.41-.43H34.77l-.06.06v8.74a.41.41,0,0,1-.41.41h0a.41.41,0,0,1-.41-.41V9.28c0-.14.06-.2.18-.2h8.24a.18.18,0,0,1,.2.2v8.91a.93.93,0,0,1-.38.78,3.11,3.11,0,0,1-2.17.15.41.41,0,0,1-.34-.4v-.09a.41.41,0,0,1,.5-.4c.69.15,1.14.15,1.33,0a.45.45,0,0,0,.22-.38v-4a.41.41,0,0,0-.41-.41H39.16c-.24,0-.38-.14-.38-.42V10.33a.41.41,0,0,0-.41-.41ZM41.16,7.5H34.53c-.08,0-.12,0-.12-.14V4.7a.53.53,0,0,1,.53-.53h6.63c.1,0,.14,0,.14.12V7A.54.54,0,0,1,41.16,7.5ZM35.29,5l0,0V6.62l0,0h5.54l0,0V5.05l0,0Zm.14,9.8v0a.41.41,0,0,1,.41-.41H40.4a.41.41,0,0,1,.41.41v0a.41.41,0,0,1-.41.41H38.93a.41.41,0,0,0-.41.41V18a.41.41,0,0,1-.41.41h0a.41.41,0,0,1-.41-.41V15.63a.41.41,0,0,0-.41-.41H35.84A.41.41,0,0,1,35.43,14.81Zm5.81-2.22a.41.41,0,0,0,.41-.41V10l-.08-.06H40a.41.41,0,0,0-.41.41V12a.57.57,0,0,0,.57.57Zm2.32,5.81,0-.1a.42.42,0,0,1,.33-.5l2.39-.39a.41.41,0,0,0,.35-.4V13.18a.41.41,0,0,0-.41-.41H43.93c-.08,0-.12,0-.12-.14V4.1a.5.5,0,0,1,.5-.51h1.88a.41.41,0,0,0,.41-.41V1.77A.41.41,0,0,1,47,1.36h.1a.41.41,0,0,1,.41.41V3.18a.41.41,0,0,0,.41.41h2.42c.1,0,.14,0,.14.1v8.53a.55.55,0,0,1-.55.55h-2a.41.41,0,0,0-.41.41v3.53a.41.41,0,0,0,.47.41l1.45-.25a.42.42,0,0,0,.33-.52c-.11-.4-.23-.77-.35-1.09a.41.41,0,0,1,.27-.53l.1,0a.4.4,0,0,1,.5.23,21,21,0,0,1,1,3.66.41.41,0,0,1-.29.48l-.12,0a.42.42,0,0,1-.51-.31l-.16-.72a.4.4,0,0,0-.46-.31L44,18.71A.41.41,0,0,1,43.56,18.4Zm3-13.5a.41.41,0,0,0-.41-.41H44.76l0,0v7.26l0,.06h1.43a.41.41,0,0,0,.41-.41Zm.92,6.54a.41.41,0,0,0,.41.41h1.58l.06-.06V4.53l-.06,0H47.93a.41.41,0,0,0-.41.41Z"/><path class="cls-29" d="M53.19,12a.57.57,0,0,1-.12-.66,37.56,37.56,0,0,0,1.48-5.44.44.44,0,0,0-.44-.54h-1a.45.45,0,0,1-.45-.45h0a.45.45,0,0,1,.45-.45h1.27a.44.44,0,0,0,.45-.39l.32-2.28a.45.45,0,0,1,.52-.38h0a.46.46,0,0,1,.37.51l-.29,2a.45.45,0,0,0,.45.51h2.37c.14,0,.2.08.16.28v0a26.08,26.08,0,0,1-1.73,9.06.46.46,0,0,0,.12.51l1.15,1a.45.45,0,0,1,.08.59h0a.46.46,0,0,1-.67.09L57,15.34a.45.45,0,0,0-.68.1,16.36,16.36,0,0,1-2.64,3.2.44.44,0,0,1-.56.05h0A.45.45,0,0,1,53,18a14.75,14.75,0,0,0,2-2.18v0l.65-1.07a.45.45,0,0,0-.08-.57Zm4.25-6.64H56a.45.45,0,0,0-.44.36,54.78,54.78,0,0,1-1.46,5.66c0,.1,0,.2.13.3l2.08,1.86.14-.34a18.88,18.88,0,0,0,1-3.37,31.33,31.33,0,0,0,.47-4A.46.46,0,0,0,57.44,5.35ZM58.93,12v0a.45.45,0,0,1,.45-.45h4.53a.45.45,0,0,0,.45-.45v-1a.45.45,0,0,0-.45-.45H61.13a.41.41,0,0,1-.44-.46V4.08a.45.45,0,0,0-.45-.45h-1.1a.45.45,0,0,1-.45-.45h0a.45.45,0,0,1,.45-.44h1.1a.45.45,0,0,0,.45-.45V1.45A.45.45,0,0,1,61.14,1h0a.45.45,0,0,1,.44.45v.84a.46.46,0,0,0,.45.45H67.4a.45.45,0,0,0,.45-.45V1.45A.45.45,0,0,1,68.3,1h0a.45.45,0,0,1,.45.45v.84a.45.45,0,0,0,.44.45h1.22a.45.45,0,0,1,.45.44h0a.45.45,0,0,1-.45.45H69.21a.45.45,0,0,0-.44.45V8.73a.91.91,0,0,1-.91.91H65.7a.45.45,0,0,0-.45.45v1a.45.45,0,0,0,.45.45h4.65a.45.45,0,0,1,.45.45v0a.45.45,0,0,1-.45.45H66.14a.28.28,0,0,0-.23.43,18.82,18.82,0,0,0,4.78,4.44.44.44,0,0,1,.06.7h0a.45.45,0,0,1-.55,0A22.06,22.06,0,0,1,65.64,14a.22.22,0,0,0-.39.13v4.84a.45.45,0,0,1-.44.45h0a.45.45,0,0,1-.45-.45V14.05a.22.22,0,0,0-.38-.14,18.64,18.64,0,0,1-5.25,4.36.45.45,0,0,1-.55-.11l0,0a.45.45,0,0,1,.12-.68,19.15,19.15,0,0,0,5.39-4.55.27.27,0,0,0-.21-.45H59.38A.45.45,0,0,1,58.93,12ZM67.4,3.63H62.05a.45.45,0,0,0-.45.45V5.32a.45.45,0,0,0,.45.45H67.4a.45.45,0,0,0,.45-.45V4.08A.45.45,0,0,0,67.4,3.63ZM61.6,8.11a.61.61,0,0,0,.61.61h5a.61.61,0,0,0,.61-.61v-1a.45.45,0,0,0-.45-.45H62.05a.46.46,0,0,0-.45.45Z"/><path class="cls-29" d="M73.11,2.41a.77.77,0,0,1,.77-.77h4a.79.79,0,0,1,.79.79v3.9a.46.46,0,0,0,.46.45h.28c.14,0,.18.1.18.3a14,14,0,0,1-.23,2,.45.45,0,0,1-.55.35h0A.47.47,0,0,1,78.36,9l.09-1.14q0-.12-.12-.12H73.78a.54.54,0,0,0-.53.54v.82a.47.47,0,0,1-.46.46h0a.46.46,0,0,1-.46-.46V6.94c0-.1.06-.16.18-.16h.14a.46.46,0,0,0,.46-.45Zm.94,16.64h0a.45.45,0,0,1-.45-.46V9.93a.65.65,0,0,1,.65-.65h3.83c.16,0,.24.08.24.2v8.59a1,1,0,0,1-.44.86,2.09,2.09,0,0,1-1.5.07.46.46,0,0,1-.37-.45h0a.46.46,0,0,1,.58-.44c.27.08.47.09.56,0a.47.47,0,0,0,.26-.42V16.18a.46.46,0,0,0-.46-.46H75a.46.46,0,0,0-.46.46v2.41A.45.45,0,0,1,74.05,19.05Zm.79-12.27a.45.45,0,0,0,.46-.45V4c0-.14.06-.2.18-.2h1.78a.45.45,0,0,0,.45-.45V3.15a.58.58,0,0,0-.59-.59h-2.5a.58.58,0,0,0-.59.59V6.33a.45.45,0,0,0,.45.45Zm2.1,5.29a.46.46,0,0,0,.46-.46V10.25l-.08-.06H74.54l0,.06v1.36a.46.46,0,0,0,.46.46Zm.46,2.28v-.91a.46.46,0,0,0-.46-.45H75a.46.46,0,0,0-.46.45v.91a.46.46,0,0,0,.46.45h2A.46.46,0,0,0,77.4,14.35Zm.31-8V5.19a.45.45,0,0,0-.45-.46H76.8a.58.58,0,0,0-.58.58v1a.45.45,0,0,0,.46.45h.58A.45.45,0,0,0,77.71,6.33Zm4.5,9.56a.45.45,0,0,0-.41-.25h-.93c-.08,0-.12,0-.12-.14V12.73a.57.57,0,0,1,.57-.58h7.6c.1,0,.14,0,.14.12V15a.59.59,0,0,1-.59.6h-.3a.45.45,0,0,0-.43.3l-.33.92-.17.44a.46.46,0,0,0,.43.61h1.87a.46.46,0,0,1,.46.46h0a.45.45,0,0,1-.46.46H80.23a.45.45,0,0,1-.46-.46h0a.46.46,0,0,1,.46-.46h2.14a.45.45,0,0,0,.43-.61A15.24,15.24,0,0,0,82.21,15.89Zm7.87-5.54h0a.45.45,0,0,1-.46.45H80.31a.45.45,0,0,1-.46-.45h0a.45.45,0,0,1,.46-.45h9.31A.45.45,0,0,1,90.08,10.35ZM89,2.42A.57.57,0,0,1,89.6,3V8.42c0,.1,0,.14-.12.14h-9c-.08,0-.1,0-.1-.14V3a.57.57,0,0,1,.57-.57h1.68A.46.46,0,0,0,83.08,2v-.3a.45.45,0,0,1,.46-.46h0a.46.46,0,0,1,.46.46V2a.46.46,0,0,0,.45.46h.83A.46.46,0,0,0,85.73,2v-.3a.46.46,0,0,1,.46-.46h0a.45.45,0,0,1,.46.46V2a.47.47,0,0,0,.46.46Zm-6,1.16a.25.25,0,0,0-.25-.25H81.31l0,0V4.74a.25.25,0,0,0,.24.25h1.32a.25.25,0,0,0,.25-.25Zm-.25,2.33H81.51a.25.25,0,0,0-.24.25V7.58l0,.06h1.52a.25.25,0,0,0,.25-.25V6.16A.25.25,0,0,0,82.83,5.91ZM81.7,13.07l0,0v1.55l0,.06h6.39l.06-.06V13.11l-.06,0Zm4.44,4.55.52-1.36a.46.46,0,0,0-.43-.62H83.74a.46.46,0,0,0-.43.63l.55,1.36a.46.46,0,0,0,.43.28h1.43A.43.43,0,0,0,86.14,17.62ZM85.48,3.33H84.25a.25.25,0,0,0-.25.25V4.74a.25.25,0,0,0,.25.25h1.23a.25.25,0,0,0,.25-.25V3.58A.25.25,0,0,0,85.48,3.33Zm0,2.58H84.25a.25.25,0,0,0-.25.25V7.39a.25.25,0,0,0,.25.25h1.23a.25.25,0,0,0,.25-.25V6.16A.25.25,0,0,0,85.48,5.91ZM86.9,5h1.56a.25.25,0,0,0,.25-.25V3.37l-.06,0H86.9a.25.25,0,0,0-.25.25V4.74A.25.25,0,0,0,86.9,5Zm-.25,2.4a.25.25,0,0,0,.25.25h1.75l.06-.06V6.16a.25.25,0,0,0-.25-.25H86.9a.25.25,0,0,0-.25.25Z"/><path class="cls-29" d="M93.1,14.34l-.54-.15a.44.44,0,0,1-.31-.48l.43-3.36c0-.19.14-.31.32-.29h3.73a.6.6,0,0,0,.6-.6V8c0-.08,0-.12-.12-.12H92.64V7.52l-1.18.25A.42.42,0,0,1,91,7.56v0a.43.43,0,0,1,.29-.64,15.22,15.22,0,0,0,2.49-.71L94.34,6C93.65,5.34,93,4.8,92.4,4.36a.44.44,0,0,1-.07-.63h0a.44.44,0,0,1,.6-.07,24.21,24.21,0,0,1,2.24,1.83l0,0A8.94,8.94,0,0,0,97.38,3.5.44.44,0,0,0,97,2.79H94.24a.43.43,0,0,1-.44-.43v0a.43.43,0,0,1,.44-.44h4.17a.46.46,0,0,1,.3.11l.18.17a.43.43,0,0,1,.11.5A8.19,8.19,0,0,1,95.6,6.3a.34.34,0,0,0,.17.64h1.82a.67.67,0,0,1,.66.66v3.13c0,.16-.08.24-.22.24H93.7c-.12,0-.18.08-.2.2l-.19,1.34a.44.44,0,0,0,.43.5h4.05c.18,0,.28.08.26.22,0,2.89-.4,4.6-1,5.12s-1.89.63-3.94.26a.44.44,0,0,1-.36-.39v0a.44.44,0,0,1,.51-.47,11.89,11.89,0,0,0,2.47.17,1.12,1.12,0,0,0,.9-.45A10.72,10.72,0,0,0,97.19,14c0-.06,0-.08-.14-.08h-4Zm5.69,4.44,0-.07a.44.44,0,0,1,.25-.64,17.63,17.63,0,0,0,2.92-1.15.44.44,0,0,0,.11-.72,8.85,8.85,0,0,1-1.51-1.92.45.45,0,0,1,.2-.63l0,0a.43.43,0,0,1,.56.17,9.93,9.93,0,0,0,1.73,2.09.44.44,0,0,0,.55,0,8.31,8.31,0,0,0,2.14-2.35.44.44,0,0,0-.38-.66H99.72a.44.44,0,0,1-.44-.44v0a.44.44,0,0,1,.44-.44h6.81a.42.42,0,0,1,.3.12l.21.2a.46.46,0,0,1,.11.47,8.37,8.37,0,0,1-2.44,3.44.43.43,0,0,0,.11.73,13.88,13.88,0,0,0,3.24.85.43.43,0,0,1,.35.57l0,.07a.45.45,0,0,1-.46.3,11,11,0,0,1-4.37-1.41.43.43,0,0,0-.45,0A12.19,12.19,0,0,1,99.25,19,.45.45,0,0,1,98.79,18.78Zm2.67-11.12v.88a2.19,2.19,0,0,1-.24,1,3.06,3.06,0,0,1-1.45,1.32.46.46,0,0,1-.59-.17l-.05-.09a.45.45,0,0,1,.2-.62,1.94,1.94,0,0,0,.55-.32,1.64,1.64,0,0,0,.66-1.44V6.82l.06-.14.12-.06h4.33l.14,0,.08.16V9.46l.06.32a.62.62,0,0,0,.36.12h.91l.28-.08c.08,0,.12-.16.14-.36l0-.36a.44.44,0,0,1,.51-.38h0a.43.43,0,0,1,.35.48c-.09.77-.22,1.22-.36,1.32a1,1,0,0,1-.62.28h-1.67a1,1,0,0,1-.66-.26.78.78,0,0,1-.28-.65V7.68c0-.1-.06-.14-.16-.14h-2.63C101.5,7.54,101.46,7.58,101.46,7.66Zm7.15-.26,0,0a.45.45,0,0,1-.53.14,23.91,23.91,0,0,1-7.3-4.84.45.45,0,0,1-.06-.56l0,0a.45.45,0,0,1,.68-.07l.84.83a.44.44,0,0,0,.61,0,16.21,16.21,0,0,0,1.25-1.28.43.43,0,0,1,.64,0l0,0a.44.44,0,0,1,0,.6,15,15,0,0,1-1.19,1.23.44.44,0,0,0,0,.67c.25.2.5.38.74.54a.45.45,0,0,0,.55,0c.51-.5.92-1,1.26-1.35a.43.43,0,0,1,.63,0l0,0a.44.44,0,0,1,0,.6,13.07,13.07,0,0,1-1,1.06.44.44,0,0,0,.1.7c.71.37,1.5.74,2.39,1.11A.44.44,0,0,1,108.61,7.4Z"/><path class="cls-29" d="M125.91,13.83h0a.44.44,0,0,1-.15.6,20.59,20.59,0,0,1-2.51,1.35.46.46,0,0,0,0,.82A16,16,0,0,0,126.87,18a.45.45,0,0,1,.3.63l-.15.34-.2,0c-4.11-.8-6.94-2.92-8.5-6.33a.47.47,0,0,0-.41-.27h-1.67a.45.45,0,0,0-.45.45v4.62a.45.45,0,0,0,.53.45,22.23,22.23,0,0,0,2.62-.57.46.46,0,0,1,.56.33h0a.46.46,0,0,1-.31.56,33,33,0,0,1-6.11,1,.47.47,0,0,1-.5-.43v0a.46.46,0,0,1,.42-.48l1.46-.14a.46.46,0,0,0,.41-.45V12.74a.46.46,0,0,0-.46-.45h-2.29a.45.45,0,0,0-.45.42,15.07,15.07,0,0,1-.57,3.11,9.26,9.26,0,0,1-.81,2.23.46.46,0,0,1-.61.18l-.08,0a.45.45,0,0,1-.19-.62,13.93,13.93,0,0,0,1.41-6.46V2.2a.29.29,0,0,1,.32-.32h15.18c.26,0,.38.1.38.34V5.15a.85.85,0,0,1-.84.84h-2.7a.45.45,0,0,0-.45.45V7.8a.45.45,0,0,0,.45.46h3.16a.46.46,0,0,1,.46.46h0a.47.47,0,0,1-.46.46h-3.16a.45.45,0,0,0-.45.45v1.29a.45.45,0,0,0,.45.45h3.94a.46.46,0,0,1,.45.46h0a.45.45,0,0,1-.45.46H120a.46.46,0,0,0-.4.68,9.61,9.61,0,0,0,1.8,2.34.46.46,0,0,0,.49.08,25.56,25.56,0,0,0,3.42-1.73A.46.46,0,0,1,125.91,13.83ZM112.19,5.07h13a.62.62,0,0,0,.62-.62V3.37a.58.58,0,0,0-.58-.58H111.86c-.08,0-.12,0-.12.12v1.7A.46.46,0,0,0,112.19,5.07ZM116,10.92V9.63a.46.46,0,0,0-.46-.45h-2.24a.47.47,0,0,1-.46-.46h0a.46.46,0,0,1,.46-.46h2.24A.46.46,0,0,0,116,7.8V6.44a.46.46,0,0,0-.46-.45h-3.3a.45.45,0,0,0-.45.45v4.48a.45.45,0,0,0,.45.45h3.3A.46.46,0,0,0,116,10.92ZM121.33,6h-4a.46.46,0,0,0-.46.45V7.8a.46.46,0,0,0,.46.46h4a.45.45,0,0,0,.46-.46V6.44A.45.45,0,0,0,121.33,6Zm.46,4.93V9.63a.45.45,0,0,0-.46-.45h-4a.46.46,0,0,0-.46.45v1.29a.46.46,0,0,0,.46.45h4A.45.45,0,0,0,121.79,10.92Z"/><path class="cls-29" d="M136.48,4.54h0a.44.44,0,0,1,.27.56c-.47,1.38-.87,2.49-1.21,3.32A.45.45,0,0,0,136,9h2.15a.45.45,0,0,1,.44.45v0a.45.45,0,0,1-.44.45h-9.34a.45.45,0,0,1-.45-.45v0a.45.45,0,0,1,.45-.45H134a.45.45,0,0,0,.41-.27,41.55,41.55,0,0,0,1.48-3.95A.45.45,0,0,1,136.48,4.54Zm-3.15-3.18h0a.45.45,0,0,1,.45.45v.48a.45.45,0,0,0,.45.45h3.31a.45.45,0,0,1,.45.44h0a.45.45,0,0,1-.45.45h-8.24a.45.45,0,0,1-.45-.45h0a.45.45,0,0,1,.45-.44h3.11a.45.45,0,0,0,.45-.45V1.81A.45.45,0,0,1,133.33,1.36Zm-3.25,17.83h0a.45.45,0,0,1-.45-.45V12.23c0-.22.1-.3.3-.3h6.69a.79.79,0,0,1,.79.79v6a.45.45,0,0,1-.45.45h0a.45.45,0,0,1-.45-.45v-.48a.45.45,0,0,0-.45-.45h-5a.45.45,0,0,0-.45.45v.48A.45.45,0,0,1,130.08,19.19Zm.72-14.36a29.5,29.5,0,0,1,1,3,.46.46,0,0,1-.33.55h0a.45.45,0,0,1-.54-.32q-.37-1.38-1-2.91a.44.44,0,0,1,.28-.59h0A.44.44,0,0,1,130.8,4.83ZM136,16.92a.45.45,0,0,0,.45-.45V13c0-.08,0-.12-.14-.12h-5.66c-.1,0-.16,0-.14.14v3.5a.45.45,0,0,0,.45.45Zm5-14.13a.57.57,0,0,0-.57.57V18.68a.45.45,0,0,1-.45.45h0a.45.45,0,0,1-.45-.45V2a.14.14,0,0,1,.16-.14h5.43a.42.42,0,0,1,.28.1l.22.18a.47.47,0,0,1,.15.48L144,8.22a.5.5,0,0,0,0,.38,14,14,0,0,1,2,3.13v0a5.32,5.32,0,0,1,0,4.33A2.39,2.39,0,0,1,145,17.16a3,3,0,0,1-1.2.26,5.84,5.84,0,0,1-1.72-.4.46.46,0,0,1-.31-.46v-.09a.46.46,0,0,1,.6-.39,3.53,3.53,0,0,0,2.16.24c.87-.32,1.21-1.34,1.08-3,0,0,0-.05,0-.08a12.58,12.58,0,0,0-2.55-4.53.35.35,0,0,1-.08-.38l1.59-4.94a.45.45,0,0,0-.43-.59Z"/></svg>