<?xml version="1.0" encoding="utf-8"?>
<!-- Generator: Adobe Illustrator 19.1.0, SVG Export Plug-In . SVG Version: 6.00 Build 0)  -->
<svg version="1.1" id="圖層_1" xmlns="http://www.w3.org/2000/svg" xmlns:xlink="http://www.w3.org/1999/xlink" x="0px" y="0px"
	 viewBox="0 0 150.1 31.3" style="enable-background:new 0 0 150.1 31.3;" xml:space="preserve">
<style type="text/css">
	.st0{fill:#EEEEEF;}
	.st1{fill:#F7F7F7;}
	.st2{fill:#FFFFFF;}
	.st3{fill:url(#SVGID_13_);}
	.st4{fill:#182987;}
	.st5{fill:none;stroke:#182987;stroke-miterlimit:10;}
	.st6{fill:url(#SVGID_14_);}
	.st7{fill:url(#SVGID_15_);}
	.st8{fill:url(#SVGID_16_);}
	.st9{fill:url(#SVGID_21_);}
	.st10{fill:url(#SVGID_22_);}
	.st11{fill:url(#SVGID_23_);}
	.st12{fill:url(#SVGID_24_);}
	.st13{fill:url(#SVGID_27_);}
	.st14{fill:url(#SVGID_28_);}
	.st15{fill:url(#SVGID_29_);}
	.st16{fill:none;stroke:#3E3A39;stroke-miterlimit:10;}
	.st17{fill:url(#SVGID_30_);}
	.st18{fill:none;stroke:#182987;stroke-width:5;stroke-miterlimit:10;}
	.st19{fill:url(#SVGID_31_);}
	.st20{fill:url(#SVGID_32_);}
	.st21{fill:url(#SVGID_33_);}
	.st22{fill:url(#SVGID_34_);}
	.st23{fill:url(#SVGID_35_);}
	.st24{fill:url(#SVGID_36_);}
	.st25{fill:none;stroke:url(#SVGID_37_);stroke-width:2;stroke-miterlimit:10;}
	.st26{fill:none;stroke:url(#SVGID_38_);stroke-width:2;stroke-miterlimit:10;}
	.st27{fill:none;stroke:url(#SVGID_39_);stroke-width:2;stroke-miterlimit:10;}
	.st28{fill:none;stroke:url(#SVGID_40_);stroke-width:2;stroke-miterlimit:10;}
	.st29{fill:url(#SVGID_41_);}
	.st30{fill:url(#SVGID_42_);}
	.st31{fill:url(#SVGID_43_);}
	.st32{fill:url(#SVGID_44_);}
	.st33{fill:url(#SVGID_45_);}
	.st34{fill:url(#SVGID_46_);}
	.st35{fill:url(#SVGID_47_);}
	.st36{fill:url(#SVGID_48_);}
	.st37{fill:url(#SVGID_49_);}
	.st38{fill:url(#SVGID_50_);}
	.st39{fill:none;stroke:#231815;stroke-width:0.25;stroke-miterlimit:10;}
	.st40{fill:none;stroke:url(#SVGID_51_);stroke-width:8;stroke-miterlimit:10;}
	.st41{clip-path:url(#SVGID_53_);}
	.st42{clip-path:url(#SVGID_55_);}
	.st43{fill:url(#SVGID_56_);}
	.st44{fill:url(#SVGID_57_);}
	.st45{fill:url(#SVGID_58_);}
	.st46{fill:none;stroke:url(#SVGID_59_);stroke-width:3;stroke-miterlimit:10;stroke-dasharray:11.9991,11.9991;}
	.st47{fill:url(#SVGID_60_);}
	.st48{clip-path:url(#SVGID_64_);}
	.st49{fill:url(#SVGID_65_);}
	.st50{clip-path:url(#SVGID_67_);fill:url(#SVGID_68_);}
	.st51{fill:#3E3A39;}
	.st52{fill:#DBDCDC;}
	.st53{fill:url(#SVGID_75_);}
	.st54{fill:url(#SVGID_76_);}
	.st55{fill:url(#SVGID_77_);}
	.st56{fill:url(#SVGID_78_);}
	.st57{fill:url(#SVGID_79_);}
	.st58{fill:none;stroke:url(#SVGID_80_);stroke-width:2;stroke-miterlimit:10;}
	.st59{fill:none;stroke:url(#SVGID_81_);stroke-width:2;stroke-miterlimit:10;}
	.st60{fill:url(#SVGID_82_);}
	.st61{fill:url(#SVGID_83_);}
	.st62{fill:url(#SVGID_84_);}
	.st63{fill:url(#SVGID_85_);}
	.st64{fill:url(#SVGID_86_);}
	.st65{fill:url(#SVGID_87_);}
	.st66{fill:url(#SVGID_88_);}
	.st67{fill:url(#SVGID_89_);}
	.st68{fill:url(#SVGID_90_);}
	.st69{fill:url(#SVGID_91_);}
	.st70{fill:url(#SVGID_92_);}
	.st71{fill:url(#SVGID_93_);}
	.st72{clip-path:url(#SVGID_101_);}
	.st73{fill:url(#SVGID_106_);}
	.st74{fill:#FFFFFF;stroke:#231815;stroke-miterlimit:10;}
	.st75{fill:url(#SVGID_107_);}
	.st76{fill:url(#SVGID_108_);}
	.st77{fill:url(#SVGID_109_);}
	.st78{fill:url(#SVGID_110_);}
	.st79{fill:url(#SVGID_111_);}
	.st80{fill:none;stroke:url(#SVGID_112_);stroke-width:8;stroke-miterlimit:10;}
	.st81{fill:url(#SVGID_113_);}
	.st82{fill:none;stroke:url(#SVGID_114_);stroke-width:3;stroke-miterlimit:10;}
	.st83{fill:none;stroke:url(#SVGID_115_);stroke-width:3;stroke-miterlimit:10;}
	.st84{fill:none;stroke:url(#SVGID_116_);stroke-width:3;stroke-miterlimit:10;}
	.st85{fill:none;stroke:url(#SVGID_117_);stroke-width:3;stroke-miterlimit:10;}
	.st86{fill:url(#SVGID_118_);}
	.st87{fill:url(#SVGID_119_);}
	.st88{fill:url(#SVGID_120_);}
	.st89{clip-path:url(#SVGID_122_);}
	.st90{fill:url(#SVGID_123_);}
	.st91{fill:url(#SVGID_124_);}
	.st92{fill:url(#SVGID_125_);}
	.st93{fill:url(#SVGID_126_);}
	.st94{fill:url(#SVGID_127_);}
	.st95{fill:url(#SVGID_128_);}
	.st96{fill:url(#SVGID_129_);}
	.st97{fill:url(#SVGID_130_);}
	.st98{fill:url(#SVGID_131_);}
	.st99{fill:url(#SVGID_132_);}
	.st100{fill:url(#SVGID_133_);}
	.st101{fill:#E76A0F;}
	.st102{fill:#040000;}
	.st103{fill:#365288;stroke:#231815;stroke-miterlimit:10;}
	.st104{fill:url(#SVGID_136_);}
	.st105{fill:url(#SVGID_139_);}
	.st106{fill:url(#SVGID_142_);}
	.st107{fill:url(#SVGID_143_);}
	.st108{fill:url(#SVGID_144_);}
	.st109{fill:url(#SVGID_145_);}
	.st110{fill:url(#SVGID_146_);}
	.st111{fill:url(#SVGID_147_);}
	.st112{fill:none;stroke:url(#SVGID_148_);stroke-width:2;stroke-miterlimit:10;}
	.st113{fill:none;stroke:url(#SVGID_149_);stroke-width:2;stroke-miterlimit:10;}
	.st114{fill:none;stroke:url(#SVGID_150_);stroke-width:2;stroke-miterlimit:10;}
	.st115{fill:none;stroke:url(#SVGID_151_);stroke-width:2;stroke-miterlimit:10;}
	.st116{fill:url(#SVGID_152_);}
	.st117{fill:none;stroke:url(#SVGID_153_);stroke-miterlimit:10;}
	.st118{fill:url(#SVGID_154_);}
	.st119{fill:url(#SVGID_155_);}
	.st120{fill:url(#SVGID_158_);}
	.st121{fill:none;stroke:#182987;stroke-width:4;stroke-miterlimit:10;}
	.st122{fill:url(#SVGID_159_);}
	.st123{fill:#888888;}
	.st124{fill:none;stroke:#9E9E9F;stroke-miterlimit:10;}
	.st125{fill:url(#SVGID_164_);}
	.st126{fill:url(#SVGID_165_);}
	.st127{fill:url(#SVGID_166_);}
	.st128{fill:url(#SVGID_167_);}
	.st129{fill:url(#SVGID_168_);}
	.st130{fill:url(#SVGID_169_);}
	.st131{fill:url(#SVGID_172_);}
	.st132{fill:url(#SVGID_173_);}
	.st133{fill:url(#SVGID_174_);}
	.st134{fill:url(#SVGID_187_);}
	.st135{fill:url(#SVGID_192_);}
	.st136{fill:url(#SVGID_197_);}
	.st137{fill:url(#SVGID_198_);}
	.st138{fill:url(#SVGID_199_);}
	.st139{fill:url(#SVGID_200_);}
	.st140{fill:url(#SVGID_201_);}
	.st141{fill:url(#SVGID_202_);}
	.st142{fill:url(#SVGID_203_);}
	.st143{fill:url(#SVGID_204_);}
	.st144{fill:url(#SVGID_205_);}
	.st145{fill:url(#SVGID_206_);}
	.st146{fill:url(#SVGID_207_);}
	.st147{fill:url(#SVGID_208_);}
	.st148{fill:url(#SVGID_209_);}
	.st149{fill:url(#SVGID_210_);}
	.st150{fill:url(#SVGID_211_);}
	.st151{fill:url(#SVGID_212_);}
	.st152{fill:none;stroke:url(#SVGID_213_);stroke-width:3;stroke-miterlimit:10;}
	.st153{fill:url(#SVGID_214_);}
	.st154{fill:url(#SVGID_215_);}
	.st155{fill:none;stroke:url(#SVGID_216_);stroke-width:3;stroke-miterlimit:10;}
	.st156{fill:none;stroke:url(#SVGID_217_);stroke-width:3;stroke-miterlimit:10;}
	.st157{fill:none;stroke:url(#SVGID_218_);stroke-width:3;stroke-miterlimit:10;}
	.st158{fill:url(#SVGID_219_);}
	.st159{fill:url(#SVGID_220_);}
	.st160{fill:none;stroke:url(#SVGID_221_);stroke-width:3;stroke-miterlimit:10;}
	.st161{fill:url(#SVGID_222_);}
	.st162{fill:none;stroke:#182987;stroke-width:3;stroke-miterlimit:10;}
	.st163{clip-path:url(#SVGID_224_);fill:url(#SVGID_225_);}
	.st164{clip-path:url(#SVGID_227_);fill:url(#SVGID_228_);}
	.st165{fill:url(#SVGID_229_);}
	.st166{fill:#365288;}
	.st167{fill:url(#SVGID_234_);}
	.st168{fill:url(#SVGID_237_);}
	.st169{fill:none;stroke:#E73828;stroke-width:5;stroke-miterlimit:10;}
	.st170{fill:url(#SVGID_240_);}
	.st171{fill:url(#SVGID_241_);}
	.st172{fill:url(#SVGID_242_);}
	.st173{fill:url(#SVGID_245_);}
	.st174{fill:url(#SVGID_248_);}
	.st175{fill:url(#SVGID_251_);}
	.st176{fill:url(#SVGID_254_);}
	.st177{clip-path:url(#SVGID_256_);}
	.st178{fill:url(#SVGID_259_);}
	.st179{clip-path:url(#SVGID_261_);}
	.st180{fill:url(#SVGID_264_);}
	.st181{clip-path:url(#SVGID_266_);}
	.st182{fill:url(#SVGID_269_);}
	.st183{fill:url(#SVGID_270_);}
	.st184{fill:none;stroke:url(#SVGID_271_);stroke-width:3;stroke-miterlimit:10;}
	.st185{fill:none;stroke:url(#SVGID_272_);stroke-width:3;stroke-miterlimit:10;}
	.st186{fill:none;stroke:url(#SVGID_273_);stroke-width:1.6;stroke-miterlimit:10;}
	.st187{fill:none;stroke:url(#SVGID_274_);stroke-width:1.6;stroke-miterlimit:10;}
	.st188{fill:none;stroke:url(#SVGID_275_);stroke-width:1.6;stroke-miterlimit:10;}
	.st189{fill:none;stroke:url(#SVGID_276_);stroke-width:1.6;stroke-miterlimit:10;}
	.st190{fill:none;stroke:url(#SVGID_277_);stroke-width:1.6;stroke-miterlimit:10;}
	.st191{fill:none;stroke:url(#SVGID_278_);stroke-width:1.6;stroke-miterlimit:10;}
	.st192{fill:none;stroke:url(#SVGID_279_);stroke-width:1.6;stroke-miterlimit:10;}
	.st193{fill:none;stroke:url(#SVGID_280_);stroke-width:1.6;stroke-miterlimit:10;}
	.st194{fill:none;stroke:url(#SVGID_281_);stroke-width:2;stroke-miterlimit:10;}
	.st195{fill:none;stroke:url(#SVGID_282_);stroke-width:2;stroke-miterlimit:10;}
	.st196{fill:none;stroke:url(#SVGID_283_);stroke-width:2;stroke-miterlimit:10;}
	.st197{fill:none;stroke:url(#SVGID_284_);stroke-width:2;stroke-miterlimit:10;}
	.st198{fill:none;stroke:url(#SVGID_285_);stroke-width:2;stroke-miterlimit:10;}
	.st199{fill:none;stroke:url(#SVGID_286_);stroke-width:2;stroke-miterlimit:10;}
	.st200{fill:url(#SVGID_287_);}
	.st201{fill:url(#SVGID_288_);}
	.st202{fill:url(#SVGID_289_);}
	.st203{fill:url(#SVGID_290_);}
	.st204{fill:none;stroke:url(#SVGID_291_);stroke-width:3;stroke-miterlimit:10;}
	.st205{fill:url(#SVGID_292_);}
	.st206{fill:url(#SVGID_293_);}
	.st207{fill:none;stroke:url(#SVGID_294_);stroke-width:3;stroke-miterlimit:10;}
	.st208{fill:none;stroke:url(#SVGID_295_);stroke-width:3;stroke-miterlimit:10;}
	.st209{fill:none;stroke:url(#SVGID_296_);stroke-width:3;stroke-miterlimit:10;}
	.st210{fill:url(#SVGID_297_);}
	.st211{fill:url(#SVGID_298_);}
	.st212{fill:none;stroke:url(#SVGID_299_);stroke-width:3;stroke-miterlimit:10;}
	.st213{fill:url(#SVGID_300_);}
	.st214{fill:url(#SVGID_301_);}
	.st215{fill:url(#SVGID_302_);}
	.st216{fill:url(#SVGID_303_);}
	.st217{fill:url(#SVGID_304_);}
	.st218{fill:url(#SVGID_305_);}
	.st219{fill:url(#SVGID_306_);}
	.st220{fill:url(#SVGID_307_);}
	.st221{fill:url(#SVGID_308_);stroke:#FFFFFF;stroke-miterlimit:10;}
	.st222{fill:none;stroke:url(#SVGID_309_);stroke-miterlimit:10;}
	.st223{fill:url(#SVGID_310_);}
	.st224{fill:url(#SVGID_311_);}
	.st225{fill:url(#SVGID_312_);}
	.st226{fill:url(#SVGID_313_);}
	.st227{fill:url(#SVGID_314_);}
	.st228{fill:url(#SVGID_315_);}
	.st229{fill:url(#SVGID_316_);}
	.st230{fill:url(#SVGID_317_);}
	.st231{fill:none;stroke:#182987;stroke-width:2;stroke-miterlimit:10;}
	.st232{fill:url(#SVGID_318_);}
	.st233{fill:url(#SVGID_319_);}
	.st234{fill:url(#SVGID_320_);}
	.st235{fill:url(#SVGID_321_);}
	.st236{fill:url(#SVGID_322_);}
	.st237{fill:url(#SVGID_323_);}
	.st238{fill:url(#SVGID_324_);}
	.st239{fill:url(#SVGID_325_);}
	.st240{fill:url(#SVGID_326_);}
	.st241{opacity:0.95;}
	.st242{fill:none;stroke:#FFFFFF;stroke-width:3;stroke-miterlimit:10;}
	.st243{fill:url(#SVGID_327_);}
	.st244{fill:none;stroke:#231815;stroke-width:2;stroke-miterlimit:10;}
	.st245{fill:none;stroke:url(#SVGID_328_);stroke-width:2;stroke-miterlimit:10;}
	.st246{fill:none;stroke:url(#SVGID_329_);stroke-width:2;stroke-miterlimit:10;}
	.st247{fill:url(#SVGID_330_);}
	.st248{fill:none;stroke:url(#SVGID_331_);stroke-width:2;stroke-miterlimit:10;}
	.st249{fill:none;stroke:url(#SVGID_332_);stroke-width:2;stroke-miterlimit:10;}
	.st250{fill:none;stroke:url(#SVGID_333_);stroke-width:2;stroke-miterlimit:10;}
	.st251{fill:none;stroke:url(#SVGID_334_);stroke-width:2;stroke-miterlimit:10;}
	.st252{fill:none;stroke:url(#SVGID_335_);stroke-width:2;stroke-miterlimit:10;}
	.st253{fill:none;stroke:url(#SVGID_336_);stroke-width:2;stroke-miterlimit:10;}
	.st254{fill:none;stroke:url(#SVGID_337_);stroke-width:2;stroke-miterlimit:10;}
	.st255{fill:url(#SVGID_338_);}
	.st256{fill:none;stroke:url(#SVGID_339_);stroke-width:2;stroke-miterlimit:10;}
	.st257{fill:none;stroke:url(#SVGID_340_);stroke-width:2;stroke-miterlimit:10;}
	.st258{fill:none;stroke:url(#SVGID_341_);stroke-width:2;stroke-miterlimit:10;}
	.st259{fill:none;stroke:url(#SVGID_342_);stroke-width:2;stroke-miterlimit:10;}
	.st260{fill:none;stroke:url(#SVGID_343_);stroke-width:2;stroke-miterlimit:10;}
	.st261{fill:none;stroke:url(#SVGID_344_);stroke-width:2;stroke-miterlimit:10;}
	.st262{fill:none;stroke:url(#SVGID_345_);stroke-width:2;stroke-miterlimit:10;}
	.st263{fill:url(#SVGID_346_);}
	.st264{fill:none;stroke:url(#SVGID_347_);stroke-width:2;stroke-miterlimit:10;}
	.st265{fill:none;stroke:url(#SVGID_348_);stroke-width:2;stroke-miterlimit:10;}
	.st266{fill:none;stroke:url(#SVGID_349_);stroke-width:2;stroke-miterlimit:10;}
	.st267{fill:#B3D000;}
	.st268{fill:#00913D;}
	.st269{fill:#00763C;}
	.st270{fill:#9C0E59;}
	.st271{fill:#51AF33;}
	.st272{fill:#91C433;}
	.st273{fill:#F9BE00;}
	.st274{fill:#EA6118;}
	.st275{fill:#EE8500;}
	.st276{fill:#E95812;}
	.st277{fill:#EC6D22;}
	.st278{fill:#E78400;}
	.st279{fill:#F9BF00;}
	.st280{fill:#E9521A;}
	.st281{fill:#7F104A;}
	.st282{fill:#E40080;}
	.st283{fill:#F5AA00;}
	.st284{fill:#780712;}
	.st285{fill:#790910;}
	.st286{fill:#DF0518;}
	.st287{fill:#C61A1A;}
	.st288{fill:#B91221;}
	.st289{fill:#640015;}
	.st290{fill:#EC7026;}
	.st291{fill:#F7C000;}
	.st292{fill:#6F043D;}
	.st293{fill:#F5A600;}
	.st294{fill:#F5A900;}
	.st295{fill:#F46C00;}
	.st296{fill:url(#SVGID_350_);}
	.st297{fill:#6B6B6B;}
	.st298{fill:#BFBFBF;}
	.st299{fill:none;}
	.st300{font-family:'ARHeiB5-Light-B5pc-H';}
	.st301{font-size:5.542px;}
	.st302{fill:url(#SVGID_351_);}
	.st303{fill:#ED4815;}
</style>
<g>
	<g>
		<path class="st267" d="M3.5,3.2C3.2,3.2,3,3.4,3,3.7v4.2c0,0.3,0.2,0.3,0.3,0.1l1.9-1.9C5.5,6,5.8,5.7,6,5.5l1.9-1.9
			C8.1,3.4,8,3.2,7.7,3.2H3.5z"/>
	</g>
	<g>
		<path class="st267" d="M8.6,9.8c0-0.3-0.2-0.5-0.5-0.5H3.9c-0.3,0-0.3,0.2-0.1,0.3l1.9,1.9c0.2,0.2,0.5,0.5,0.7,0.7l1.9,1.9
			c0.2,0.2,0.3,0.1,0.3-0.1V9.8z"/>
	</g>
	<g>
		<path class="st268" d="M3.5,15.3c-0.3,0-0.5,0.2-0.5,0.5V20c0,0.3,0.2,0.3,0.3,0.1l1.9-1.9c0.2-0.2,0.5-0.5,0.7-0.7l1.9-1.9
			c0.2-0.2,0.1-0.3-0.1-0.3H3.5z"/>
	</g>
	<g>
		<path class="st269" d="M8.2,26.2c0.2,0.2,0.3,0.1,0.3-0.1v-4.2c0-0.3-0.2-0.5-0.5-0.5H3.9c-0.3,0-0.3,0.2-0.1,0.3L8.2,26.2z"/>
	</g>
	<g>
		<path class="st270" d="M27.5,21.4c-0.1,0-0.2,0.1-0.2,0.2c0,0.1,0,0.4,0,0.7v3.9c0,0.3,0.2,0.3,0.3,0.1l4.5-4.5
			c0.2-0.2,0.1-0.3-0.1-0.3h-3.9C27.9,21.4,27.6,21.4,27.5,21.4z"/>
	</g>
	<g>
		<path class="st271" d="M6.3,17.9c-0.2,0.2-0.5,0.5-0.7,0.7l-1.9,1.9c-0.2,0.2-0.1,0.3,0.1,0.3h4.2c0.3,0,0.5-0.2,0.5-0.5v-4.2
			c0-0.3-0.2-0.3-0.3-0.1L6.3,17.9z"/>
	</g>
	<g>
		<path class="st271" d="M3.4,10C3.2,9.8,3,9.9,3,10.1v4.2c0,0.3,0.2,0.5,0.5,0.5h4.2c0.3,0,0.3-0.2,0.1-0.3L6,12.6
			c-0.2-0.2-0.5-0.5-0.7-0.7L3.4,10z"/>
	</g>
	<g>
		<path class="st272" d="M8.6,4.1c0-0.3-0.2-0.3-0.3-0.1L6.3,5.8C6.1,6,5.8,6.3,5.7,6.5L3.7,8.4C3.5,8.6,3.6,8.8,3.9,8.8h4.2
			c0.3,0,0.5-0.2,0.5-0.5V4.1z"/>
	</g>
	<g>
		<path class="st273" d="M14.3,8.1c0.2,0.2,0.3,0.1,0.3-0.1V3.7c0-0.3-0.2-0.5-0.5-0.5H10c-0.3,0-0.3,0.2-0.1,0.3l1.9,1.9
			c0.2,0.2,0.5,0.5,0.7,0.7L14.3,8.1z"/>
	</g>
	<g>
		<path class="st274" d="M9.1,14c0,0.3,0.2,0.3,0.3,0.1l1.9-1.9c0.2-0.2,0.5-0.5,0.7-0.7L14,9.6c0.2-0.2,0.1-0.3-0.1-0.3H9.6
			c-0.3,0-0.5,0.2-0.5,0.5V14z"/>
	</g>
	<g>
		<path class="st275" d="M14.3,20.2c0.2,0.2,0.3,0.1,0.3-0.1v-4.2c0-0.3-0.2-0.5-0.5-0.5H10c-0.3,0-0.3,0.2-0.1,0.3l1.9,1.9
			c0.2,0.2,0.5,0.5,0.7,0.7L14.3,20.2z"/>
	</g>
	<g>
		<path class="st276" d="M9.4,16c-0.2-0.2-0.3-0.1-0.3,0.1v4.2c0,0.3,0.2,0.5,0.5,0.5h4.2c0.3,0,0.3-0.2,0.1-0.3L12,18.6
			c-0.2-0.2-0.5-0.5-0.7-0.7L9.4,16z"/>
	</g>
	<g>
		<path class="st277" d="M14.2,14.8c0.3,0,0.5-0.2,0.5-0.5v-4.2c0-0.3-0.2-0.3-0.3-0.1l-1.9,1.9c-0.2,0.2-0.5,0.5-0.7,0.7l-1.9,1.9
			c-0.2,0.2-0.1,0.3,0.1,0.3H14.2z"/>
	</g>
	<g>
		<path class="st278" d="M9.1,26.1c0,0.3,0.2,0.3,0.3,0.1l1.9-1.9c0.2-0.2,0.5-0.5,0.7-0.7l1.9-1.9c0.2-0.2,0.1-0.3-0.1-0.3H9.6
			c-0.3,0-0.5,0.2-0.5,0.5V26.1z"/>
	</g>
	<g>
		<path class="st279" d="M9.8,26.6c-0.2,0.2-0.1,0.3,0.1,0.3h4.2c0.3,0,0.5-0.2,0.5-0.5v-4.2c0-0.3-0.2-0.3-0.3-0.1L12.4,24
			c-0.2,0.2-0.5,0.5-0.7,0.7L9.8,26.6z"/>
	</g>
	<g>
		<path class="st279" d="M9.8,26.6l1.9-1.9c0.2-0.2,0.2-0.2,0,0L9.8,26.6"/>
	</g>
	<g>
		<path class="st278" d="M20.4,26.2c0.2,0.2,0.3,0.1,0.3-0.1v-4.2c0-0.3-0.2-0.5-0.5-0.5H16c-0.3,0-0.3,0.2-0.1,0.3l1.9,1.9
			c0.2,0.2,0.5,0.5,0.7,0.7L20.4,26.2z"/>
	</g>
	<g>
		<path class="st280" d="M15.2,26.4c0,0.3,0.2,0.5,0.5,0.5h4.2c0.3,0,0.3-0.2,0.1-0.3l-1.9-1.9c-0.2-0.2-0.5-0.5-0.7-0.7l-1.9-1.9
			c-0.2-0.2-0.3-0.1-0.3,0.1V26.4z"/>
	</g>
	<g>
		<path class="st281" d="M23.5,24.3c0.2-0.2,0.5-0.5,0.7-0.7l1.9-1.9c0.2-0.2,0.1-0.3-0.1-0.3h-4.2c-0.3,0-0.5,0.2-0.5,0.5v4.2
			c0,0.3,0.2,0.3,0.3,0.1L23.5,24.3z"/>
	</g>
	<g>
		<path class="st282" d="M22,26.6c-0.2,0.2-0.1,0.3,0.1,0.3h4.2c0.3,0,0.5-0.2,0.5-0.5v-4.2c0-0.3-0.2-0.3-0.3-0.1L24.6,24
			c-0.2,0.2-0.5,0.5-0.7,0.7L22,26.6z"/>
	</g>
	<g>
		<path class="st283" d="M9.1,8.3c0,0.3,0.2,0.5,0.5,0.5h4.2c0.3,0,0.3-0.2,0.1-0.3L12,6.5c-0.2-0.2-0.5-0.5-0.7-0.7L9.4,3.9
			C9.3,3.7,9.1,3.8,9.1,4.1V8.3z"/>
	</g>
	<g>
		<path class="st284" d="M26.8,3.7c0-0.3-0.2-0.5-0.5-0.5h-4.2c-0.3,0-0.3,0.2-0.1,0.3l1.9,1.9c0.2,0.2,0.5,0.5,0.7,0.7l1.9,1.9
			c0.2,0.2,0.3,0.1,0.3-0.1V3.7z"/>
	</g>
	<g>
		<path class="st285" d="M21.7,9.3c-0.3,0-0.5,0.2-0.5,0.5V14c0,0.3,0.2,0.3,0.3,0.1l1.9-1.9c0.2-0.2,0.5-0.5,0.7-0.7l1.9-1.9
			c0.2-0.2,0.1-0.3-0.1-0.3H21.7z"/>
	</g>
	<g>
		<path class="st286" d="M26.8,15.8c0-0.3-0.2-0.5-0.5-0.5h-4.2c-0.3,0-0.3,0.2-0.1,0.3l1.9,1.9c0.2,0.2,0.5,0.5,0.7,0.7l1.9,1.9
			c0.2,0.2,0.3,0.1,0.3-0.1V15.8z"/>
	</g>
	<g>
		<path class="st287" d="M24.2,18.6c-0.2-0.2-0.5-0.5-0.7-0.7L21.6,16c-0.2-0.2-0.3-0.1-0.3,0.1v4.2c0,0.3,0.2,0.5,0.5,0.5H26
			c0.3,0,0.3-0.2,0.1-0.3L24.2,18.6z"/>
	</g>
	<g>
		<path class="st288" d="M26.8,10.1c0-0.3-0.2-0.3-0.3-0.1l-1.9,1.9c-0.2,0.2-0.5,0.5-0.7,0.7L22,14.5c-0.2,0.2-0.1,0.3,0.1,0.3h4.2
			c0.3,0,0.5-0.2,0.5-0.5V10.1z"/>
	</g>
	<g>
		<path class="st289" d="M21.6,3.9c-0.2-0.2-0.3-0.1-0.3,0.1v4.2c0,0.3,0.2,0.5,0.5,0.5H26c0.3,0,0.3-0.2,0.1-0.3l-1.9-1.9
			C24,6.3,23.7,6,23.5,5.8L21.6,3.9z"/>
	</g>
	<g>
		<path class="st290" d="M27.3,7.9c0,0.3,0.2,0.3,0.3,0.1l1.9-1.9c0.2-0.2,0.5-0.5,0.7-0.7l1.9-1.9c0.2-0.2,0.1-0.3-0.1-0.3h-4.2
			c-0.3,0-0.5,0.2-0.5,0.5V7.9z"/>
	</g>
	<g>
		<path class="st273" d="M29.9,11.5c0.2,0.2,0.5,0.5,0.7,0.7l1.9,1.9c0.2,0.2,0.3,0.1,0.3-0.1V9.8c0-0.3-0.2-0.5-0.5-0.5h-4.2
			c-0.3,0-0.3,0.2-0.1,0.3L29.9,11.5z"/>
	</g>
	<g>
		<path class="st291" d="M29.6,18.3c0.2-0.2,0.5-0.5,0.7-0.7l1.9-1.9c0.2-0.2,0.1-0.3-0.1-0.3h-4.2c-0.3,0-0.5,0.2-0.5,0.5V20
			c0,0.3,0.2,0.3,0.3,0.1L29.6,18.3z"/>
	</g>
	<g>
		<path class="st292" d="M32.4,20.9c0.3,0,0.5-0.2,0.5-0.5v-4.2c0-0.3-0.2-0.3-0.3-0.1l-1.9,1.9c-0.2,0.2-0.5,0.5-0.7,0.7L28,20.5
			c-0.2,0.2-0.1,0.3,0.1,0.3H32.4z"/>
	</g>
	<g>
		<path class="st293" d="M27.3,14.3c0,0.3,0.2,0.5,0.5,0.5H32c0.3,0,0.3-0.2,0.1-0.3l-1.9-1.9c-0.2-0.2-0.5-0.5-0.7-0.7L27.7,10
			c-0.2-0.2-0.3-0.1-0.3,0.1V14.3z"/>
	</g>
	<g>
		<path class="st294" d="M32.4,8.8c0.3,0,0.5-0.2,0.5-0.5V4.1c0-0.3-0.2-0.3-0.3-0.1l-1.9,1.9c-0.2,0.2-0.5,0.5-0.7,0.7L28,8.4
			c-0.2,0.2-0.1,0.3,0.1,0.3H32.4z"/>
	</g>
</g>
<g>
	<g>
		<path class="st2" d="M44.8,9.9L44.8,9.9c0,0.2-0.2,0.4-0.4,0.4h-7.5c-0.2,0-0.4-0.2-0.4-0.4v0c0-0.2,0.2-0.4,0.4-0.4h7.5
			C44.6,9.4,44.8,9.6,44.8,9.9z M40.3,17.5c-0.2,0-0.4,0.2-0.4,0.4l0,0.8c-0.1,0.9-0.7,1.6-1.7,2.2C38,21,37.8,21,37.7,20.8v0
			c-0.2-0.2-0.1-0.5,0.1-0.6c0.2-0.1,0.4-0.2,0.5-0.3c0.5-0.3,0.7-1,0.8-2c0-0.2-0.2-0.4-0.4-0.4h-1.3l-0.1,0.1v8.6
			c0,0.2-0.2,0.4-0.4,0.4h0c-0.2,0-0.4-0.2-0.4-0.4v-9.3c0-0.1,0.1-0.2,0.2-0.2h8.1c0.1,0,0.2,0.1,0.2,0.2v8.8
			c0,0.3-0.1,0.6-0.4,0.8c-0.4,0.3-1.2,0.3-2.1,0.1c-0.2,0-0.3-0.2-0.3-0.4v-0.1c0-0.3,0.2-0.4,0.5-0.4c0.7,0.1,1.1,0.1,1.3,0
			c0.1-0.1,0.2-0.2,0.2-0.4v-4c0-0.2-0.2-0.4-0.4-0.4h-2.1c-0.2,0-0.4-0.1-0.4-0.4v-2.6c0-0.2-0.2-0.4-0.4-0.4H40.3z M43.7,15.1
			h-6.5c-0.1,0-0.1,0-0.1-0.1v-2.6c0-0.3,0.2-0.5,0.5-0.5h6.5c0.1,0,0.1,0,0.1,0.1v2.6C44.2,14.9,44,15.1,43.7,15.1z M37.9,12.7
			L37.9,12.7l0,1.6l0,0h5.5l0,0v-1.6l0,0H37.9z M38,22.3L38,22.3c0-0.2,0.2-0.4,0.4-0.4h4.5c0.2,0,0.4,0.2,0.4,0.4v0
			c0,0.2-0.2,0.4-0.4,0.4h-1.5c-0.2,0-0.4,0.2-0.4,0.4v2.3c0,0.2-0.2,0.4-0.4,0.4h0c-0.2,0-0.4-0.2-0.4-0.4v-2.3
			c0-0.2-0.2-0.4-0.4-0.4h-1.4C38.2,22.7,38,22.5,38,22.3z M43.7,20.1c0.2,0,0.4-0.2,0.4-0.4v-2.2l-0.1-0.1h-1.5
			c-0.2,0-0.4,0.2-0.4,0.4v1.7c0,0.3,0.3,0.6,0.6,0.6H43.7z M46,25.9L46,25.9c-0.1-0.3,0.1-0.6,0.3-0.6l2.4-0.4
			c0.2,0,0.3-0.2,0.3-0.4v-3.8c0-0.2-0.2-0.4-0.4-0.4h-2.2c-0.1,0-0.1,0-0.1-0.1v-8.4c0-0.3,0.2-0.5,0.5-0.5h1.8
			c0.2,0,0.4-0.2,0.4-0.4V9.5c0-0.2,0.2-0.4,0.4-0.4h0.1c0.2,0,0.4,0.2,0.4,0.4v1.4c0,0.2,0.2,0.4,0.4,0.4h2.4c0.1,0,0.1,0,0.1,0.1
			v8.4c0,0.3-0.2,0.5-0.5,0.5h-2c-0.2,0-0.4,0.2-0.4,0.4v3.5c0,0.2,0.2,0.4,0.5,0.4l1.4-0.2c0.2,0,0.4-0.3,0.3-0.5
			c-0.1-0.4-0.2-0.8-0.3-1.1c-0.1-0.2,0-0.4,0.3-0.5l0.1,0c0.2-0.1,0.4,0,0.5,0.2c0.4,1,0.7,2.2,1,3.6c0,0.2-0.1,0.4-0.3,0.5l-0.1,0
			c-0.2,0.1-0.4-0.1-0.5-0.3l-0.2-0.7c0-0.2-0.2-0.3-0.5-0.3l-5.6,0.9C46.3,26.2,46.1,26.1,46,25.9z M49,12.5c0-0.2-0.2-0.4-0.4-0.4
			h-1.4l0,0v7.2l0,0.1h1.4c0.2,0,0.4-0.2,0.4-0.4V12.5z M49.9,19c0,0.2,0.2,0.4,0.4,0.4h1.6l0.1-0.1v-7.2l-0.1,0h-1.6
			c-0.2,0-0.4,0.2-0.4,0.4V19z"/>
		<path class="st2" d="M55.5,19.5c-0.2-0.2-0.2-0.4-0.1-0.6c0.5-1.3,1-3.1,1.5-5.4c0.1-0.3-0.2-0.5-0.4-0.5l-0.9,0
			c-0.2,0-0.4-0.2-0.4-0.4v0c0-0.2,0.2-0.4,0.4-0.4h1.3c0.2,0,0.4-0.2,0.4-0.4l0.3-2.3c0-0.2,0.3-0.4,0.5-0.4l0,0
			c0.2,0,0.4,0.3,0.4,0.5l-0.3,2c0,0.3,0.2,0.5,0.4,0.5h2.3c0.1,0,0.2,0.1,0.2,0.3v0c-0.1,3.4-0.7,6.4-1.7,8.9
			c-0.1,0.2,0,0.4,0.1,0.5l1.1,1c0.2,0.1,0.2,0.4,0.1,0.6l0,0c-0.1,0.2-0.5,0.3-0.7,0.1l-0.8-0.7c-0.2-0.2-0.5-0.1-0.7,0.1
			c-0.7,1.1-1.5,2.2-2.6,3.2c-0.2,0.1-0.4,0.2-0.6,0l0,0c-0.2-0.2-0.3-0.5-0.1-0.7c0.8-0.8,1.5-1.5,2-2.2c0,0,0,0,0,0
			c0.1-0.1,0.4-0.7,0.6-1.1c0.1-0.2,0.1-0.4-0.1-0.6L55.5,19.5z M59.7,13l-1.5,0c-0.2,0-0.4,0.1-0.4,0.4c-0.3,1.6-0.8,3.5-1.4,5.6
			c0,0.1,0,0.2,0.1,0.3l2,1.8l0.1-0.3c0.4-0.8,0.7-1.9,1-3.3c0.2-1.1,0.4-2.5,0.5-3.9C60.2,13.2,60,13,59.7,13z M61.2,19.5
			L61.2,19.5c0-0.3,0.2-0.5,0.4-0.5h4.5c0.2,0,0.4-0.2,0.4-0.4v-1c0-0.2-0.2-0.4-0.4-0.4h-2.7c-0.3,0-0.4-0.2-0.4-0.5v-5
			c0-0.2-0.2-0.4-0.4-0.4h-1.1c-0.2,0-0.4-0.2-0.4-0.4v0c0-0.2,0.2-0.4,0.4-0.4h1.1c0.2,0,0.4-0.2,0.4-0.4V9.1
			c0-0.2,0.2-0.4,0.4-0.4h0c0.2,0,0.4,0.2,0.4,0.4V10c0,0.2,0.2,0.4,0.4,0.4h5.3c0.2,0,0.4-0.2,0.4-0.4V9.1c0-0.2,0.2-0.4,0.4-0.4h0
			c0.2,0,0.4,0.2,0.4,0.4V10c0,0.2,0.2,0.4,0.4,0.4h1.2c0.2,0,0.4,0.2,0.4,0.4v0c0,0.2-0.2,0.4-0.4,0.4h-1.2c-0.2,0-0.4,0.2-0.4,0.4
			v4.6c0,0.5-0.4,0.9-0.9,0.9h-2.1c-0.2,0-0.4,0.2-0.4,0.4v1c0,0.2,0.2,0.4,0.4,0.4h4.6c0.2,0,0.4,0.2,0.4,0.4v0
			c0,0.2-0.2,0.4-0.4,0.4l-4.2,0c-0.2,0-0.3,0.2-0.2,0.4c1.2,1.6,2.8,3.1,4.7,4.4c0.2,0.2,0.3,0.5,0.1,0.7l0,0
			c-0.2,0.1-0.4,0.2-0.5,0c-1.7-1.1-3.2-2.5-4.5-4.1c-0.1-0.2-0.4-0.1-0.4,0.1l0,4.8c0,0.2-0.2,0.4-0.4,0.4l0,0
			c-0.2,0-0.4-0.2-0.4-0.4v-4.8c0-0.2-0.2-0.3-0.4-0.1c-1.7,1.9-3.4,3.4-5.2,4.3c-0.2,0.1-0.4,0-0.5-0.1l0,0
			c-0.2-0.2-0.1-0.5,0.1-0.7c2.1-1.2,3.8-2.7,5.3-4.5c0.1-0.2,0-0.4-0.2-0.4l-4,0C61.4,20,61.2,19.8,61.2,19.5z M69.5,11.3h-5.3
			c-0.2,0-0.4,0.2-0.4,0.4V13c0,0.2,0.2,0.4,0.4,0.4h5.3c0.2,0,0.4-0.2,0.4-0.4v-1.2C70,11.5,69.8,11.3,69.5,11.3z M63.8,15.7
			c0,0.3,0.3,0.6,0.6,0.6h5c0.3,0,0.6-0.3,0.6-0.6v-1c0-0.2-0.2-0.4-0.4-0.4h-5.3c-0.2,0-0.4,0.2-0.4,0.4V15.7z"/>
		<path class="st2" d="M75.1,10.1c0-0.4,0.3-0.8,0.8-0.8h3.9c0.4,0,0.8,0.4,0.8,0.8V14c0,0.2,0.2,0.5,0.5,0.5h0.3
			c0.1,0,0.2,0.1,0.2,0.3c0,0.7-0.1,1.3-0.2,2c0,0.2-0.3,0.4-0.5,0.4l-0.1,0c-0.2,0-0.4-0.3-0.4-0.5l0.1-1.1c0-0.1,0-0.1-0.1-0.1
			h-4.5c-0.3,0-0.5,0.2-0.5,0.5v0.8c0,0.2-0.2,0.5-0.5,0.5h0c-0.2,0-0.5-0.2-0.5-0.5v-2.1c0-0.1,0.1-0.2,0.2-0.2h0.1
			c0.2,0,0.5-0.2,0.5-0.5V10.1z M76.1,26.5L76.1,26.5c-0.3,0-0.5-0.2-0.5-0.5v-8.5c0-0.4,0.3-0.6,0.6-0.6H80c0.2,0,0.2,0.1,0.2,0.2
			v8.5c0,0.4-0.1,0.6-0.4,0.8c-0.3,0.2-0.8,0.2-1.5,0.1c-0.2,0-0.4-0.2-0.4-0.4v0c0-0.3,0.3-0.5,0.6-0.4c0.3,0.1,0.5,0.1,0.5,0
			c0.2-0.1,0.3-0.3,0.3-0.4v-1.5c0-0.2-0.2-0.5-0.5-0.5H77c-0.2,0-0.5,0.2-0.5,0.5V26C76.5,26.3,76.3,26.5,76.1,26.5z M76.9,14.4
			c0.2,0,0.5-0.2,0.5-0.5v-2.3c0-0.1,0.1-0.2,0.2-0.2h1.8c0.2,0,0.5-0.2,0.5-0.5v-0.2c0-0.3-0.3-0.6-0.6-0.6h-2.5
			c-0.3,0-0.6,0.3-0.6,0.6V14c0,0.2,0.2,0.5,0.5,0.5H76.9z M78.9,19.6c0.2,0,0.5-0.2,0.5-0.5v-1.3l-0.1-0.1h-2.7l0,0.1v1.3
			c0,0.2,0.2,0.5,0.5,0.5H78.9z M79.4,21.9V21c0-0.2-0.2-0.5-0.5-0.5H77c-0.2,0-0.5,0.2-0.5,0.5v0.9c0,0.2,0.2,0.5,0.5,0.5h1.9
			C79.2,22.3,79.4,22.1,79.4,21.9z M79.7,14v-1.1c0-0.2-0.2-0.5-0.5-0.5h-0.5c-0.3,0-0.6,0.3-0.6,0.6v1c0,0.2,0.2,0.5,0.5,0.5h0.6
			C79.5,14.4,79.7,14.2,79.7,14z M84.1,23.4c-0.1-0.2-0.2-0.3-0.4-0.3l-0.9,0c-0.1,0-0.1,0-0.1-0.1v-2.7c0-0.3,0.3-0.6,0.6-0.6h7.5
			c0.1,0,0.1,0,0.1,0.1v2.7c0,0.3-0.3,0.6-0.6,0.6H90c-0.2,0-0.4,0.1-0.4,0.3l-0.3,0.9l-0.2,0.4c-0.1,0.3,0.1,0.6,0.4,0.6h1.8
			c0.2,0,0.5,0.2,0.5,0.5v0c0,0.2-0.2,0.5-0.5,0.5h-9.2c-0.2,0-0.5-0.2-0.5-0.5v0c0-0.2,0.2-0.5,0.5-0.5l2.1,0
			c0.3,0,0.5-0.3,0.4-0.6C84.5,24.2,84.3,23.7,84.1,23.4z M91.9,17.9L91.9,17.9c0,0.3-0.2,0.5-0.5,0.5h-9.2c-0.2,0-0.5-0.2-0.5-0.5
			v0c0-0.2,0.2-0.5,0.5-0.5h9.2C91.7,17.5,91.9,17.7,91.9,17.9z M90.8,10.1c0.3,0,0.6,0.3,0.6,0.6V16c0,0.1,0,0.1-0.1,0.1h-8.9
			c-0.1,0-0.1,0-0.1-0.1v-5.3c0-0.3,0.3-0.6,0.6-0.6h1.7c0.2,0,0.5-0.2,0.5-0.5V9.3c0-0.2,0.2-0.5,0.5-0.5h0c0.2,0,0.5,0.2,0.5,0.5
			v0.3c0,0.2,0.2,0.5,0.5,0.5h0.8c0.2,0,0.5-0.2,0.5-0.5V9.3c0-0.2,0.2-0.5,0.5-0.5h0c0.2,0,0.5,0.2,0.5,0.5v0.3
			c0,0.2,0.2,0.5,0.5,0.5H90.8z M85,11.2c0-0.1-0.1-0.2-0.2-0.2h-1.5l0,0v1.3c0,0.1,0.1,0.2,0.2,0.2h1.3c0.1,0,0.2-0.1,0.2-0.2V11.2
			z M84.7,13.5h-1.3c-0.1,0-0.2,0.1-0.2,0.2v1.4l0,0.1h1.5c0.1,0,0.2-0.1,0.2-0.2v-1.2C85,13.6,84.9,13.5,84.7,13.5z M83.6,20.6
			L83.6,20.6l0,1.6l0,0.1h6.3l0.1-0.1v-1.5l-0.1,0H83.6z M88,25.1l0.5-1.3c0.1-0.3-0.1-0.6-0.4-0.6h-2.5c-0.3,0-0.5,0.3-0.4,0.6
			l0.5,1.3c0.1,0.2,0.2,0.3,0.4,0.3h1.4C87.8,25.4,87.9,25.3,88,25.1z M87.3,11h-1.2c-0.1,0-0.2,0.1-0.2,0.2v1.1
			c0,0.1,0.1,0.2,0.2,0.2h1.2c0.1,0,0.2-0.1,0.2-0.2v-1.1C87.6,11.1,87.5,11,87.3,11z M87.3,13.5h-1.2c-0.1,0-0.2,0.1-0.2,0.2V15
			c0,0.1,0.1,0.2,0.2,0.2h1.2c0.1,0,0.2-0.1,0.2-0.2v-1.2C87.6,13.6,87.5,13.5,87.3,13.5z M88.7,12.6h1.5c0.1,0,0.2-0.1,0.2-0.2V11
			l-0.1,0h-1.7c-0.1,0-0.2,0.1-0.2,0.2v1.1C88.5,12.5,88.6,12.6,88.7,12.6z M88.5,15c0,0.1,0.1,0.2,0.2,0.2h1.7l0.1-0.1v-1.4
			c0-0.1-0.1-0.2-0.2-0.2h-1.5c-0.1,0-0.2,0.1-0.2,0.2V15z"/>
	</g>
	<g>
		<path class="st2" d="M94.8,21.9l-0.5-0.2c-0.2-0.1-0.3-0.3-0.3-0.5l0.4-3.3c0-0.2,0.1-0.3,0.3-0.3h3.7c0.3,0,0.6-0.3,0.6-0.6v-1.5
			c0-0.1,0-0.1-0.1-0.1h-4.5v-0.3l-1.2,0.2c-0.2,0-0.4,0-0.5-0.2l0,0c-0.1-0.3,0-0.6,0.3-0.6c0.9-0.2,1.7-0.4,2.5-0.7l0.6-0.2
			c-0.7-0.6-1.3-1.1-1.9-1.6c-0.2-0.1-0.2-0.4-0.1-0.6l0,0c0.1-0.2,0.4-0.2,0.6-0.1c1.1,0.8,1.9,1.4,2.2,1.8l0,0
			c0.9-0.6,1.6-1.3,2.1-1.9c0.2-0.3,0-0.7-0.3-0.7H96c-0.2,0-0.4-0.2-0.4-0.4v0c0-0.2,0.2-0.4,0.4-0.4h4.1c0.1,0,0.2,0,0.3,0.1
			l0.2,0.2c0.1,0.1,0.2,0.3,0.1,0.5c-0.7,1.5-1.8,2.7-3.4,3.6c-0.3,0.2-0.2,0.6,0.2,0.6l1.8,0c0.4,0,0.6,0.3,0.6,0.6v3.1
			c0,0.2-0.1,0.2-0.2,0.2h-4.3c-0.1,0-0.2,0.1-0.2,0.2L95.1,20c0,0.3,0.2,0.5,0.4,0.5h4c0.2,0,0.3,0.1,0.3,0.2c0,2.9-0.4,4.5-1,5.1
			c-0.5,0.5-1.9,0.6-3.9,0.3c-0.2,0-0.3-0.2-0.4-0.4l0,0c0-0.3,0.2-0.5,0.5-0.5c0.9,0.1,1.7,0.2,2.4,0.2c0.4,0,0.7-0.2,0.9-0.5
			c0.3-0.6,0.5-1.7,0.5-3.4c0-0.1,0-0.1-0.1-0.1h-3.9V21.9z M100.5,26.2L100.5,26.2c-0.2-0.3-0.1-0.6,0.2-0.7
			c0.9-0.3,1.9-0.6,2.9-1.1c0.3-0.1,0.3-0.5,0.1-0.7c-0.5-0.5-1-1.1-1.5-1.9c-0.1-0.2,0-0.5,0.2-0.6l0,0c0.2-0.1,0.4,0,0.5,0.2
			c0.5,0.8,1,1.5,1.7,2.1c0.1,0.1,0.4,0.1,0.5,0c0.8-0.6,1.6-1.4,2.1-2.3c0.2-0.3,0-0.7-0.4-0.7h-5.6c-0.2,0-0.4-0.2-0.4-0.4v0
			c0-0.2,0.2-0.4,0.4-0.4h6.7c0.1,0,0.2,0,0.3,0.1l0.2,0.2c0.1,0.1,0.2,0.3,0.1,0.5c-0.5,1.3-1.3,2.4-2.4,3.4
			c-0.2,0.2-0.2,0.6,0.1,0.7c0.9,0.4,2,0.7,3.2,0.8c0.3,0,0.4,0.3,0.3,0.6l0,0.1c-0.1,0.2-0.3,0.3-0.5,0.3c-1.6-0.2-3-0.6-4.3-1.4
			c-0.1-0.1-0.3-0.1-0.4,0c-1.4,0.9-2.7,1.4-3.8,1.6C100.7,26.5,100.6,26.4,100.5,26.2z M103.1,15.3v0.9c0,0.4-0.1,0.7-0.2,1
			c-0.2,0.5-0.7,0.9-1.4,1.3c-0.2,0.1-0.5,0-0.6-0.2l0-0.1c-0.1-0.2,0-0.5,0.2-0.6c0.2-0.1,0.4-0.2,0.5-0.3c0.4-0.3,0.6-0.8,0.6-1.4
			v-1.4l0.1-0.1l0.1-0.1h4.3l0.1,0l0.1,0.2V17l0.1,0.3c0.1,0.1,0.2,0.1,0.4,0.1h0.9l0.3-0.1c0.1,0,0.1-0.2,0.1-0.4l0-0.3
			c0-0.2,0.3-0.4,0.5-0.4l0,0c0.2,0,0.4,0.2,0.4,0.5c-0.1,0.8-0.2,1.2-0.4,1.3c-0.2,0.2-0.4,0.3-0.6,0.3h-1.7
			c-0.3,0-0.5-0.1-0.6-0.3c-0.2-0.2-0.3-0.4-0.3-0.6v-2.2c0-0.1-0.1-0.1-0.2-0.1h-2.6C103.1,15.1,103.1,15.2,103.1,15.3z M110.1,15
			L110.1,15c-0.1,0.2-0.4,0.2-0.5,0.2c-2.7-1.1-5.1-2.7-7.2-4.8c-0.1-0.1-0.2-0.4-0.1-0.6l0,0c0.2-0.2,0.5-0.3,0.7-0.1l0.8,0.8
			c0.2,0.2,0.4,0.2,0.6,0c0.5-0.5,0.9-0.9,1.2-1.3c0.2-0.2,0.4-0.2,0.6,0l0,0c0.2,0.2,0.2,0.4,0,0.6c-0.3,0.4-0.7,0.8-1.2,1.2
			c-0.2,0.2-0.2,0.5,0,0.7c0.3,0.2,0.5,0.4,0.7,0.5c0.2,0.1,0.4,0.1,0.5,0c0.5-0.5,0.9-0.9,1.2-1.3c0.2-0.2,0.4-0.2,0.6,0l0,0
			c0.2,0.2,0.2,0.4,0,0.6c-0.3,0.3-0.6,0.7-1,1c-0.2,0.2-0.2,0.6,0.1,0.7c0.7,0.4,1.5,0.7,2.4,1.1C110.2,14.5,110.3,14.8,110.1,15z"
			/>
		<path class="st2" d="M127.2,21.4L127.2,21.4c0.1,0.2,0.1,0.5-0.1,0.6c-0.7,0.4-1.5,0.9-2.5,1.3c-0.3,0.2-0.4,0.6,0,0.8
			c1,0.5,2.2,1,3.6,1.3c0.3,0.1,0.4,0.4,0.3,0.6l-0.2,0.3l-0.2,0c-4-0.8-6.8-2.9-8.4-6.2c-0.1-0.2-0.2-0.3-0.4-0.3h-1.6
			c-0.2,0-0.4,0.2-0.4,0.4v4.6c0,0.3,0.2,0.5,0.5,0.4c1-0.2,1.8-0.4,2.6-0.6c0.2-0.1,0.5,0.1,0.6,0.3l0,0c0.1,0.2-0.1,0.5-0.3,0.5
			c-1.7,0.5-3.7,0.8-6,1c-0.2,0-0.5-0.2-0.5-0.4l0,0c0-0.2,0.2-0.5,0.4-0.5l1.4-0.1c0.2,0,0.4-0.2,0.4-0.4v-4.8
			c0-0.2-0.2-0.4-0.4-0.4h-2.3c-0.2,0-0.4,0.2-0.4,0.4c-0.1,1-0.3,2.1-0.6,3.1c-0.2,0.9-0.5,1.6-0.8,2.2c-0.1,0.2-0.4,0.3-0.6,0.2
			l-0.1,0c-0.2-0.1-0.3-0.4-0.2-0.6c0.9-1.8,1.4-3.9,1.4-6.4V9.9c0-0.2,0.1-0.3,0.3-0.3h15c0.3,0,0.4,0.1,0.4,0.3v2.9
			c0,0.5-0.4,0.8-0.8,0.8h-2.7c-0.2,0-0.4,0.2-0.4,0.4v1.3c0,0.2,0.2,0.4,0.4,0.4h3.1c0.2,0,0.4,0.2,0.4,0.4v0
			c0,0.2-0.2,0.4-0.4,0.4h-3.1c-0.2,0-0.4,0.2-0.4,0.4v1.3c0,0.2,0.2,0.4,0.4,0.4h3.9c0.2,0,0.4,0.2,0.4,0.4v0
			c0,0.2-0.2,0.4-0.4,0.4h-7c-0.3,0-0.6,0.4-0.4,0.7c0.5,0.9,1.1,1.7,1.8,2.3c0.1,0.1,0.3,0.1,0.5,0.1c1.4-0.6,2.5-1.2,3.4-1.7
			C126.8,21,127.1,21.1,127.2,21.4z M113.7,12.7h12.8c0.3,0,0.6-0.3,0.6-0.6V11c0-0.3-0.3-0.6-0.6-0.6h-13.2c-0.1,0-0.1,0-0.1,0.1
			v1.7C113.2,12.5,113.4,12.7,113.7,12.7z M117.4,18.5v-1.3c0-0.2-0.2-0.4-0.4-0.4h-2.2c-0.2,0-0.4-0.2-0.4-0.4v0
			c0-0.2,0.2-0.4,0.4-0.4h2.2c0.2,0,0.4-0.2,0.4-0.4v-1.3c0-0.2-0.2-0.4-0.4-0.4h-3.3c-0.2,0-0.4,0.2-0.4,0.4v4.4
			c0,0.2,0.2,0.4,0.4,0.4h3.3C117.2,18.9,117.4,18.7,117.4,18.5z M122.7,13.6h-4c-0.2,0-0.4,0.2-0.4,0.4v1.3c0,0.2,0.2,0.4,0.4,0.4
			h4c0.2,0,0.4-0.2,0.4-0.4v-1.3C123.1,13.8,122.9,13.6,122.7,13.6z M123.1,18.5v-1.3c0-0.2-0.2-0.4-0.4-0.4h-4
			c-0.2,0-0.4,0.2-0.4,0.4v1.3c0,0.2,0.2,0.4,0.4,0.4h4C122.9,18.9,123.1,18.7,123.1,18.5z"/>
		<path class="st2" d="M137.6,12.2L137.6,12.2c0.2,0.1,0.3,0.3,0.3,0.6c-0.5,1.4-0.9,2.4-1.2,3.3c-0.1,0.3,0.1,0.6,0.4,0.6h2.1
			c0.2,0,0.4,0.2,0.4,0.4v0c0,0.2-0.2,0.4-0.4,0.4H130c-0.2,0-0.4-0.2-0.4-0.4v0c0-0.2,0.2-0.4,0.4-0.4h5.2c0.2,0,0.3-0.1,0.4-0.3
			c0.6-1.3,1.1-2.6,1.5-3.9C137.1,12.2,137.4,12.1,137.6,12.2z M134.5,9.1L134.5,9.1c0.3,0,0.5,0.2,0.5,0.4V10
			c0,0.2,0.2,0.4,0.4,0.4h3.3c0.2,0,0.4,0.2,0.4,0.4v0c0,0.2-0.2,0.4-0.4,0.4h-8.1c-0.2,0-0.4-0.2-0.4-0.4v0c0-0.2,0.2-0.4,0.4-0.4
			h3.1c0.2,0,0.4-0.2,0.4-0.4V9.5C134.1,9.3,134.3,9.1,134.5,9.1z M131.3,26.6L131.3,26.6c-0.3,0-0.5-0.2-0.5-0.4v-6.4
			c0-0.2,0.1-0.3,0.3-0.3h6.6c0.4,0,0.8,0.3,0.8,0.8v5.9c0,0.2-0.2,0.4-0.4,0.4h0c-0.2,0-0.4-0.2-0.4-0.4v-0.5
			c0-0.2-0.2-0.4-0.4-0.4h-5c-0.2,0-0.4,0.2-0.4,0.4v0.5C131.7,26.4,131.5,26.6,131.3,26.6z M132,12.5c0.4,0.9,0.7,1.9,1,3
			c0.1,0.2-0.1,0.5-0.3,0.5l0,0c-0.2,0.1-0.5-0.1-0.5-0.3c-0.2-0.9-0.6-1.9-1-2.9c-0.1-0.2,0-0.5,0.3-0.6l0,0
			C131.7,12.2,131.9,12.3,132,12.5z M137.2,24.4c0.2,0,0.4-0.2,0.4-0.4v-3.5c0-0.1,0-0.1-0.1-0.1h-5.6c-0.1,0-0.2,0-0.1,0.1v3.5
			c0,0.2,0.2,0.4,0.4,0.4H137.2z M142,10.5c-0.3,0-0.6,0.3-0.6,0.6v15.1c0,0.2-0.2,0.4-0.4,0.4h0c-0.2,0-0.4-0.2-0.4-0.4V9.7
			c0-0.1,0.1-0.1,0.2-0.1h5.3c0.1,0,0.2,0,0.3,0.1l0.2,0.2c0.1,0.1,0.2,0.3,0.1,0.5l-1.7,5.5c0,0.1,0,0.3,0,0.4
			c0.9,1.2,1.6,2.2,2,3.1c0,0,0,0,0,0c0.6,1.8,0.6,3.2,0,4.3c-0.3,0.5-0.6,0.8-1,1c-0.3,0.2-0.7,0.2-1.2,0.3c-0.4,0-1-0.1-1.7-0.4
			c-0.2-0.1-0.3-0.3-0.3-0.5l0-0.1c0-0.3,0.3-0.5,0.6-0.4c1,0.3,1.7,0.4,2.1,0.2c0.9-0.3,1.2-1.3,1.1-3c0,0,0,0,0-0.1
			c-0.2-1.2-1.1-2.6-2.5-4.5c-0.1-0.1-0.1-0.2-0.1-0.4l1.6-4.9c0.1-0.3-0.1-0.6-0.4-0.6H142z"/>
	</g>
</g>
<g>
	<rect x="36.5" y="2.4" class="st299" width="25" height="8"/>
	<text transform="matrix(1 0 0 1 36.539 7.2831)" class="st123 st300 st301">聯合報</text>
</g>
</svg>
