<?xml version="1.0" encoding="utf-8"?>
<!-- Generator: Adobe Illustrator 19.1.0, SVG Export Plug-In . SVG Version: 6.00 Build 0)  -->
<svg version="1.1" id="圖層_1" xmlns="http://www.w3.org/2000/svg" xmlns:xlink="http://www.w3.org/1999/xlink" x="0px" y="0px"
	 viewBox="0 0 335 67" style="enable-background:new 0 0 335 67;" xml:space="preserve">
<style type="text/css">
	.st0{fill:#040000;}
	.st1{fill:none;stroke:#FFFFFF;stroke-width:2;stroke-miterlimit:10;}
	.st2{fill:#908F8F;}
	.st3{fill:none;stroke:#908F8F;stroke-width:2;stroke-miterlimit:10;}
	.st4{clip-path:url(#SVGID_4_);}
	.st5{fill:#ABC71D;}
	.st6{fill:#128B3C;}
	.st7{fill:#0C723B;}
	.st8{fill:#931D57;}
	.st9{fill:#51A737;}
	.st10{fill:#8DBC3A;}
	.st11{fill:#EFB91B;}
	.st12{fill:#DE601E;}
	.st13{fill:#E58213;}
	.st14{fill:#DD5819;}
	.st15{fill:#E16A27;}
	.st16{fill:#DE8111;}
	.st17{fill:#EEB91B;}
	.st18{fill:#DD521F;}
	.st19{fill:#791D49;}
	.st20{fill:#D31478;}
	.st21{fill:#ECA517;}
	.st22{fill:#74151A;}
	.st23{fill:#75161B;}
	.st24{fill:#D1181D;}
	.st25{fill:#BC2121;}
	.st26{fill:#AF1E24;}
	.st27{fill:#610F16;}
	.st28{fill:#E16E2A;}
	.st29{fill:#EDBA19;}
	.st30{fill:#6B183D;}
	.st31{fill:#EBA218;}
	.st32{fill:#EBA517;}
	.st33{fill:#FFFFFF;}
	.st34{fill:none;}
	.st35{fill:#898989;}
	.st36{font-family:'ARHeiB5-Light-B5pc-H';}
	.st37{font-size:12.1815px;}
	.st38{fill:#4D4D4D;}
</style>
<g>
	<g>
		<g>
			<path class="st5" d="M9.8,8C9.2,8,8.8,8.5,8.8,9.1v9.3c0,0.6,0.3,0.7,0.8,0.3l4.2-4.2c0.4-0.4,1.1-1.1,1.5-1.5l4.2-4.2
				C19.8,8.4,19.7,8,19.1,8H9.8z"/>
		</g>
		<g>
			<path class="st5" d="M21,22.4c0-0.6-0.5-1.1-1.1-1.1h-9.3c-0.6,0-0.7,0.3-0.3,0.8l4.2,4.2c0.4,0.4,1.1,1.1,1.5,1.5l4.2,4.2
				c0.4,0.4,0.8,0.3,0.8-0.3V22.4z"/>
		</g>
		<g>
			<path class="st6" d="M9.8,34.6c-0.6,0-1.1,0.5-1.1,1.1V45c0,0.6,0.3,0.7,0.8,0.3l4.2-4.2c0.4-0.4,1.1-1.1,1.5-1.5l4.2-4.2
				c0.4-0.4,0.3-0.8-0.3-0.8H9.8z"/>
		</g>
		<g>
			<path class="st7" d="M20.2,58.6c0.4,0.4,0.8,0.3,0.8-0.3V49c0-0.6-0.5-1.1-1.1-1.1h-9.3c-0.6,0-0.7,0.3-0.3,0.8L20.2,58.6z"/>
		</g>
		<g>
			<path class="st8" d="M62.6,48c-0.2,0-0.4,0.2-0.4,0.4c0,0.2,0,0.9,0,1.5v8.5c0,0.6,0.3,0.7,0.8,0.3l9.9-9.9
				c0.4-0.4,0.3-0.8-0.3-0.8H64C63.4,48,62.8,48,62.6,48z"/>
		</g>
		<g>
			<path class="st9" d="M16,40.4c-0.4,0.4-1.1,1.1-1.5,1.5l-4.2,4.2c-0.4,0.4-0.3,0.8,0.3,0.8h9.3c0.6,0,1.1-0.5,1.1-1.1v-9.3
				c0-0.6-0.3-0.7-0.8-0.3L16,40.4z"/>
		</g>
		<g>
			<path class="st9" d="M9.5,22.9c-0.4-0.4-0.8-0.3-0.8,0.3v9.3c0,0.6,0.5,1.1,1.1,1.1h9.3c0.6,0,0.7-0.3,0.3-0.8l-4.2-4.2
				c-0.4-0.4-1.1-1.1-1.5-1.5L9.5,22.9z"/>
		</g>
		<g>
			<path class="st10" d="M21,9.9c0-0.6-0.3-0.7-0.8-0.3L16,13.8c-0.4,0.4-1.1,1.1-1.5,1.5l-4.2,4.2c-0.4,0.4-0.3,0.8,0.3,0.8h9.3
				c0.6,0,1.1-0.5,1.1-1.1V9.9z"/>
		</g>
		<g>
			<path class="st11" d="M33.6,18.7c0.4,0.4,0.8,0.3,0.8-0.3V9.1c0-0.6-0.5-1.1-1.1-1.1H24c-0.6,0-0.7,0.3-0.3,0.8l4.2,4.2
				c0.4,0.4,1.1,1.1,1.5,1.5L33.6,18.7z"/>
		</g>
		<g>
			<path class="st12" d="M22.1,31.7c0,0.6,0.3,0.7,0.8,0.3l4.2-4.2c0.4-0.4,1.1-1.1,1.5-1.5l4.2-4.2c0.4-0.4,0.3-0.8-0.3-0.8h-9.3
				c-0.6,0-1.1,0.5-1.1,1.1V31.7z"/>
		</g>
		<g>
			<path class="st13" d="M33.6,45.3c0.4,0.4,0.8,0.3,0.8-0.3v-9.3c0-0.6-0.5-1.1-1.1-1.1H24c-0.6,0-0.7,0.3-0.3,0.8l4.2,4.2
				c0.4,0.4,1.1,1.1,1.5,1.5L33.6,45.3z"/>
		</g>
		<g>
			<path class="st14" d="M22.9,36.2c-0.4-0.4-0.8-0.3-0.8,0.3v9.3c0,0.6,0.5,1.1,1.1,1.1h9.3c0.6,0,0.7-0.3,0.3-0.8l-4.2-4.2
				c-0.4-0.4-1.1-1.1-1.5-1.5L22.9,36.2z"/>
		</g>
		<g>
			<path class="st15" d="M33.3,33.5c0.6,0,1.1-0.5,1.1-1.1v-9.3c0-0.6-0.3-0.7-0.8-0.3l-4.2,4.2c-0.4,0.4-1.1,1.1-1.5,1.5l-4.2,4.2
				c-0.4,0.4-0.3,0.8,0.3,0.8H33.3z"/>
		</g>
		<g>
			<path class="st16" d="M22.1,58.3c0,0.6,0.3,0.7,0.8,0.3l4.2-4.2c0.4-0.4,1.1-1.1,1.5-1.5l4.2-4.2c0.4-0.4,0.3-0.8-0.3-0.8h-9.3
				c-0.6,0-1.1,0.5-1.1,1.1V58.3z"/>
		</g>
		<g>
			<path class="st17" d="M23.7,59.4c-0.4,0.4-0.3,0.8,0.3,0.8h9.3c0.6,0,1.1-0.5,1.1-1.1v-9.3c0-0.6-0.3-0.7-0.8-0.3l-4.2,4.2
				c-0.4,0.4-1.1,1.1-1.5,1.5L23.7,59.4z"/>
		</g>
		<g>
			<path class="st17" d="M23.7,59.4l4.2-4.2c0.4-0.4,0.4-0.4,0,0L23.7,59.4"/>
		</g>
		<g>
			<path class="st16" d="M46.9,58.6c0.4,0.4,0.8,0.3,0.8-0.3V49c0-0.6-0.5-1.1-1.1-1.1h-9.3c-0.6,0-0.7,0.3-0.3,0.8l4.2,4.2
				c0.4,0.4,1.1,1.1,1.5,1.5L46.9,58.6z"/>
		</g>
		<g>
			<path class="st18" d="M35.5,59.1c0,0.6,0.5,1.1,1.1,1.1h9.3c0.6,0,0.7-0.3,0.3-0.8l-4.2-4.2c-0.4-0.4-1.1-1.1-1.5-1.5l-4.2-4.2
				c-0.4-0.4-0.8-0.3-0.8,0.3V59.1z"/>
		</g>
		<g>
			<path class="st19" d="M53.8,54.4c0.4-0.4,1.1-1.1,1.5-1.5l4.2-4.2c0.4-0.4,0.3-0.8-0.3-0.8h-9.3c-0.6,0-1.1,0.5-1.1,1.1v9.3
				c0,0.6,0.3,0.7,0.8,0.3L53.8,54.4z"/>
		</g>
		<g>
			<path class="st20" d="M50.4,59.4c-0.4,0.4-0.3,0.8,0.3,0.8H60c0.6,0,1.1-0.5,1.1-1.1v-9.3c0-0.6-0.3-0.7-0.8-0.3l-4.2,4.2
				c-0.4,0.4-1.1,1.1-1.5,1.5L50.4,59.4z"/>
		</g>
		<g>
			<path class="st21" d="M22.1,19.1c0,0.6,0.5,1.1,1.1,1.1h9.3c0.6,0,0.7-0.3,0.3-0.8l-4.2-4.2c-0.4-0.4-1.1-1.1-1.5-1.5l-4.2-4.2
				c-0.4-0.4-0.8-0.3-0.8,0.3V19.1z"/>
		</g>
		<g>
			<path class="st22" d="M61,9.1C61,8.5,60.6,8,60,8h-9.3c-0.6,0-0.7,0.3-0.3,0.8l4.2,4.2c0.4,0.4,1.1,1.1,1.5,1.5l4.2,4.2
				c0.4,0.4,0.8,0.3,0.8-0.3V9.1z"/>
		</g>
		<g>
			<path class="st23" d="M49.9,21.3c-0.6,0-1.1,0.5-1.1,1.1v9.3c0,0.6,0.3,0.7,0.8,0.3l4.2-4.2c0.4-0.4,1.1-1.1,1.5-1.5l4.2-4.2
				c0.4-0.4,0.3-0.8-0.3-0.8H49.9z"/>
		</g>
		<g>
			<path class="st24" d="M61,35.7c0-0.6-0.5-1.1-1.1-1.1h-9.3c-0.6,0-0.7,0.3-0.3,0.8l4.2,4.2c0.4,0.4,1.1,1.1,1.5,1.5l4.2,4.2
				c0.4,0.4,0.8,0.3,0.8-0.3V35.7z"/>
		</g>
		<g>
			<path class="st25" d="M55.3,41.9c-0.4-0.4-1.1-1.1-1.5-1.5l-4.2-4.2c-0.4-0.4-0.8-0.3-0.8,0.3v9.3c0,0.6,0.5,1.1,1.1,1.1h9.3
				c0.6,0,0.7-0.3,0.3-0.8L55.3,41.9z"/>
		</g>
		<g>
			<path class="st26" d="M61,23.2c0-0.6-0.3-0.7-0.8-0.3l-4.2,4.2c-0.4,0.4-1.1,1.1-1.5,1.5l-4.2,4.2c-0.4,0.4-0.3,0.8,0.3,0.8H60
				c0.6,0,1.1-0.5,1.1-1.1V23.2z"/>
		</g>
		<g>
			<path class="st27" d="M49.6,9.6c-0.4-0.4-0.8-0.3-0.8,0.3v9.3c0,0.6,0.5,1.1,1.1,1.1h9.3c0.6,0,0.7-0.3,0.3-0.8l-4.2-4.2
				c-0.4-0.4-1.1-1.1-1.5-1.5L49.6,9.6z"/>
		</g>
		<g>
			<path class="st28" d="M62.2,18.4c0,0.6,0.3,0.7,0.8,0.3l4.2-4.2c0.4-0.4,1.1-1.1,1.5-1.5l4.2-4.2C73.2,8.4,73.1,8,72.5,8h-9.3
				c-0.6,0-1.1,0.5-1.1,1.1V18.4z"/>
		</g>
		<g>
			<path class="st11" d="M67.9,26.3c0.4,0.4,1.1,1.1,1.5,1.5l4.2,4.2c0.4,0.4,0.8,0.3,0.8-0.3v-9.3c0-0.6-0.5-1.1-1.1-1.1H64
				c-0.6,0-0.7,0.3-0.3,0.8L67.9,26.3z"/>
		</g>
		<g>
			<path class="st29" d="M67.1,41.1c0.4-0.4,1.1-1.1,1.5-1.5l4.2-4.2c0.4-0.4,0.3-0.8-0.3-0.8h-9.3c-0.6,0-1.1,0.5-1.1,1.1V45
				c0,0.6,0.3,0.7,0.8,0.3L67.1,41.1z"/>
		</g>
		<g>
			<path class="st30" d="M73.3,46.8c0.6,0,1.1-0.5,1.1-1.1v-9.3c0-0.6-0.3-0.7-0.8-0.3l-4.2,4.2c-0.4,0.4-1.1,1.1-1.5,1.5l-4.2,4.2
				c-0.4,0.4-0.3,0.8,0.3,0.8H73.3z"/>
		</g>
		<g>
			<path class="st31" d="M62.2,32.5c0,0.6,0.5,1.1,1.1,1.1h9.3c0.6,0,0.7-0.3,0.3-0.8l-4.2-4.2c-0.4-0.4-1.1-1.1-1.5-1.5l-4.2-4.2
				c-0.4-0.4-0.8-0.3-0.8,0.3V32.5z"/>
		</g>
		<g>
			<path class="st32" d="M73.3,20.2c0.6,0,1.1-0.5,1.1-1.1V9.9c0-0.6-0.3-0.7-0.8-0.3l-4.2,4.2c-0.4,0.4-1.1,1.1-1.5,1.5l-4.2,4.2
				c-0.4,0.4-0.3,0.8,0.3,0.8H73.3z"/>
		</g>
	</g>
	<g>
		<g>
			<path class="st33" d="M100.5,22.6L100.5,22.6c0,0.5-0.4,0.9-0.9,0.9H83.2c-0.5,0-0.9-0.4-0.9-0.9v0c0-0.5,0.4-0.9,0.9-0.9h16.5
				C100.2,21.7,100.5,22.1,100.5,22.6z M90.6,39.4c-0.5,0-0.9,0.4-0.9,0.9l0,1.8C89.5,44,88.2,45.7,86,47c-0.4,0.2-0.8,0.1-1.1-0.2
				v0c-0.4-0.4-0.2-1.1,0.3-1.4c0.4-0.2,0.8-0.5,1-0.7c1.1-0.8,1.6-2.2,1.7-4.4c0-0.5-0.4-0.9-0.9-0.9h-2.8l-0.1,0.1v18.9
				c0,0.5-0.4,0.9-0.9,0.9h0c-0.5,0-0.9-0.4-0.9-0.9V38c0-0.3,0.1-0.4,0.4-0.4h17.8c0.3,0,0.4,0.1,0.4,0.4v19.3
				c0,0.7-0.3,1.3-0.8,1.7c-1,0.6-2.5,0.7-4.7,0.3c-0.4-0.1-0.7-0.4-0.7-0.9v-0.2c0-0.6,0.5-1,1.1-0.9c1.5,0.3,2.5,0.3,2.9,0
				c0.3-0.2,0.5-0.5,0.5-0.8v-8.7c0-0.5-0.4-0.9-0.9-0.9h-4.5c-0.5,0-0.8-0.3-0.8-0.9v-5.8c0-0.5-0.4-0.9-0.9-0.9H90.6z M98.1,34.2
				H83.7c-0.2,0-0.3-0.1-0.3-0.3v-5.8c0-0.6,0.5-1.1,1.1-1.1h14.4c0.2,0,0.3,0.1,0.3,0.3V33C99.3,33.6,98.7,34.2,98.1,34.2z
				 M85.3,28.8L85.3,28.8l-0.1,3.5l0.1,0.1h12l0.1-0.1v-3.4l-0.1-0.1H85.3z M85.6,50L85.6,50c0-0.5,0.4-0.9,0.9-0.9h9.9
				c0.5,0,0.9,0.4,0.9,0.9v0c0,0.5-0.4,0.9-0.9,0.9h-3.2c-0.5,0-0.9,0.4-0.9,0.9v5.1c0,0.5-0.4,0.9-0.9,0.9h0
				c-0.5,0-0.9-0.4-0.9-0.9v-5.1c0-0.5-0.4-0.9-0.9-0.9h-3.1C86,50.9,85.6,50.5,85.6,50z M98.2,45.2c0.5,0,0.9-0.4,0.9-0.9v-4.8
				l-0.2-0.1h-3.3c-0.5,0-0.9,0.4-0.9,0.9V44c0,0.7,0.6,1.2,1.2,1.2H98.2z M103.2,57.8l-0.1-0.2c-0.1-0.5,0.2-1,0.7-1.1l5.2-0.8
				c0.4-0.1,0.7-0.4,0.7-0.9v-8.3c0-0.5-0.4-0.9-0.9-0.9H104c-0.2,0-0.3-0.1-0.3-0.3V26.8c0-0.6,0.5-1.1,1.1-1.1h4.1
				c0.5,0,0.9-0.4,0.9-0.9v-3.1c0-0.5,0.4-0.9,0.9-0.9h0.2c0.5,0,0.9,0.4,0.9,0.9v3.1c0,0.5,0.4,0.9,0.9,0.9h5.2
				c0.2,0,0.3,0,0.3,0.2v18.5c0,0.7-0.5,1.2-1.2,1.2h-4.4c-0.5,0-0.9,0.4-0.9,0.9v7.7c0,0.5,0.5,1,1,0.9l3.1-0.5
				c0.5-0.1,0.8-0.6,0.7-1.1c-0.2-0.9-0.5-1.7-0.7-2.4c-0.2-0.5,0.1-1,0.6-1.1l0.2-0.1c0.4-0.1,0.9,0.1,1.1,0.5
				c0.9,2.2,1.6,4.8,2.2,7.9c0.1,0.5-0.2,0.9-0.6,1l-0.3,0.1c-0.5,0.1-1-0.2-1.1-0.7l-0.3-1.6c-0.1-0.5-0.5-0.8-1-0.7l-12.4,2.1
				C103.8,58.5,103.4,58.2,103.2,57.8z M109.8,28.5c0-0.5-0.4-0.9-0.9-0.9h-3.1l-0.1,0.1v15.7l0.1,0.1h3.1c0.5,0,0.9-0.4,0.9-0.9
				V28.5z M111.8,42.7c0,0.5,0.4,0.9,0.9,0.9h3.4l0.1-0.1V27.7l-0.1-0.1h-3.4c-0.5,0-0.9,0.4-0.9,0.9V42.7z"/>
			<path class="st33" d="M124.1,43.9c-0.4-0.3-0.5-0.9-0.3-1.4c1.1-2.9,2.2-6.9,3.2-11.8c0.1-0.6-0.3-1.2-1-1.2l-2.1,0
				c-0.5,0-1-0.4-1-1v0c0-0.5,0.4-1,1-1h2.8c0.5,0,0.9-0.4,1-0.8l0.7-4.9c0.1-0.5,0.6-0.9,1.1-0.8l0,0c0.5,0.1,0.9,0.6,0.8,1.1
				l-0.6,4.4c-0.1,0.6,0.4,1.1,1,1.1h5.1c0.3,0,0.4,0.2,0.3,0.6v0.1c-0.2,7.6-1.5,14.1-3.7,19.6c-0.2,0.4-0.1,0.8,0.3,1.1l2.5,2.2
				c0.4,0.3,0.4,0.9,0.2,1.3l0,0c-0.3,0.5-1,0.6-1.4,0.2l-1.7-1.5c-0.4-0.4-1.1-0.3-1.5,0.2c-1.5,2.4-3.4,4.7-5.7,6.9
				c-0.3,0.3-0.8,0.4-1.2,0.1l0,0c-0.5-0.4-0.6-1.1-0.1-1.5c1.8-1.7,3.3-3.2,4.3-4.7c0,0,0,0,0,0c0.1-0.2,0.9-1.5,1.4-2.3
				c0.2-0.4,0.2-0.9-0.2-1.2L124.1,43.9z M133.3,29.5l-3.2,0c-0.5,0-0.9,0.3-1,0.8c-0.7,3.6-1.8,7.7-3.2,12.3
				c-0.1,0.2,0,0.4,0.3,0.6l4.5,4l0.3-0.7c0.8-1.8,1.5-4.3,2.2-7.3c0.5-2.5,0.8-5.4,1-8.6C134.3,30,133.9,29.5,133.3,29.5z
				 M136.6,43.9L136.6,43.9c0-0.6,0.4-1,1-1h9.8c0.5,0,1-0.4,1-1v-2.2c0-0.5-0.4-1-1-1h-6c-0.6,0-1-0.3-1-1v-11c0-0.5-0.4-1-1-1H137
				c-0.5,0-1-0.4-1-1v0c0-0.5,0.4-1,1-1h2.4c0.5,0,1-0.4,1-1v-1.8c0-0.5,0.4-1,1-1h0c0.5,0,1,0.4,1,1v1.8c0,0.5,0.4,1,1,1h11.6
				c0.5,0,1-0.4,1-1v-1.8c0-0.5,0.4-1,1-1h0c0.5,0,1,0.4,1,1v1.8c0,0.5,0.4,1,1,1h2.6c0.5,0,1,0.4,1,1v0c0,0.5-0.4,1-1,1h-2.6
				c-0.5,0-1,0.4-1,1v10.1c0,1.1-0.9,2-2,2h-4.7c-0.5,0-1,0.4-1,1v2.2c0,0.5,0.4,1,1,1h10.1c0.5,0,1,0.4,1,1v0c0,0.5-0.4,1-1,1
				l-9.1,0c-0.5,0-0.8,0.5-0.5,0.9c2.6,3.6,6.1,6.8,10.4,9.6c0.5,0.4,0.6,1.1,0.1,1.5l0,0c-0.3,0.3-0.8,0.3-1.2,0.1
				c-3.7-2.5-7-5.5-9.8-8.9c-0.3-0.3-0.8-0.1-0.8,0.3V59c0,0.5-0.4,1-1,1l0,0c-0.5,0-1-0.4-1-1V48.3c0-0.4-0.5-0.6-0.8-0.3
				c-3.6,4.2-7.5,7.4-11.4,9.4c-0.4,0.2-0.9,0.1-1.2-0.2l-0.1-0.1c-0.4-0.5-0.3-1.2,0.3-1.5c4.5-2.6,8.5-5.9,11.7-9.9
				c0.3-0.4,0-1-0.5-1l-8.8,0C137,44.9,136.6,44.5,136.6,43.9z M154.9,25.8h-11.6c-0.5,0-1,0.4-1,1v2.7c0,0.5,0.4,1,1,1h11.6
				c0.5,0,1-0.4,1-1v-2.7C155.9,26.2,155.4,25.8,154.9,25.8z M142.3,35.5c0,0.7,0.6,1.3,1.3,1.3h10.9c0.7,0,1.3-0.6,1.3-1.3v-2.1
				c0-0.5-0.4-1-1-1h-11.6c-0.5,0-1,0.4-1,1V35.5z"/>
			<path class="st33" d="M167.3,23.1c0-0.9,0.8-1.7,1.7-1.7h8.6c1,0,1.7,0.8,1.7,1.7v8.4c0,0.5,0.4,1,1,1h0.6c0.3,0,0.4,0.2,0.4,0.6
				c-0.1,1.4-0.2,2.9-0.5,4.4c-0.1,0.5-0.6,0.9-1.2,0.8l-0.1,0c-0.5-0.1-0.8-0.6-0.8-1l0.2-2.5c0-0.2,0-0.3-0.3-0.3h-9.9
				c-0.6,0-1.2,0.5-1.2,1.2v1.8c0,0.5-0.4,1-1,1h0c-0.5,0-1-0.4-1-1V33c0-0.2,0.1-0.3,0.4-0.3h0.3c0.5,0,1-0.4,1-1V23.1z
				 M169.3,59.2L169.3,59.2c-0.6,0-1-0.4-1-1V39.4c0-0.8,0.6-1.4,1.4-1.4h8.3c0.3,0,0.5,0.2,0.5,0.4v18.6c0,0.8-0.3,1.4-1,1.9
				c-0.6,0.4-1.7,0.5-3.3,0.1c-0.5-0.1-0.8-0.5-0.8-1v0c0-0.7,0.6-1.1,1.3-1c0.6,0.2,1,0.2,1.2,0c0.4-0.2,0.6-0.6,0.6-0.9V53
				c0-0.5-0.4-1-1-1h-4.3c-0.5,0-1,0.4-1,1v5.2C170.3,58.7,169.9,59.2,169.3,59.2z M171,32.6c0.5,0,1-0.4,1-1v-5
				c0-0.3,0.1-0.4,0.4-0.4h3.8c0.5,0,1-0.4,1-1v-0.4c0-0.7-0.6-1.3-1.3-1.3h-5.4c-0.7,0-1.3,0.6-1.3,1.3v6.9c0,0.5,0.4,1,1,1H171z
				 M175.6,44.1c0.5,0,1-0.4,1-1v-2.9l-0.2-0.1h-6l-0.1,0.1v2.9c0,0.5,0.4,1,1,1H175.6z M176.6,49v-2c0-0.5-0.4-1-1-1h-4.3
				c-0.5,0-1,0.4-1,1v2c0,0.5,0.4,1,1,1h4.3C176.1,50,176.6,49.5,176.6,49z M177.3,31.6v-2.5c0-0.5-0.4-1-1-1h-1
				c-0.7,0-1.2,0.6-1.2,1.2v2.2c0,0.5,0.4,1,1,1h1.3C176.8,32.6,177.3,32.2,177.3,31.6z M187,52.3c-0.2-0.3-0.5-0.5-0.9-0.5l-2,0
				c-0.2,0-0.3-0.1-0.3-0.3v-6c0-0.7,0.6-1.2,1.2-1.2h16.5c0.2,0,0.3,0.1,0.3,0.3v6c0,0.7-0.6,1.3-1.3,1.3h-0.6
				c-0.4,0-0.8,0.3-0.9,0.7l-0.7,2l-0.4,1c-0.2,0.6,0.2,1.3,0.9,1.3h4.1c0.5,0,1,0.4,1,1v0c0,0.5-0.4,1-1,1h-20.2c-0.5,0-1-0.4-1-1
				v0c0-0.5,0.4-1,1-1l4.6,0c0.7,0,1.2-0.7,0.9-1.3C187.8,54.1,187.4,53.1,187,52.3z M204,40.3L204,40.3c0,0.6-0.4,1-1,1h-20.2
				c-0.5,0-1-0.4-1-1v0c0-0.5,0.4-1,1-1h20.2C203.6,39.4,204,39.8,204,40.3z M201.8,23.2c0.7,0,1.2,0.6,1.2,1.2v11.8
				c0,0.2-0.1,0.3-0.3,0.3h-19.5c-0.2,0-0.2-0.1-0.2-0.3V24.4c0-0.7,0.6-1.2,1.2-1.2h3.6c0.5,0,1-0.4,1-1v-0.7c0-0.5,0.4-1,1-1h0
				c0.5,0,1,0.4,1,1v0.7c0,0.5,0.4,1,1,1h1.8c0.5,0,1-0.4,1-1v-0.7c0-0.5,0.4-1,1-1h0c0.5,0,1,0.4,1,1v0.7c0,0.5,0.4,1,1,1H201.8z
				 M188.9,25.7c0-0.3-0.2-0.5-0.5-0.5H185l-0.1,0.1v3c0,0.3,0.2,0.5,0.5,0.5h2.9c0.3,0,0.5-0.2,0.5-0.5V25.7z M188.3,30.7h-2.9
				c-0.3,0-0.5,0.2-0.5,0.5v3.1l0.1,0.1h3.3c0.3,0,0.5-0.2,0.5-0.5v-2.7C188.9,31,188.6,30.7,188.3,30.7z M185.9,46.2L185.9,46.2
				l-0.1,3.5l0.1,0.1h13.8l0.1-0.1v-3.4l-0.1-0.1H185.9z M195.5,56.1l1.1-2.9c0.2-0.6-0.2-1.3-0.9-1.3h-5.4c-0.7,0-1.2,0.7-0.9,1.4
				l1.2,2.9c0.2,0.4,0.5,0.6,0.9,0.6h3.1C195,56.7,195.4,56.5,195.5,56.1z M194.1,25.1h-2.7c-0.3,0-0.5,0.2-0.5,0.5v2.5
				c0,0.3,0.2,0.5,0.5,0.5h2.7c0.3,0,0.5-0.2,0.5-0.5v-2.5C194.6,25.4,194.4,25.1,194.1,25.1z M194.1,30.7h-2.7
				c-0.3,0-0.5,0.2-0.5,0.5v2.7c0,0.3,0.2,0.5,0.5,0.5h2.7c0.3,0,0.5-0.2,0.5-0.5v-2.7C194.6,31,194.4,30.7,194.1,30.7z M197.2,28.7
				h3.4c0.3,0,0.5-0.2,0.5-0.5v-3l-0.1-0.1h-3.8c-0.3,0-0.5,0.2-0.5,0.5v2.5C196.6,28.5,196.9,28.7,197.2,28.7z M196.6,33.9
				c0,0.3,0.2,0.5,0.5,0.5h3.8l0.1-0.1v-3.1c0-0.3-0.2-0.5-0.5-0.5h-3.4c-0.3,0-0.5,0.2-0.5,0.5V33.9z"/>
		</g>
		<g>
			<path class="st33" d="M210.6,49l-1.2-0.3c-0.5-0.1-0.7-0.6-0.7-1l0.9-7.3c0.1-0.4,0.3-0.7,0.7-0.6h8.1c0.7,0,1.3-0.6,1.3-1.3
				v-3.2c0-0.2,0-0.3-0.3-0.3h-9.9v-0.7l-2.6,0.5c-0.4,0.1-0.8-0.1-1-0.5l0,0c-0.3-0.6,0-1.3,0.6-1.4c2-0.4,3.8-0.9,5.4-1.5l1.3-0.5
				c-1.5-1.3-2.9-2.5-4.2-3.4c-0.4-0.3-0.5-1-0.2-1.4v0c0.3-0.4,0.9-0.4,1.3-0.1c2.4,1.8,4.1,3.2,4.9,4l0.1-0.1
				c2-1.3,3.6-2.8,4.7-4.2c0.5-0.6,0-1.5-0.8-1.5h-6c-0.5,0-0.9-0.4-0.9-0.9v-0.1c0-0.5,0.4-0.9,0.9-0.9h9c0.2,0,0.5,0.1,0.6,0.3
				l0.4,0.4c0.3,0.3,0.4,0.7,0.2,1.1c-1.5,3.2-3.9,5.8-7.4,7.9c-0.7,0.4-0.4,1.4,0.4,1.4l3.9,0c0.8,0,1.4,0.6,1.4,1.4v6.8
				c0,0.3-0.2,0.5-0.5,0.5h-9.4c-0.3,0-0.4,0.2-0.4,0.4L211,45c-0.1,0.6,0.4,1.1,0.9,1.1h8.8c0.4,0,0.6,0.2,0.6,0.5
				c-0.1,6.3-0.9,10-2.1,11.1c-1.2,1.2-4.1,1.4-8.5,0.6c-0.4-0.1-0.7-0.4-0.8-0.9l0-0.1c-0.1-0.6,0.5-1.1,1.1-1
				c1.9,0.3,3.7,0.5,5.4,0.4c1-0.1,1.6-0.4,1.9-1c0.6-1.2,1-3.7,1.2-7.4c0-0.1-0.1-0.2-0.3-0.2h-8.6V49z M222.9,58.6l-0.1-0.2
				c-0.3-0.5,0-1.2,0.5-1.4c2-0.6,4.2-1.4,6.3-2.5c0.6-0.3,0.7-1.1,0.2-1.6c-1.2-1.1-2.3-2.5-3.3-4.2c-0.3-0.5-0.1-1.1,0.4-1.4
				l0.1,0c0.4-0.2,0.9,0,1.2,0.4c1,1.7,2.3,3.2,3.7,4.5c0.3,0.3,0.8,0.3,1.2,0.1c1.8-1.4,3.4-3.1,4.6-5.1c0.4-0.6-0.1-1.4-0.8-1.4
				h-12.2c-0.5,0-0.9-0.4-0.9-0.9v-0.1c0-0.5,0.4-0.9,0.9-0.9h14.7c0.2,0,0.5,0.1,0.7,0.3l0.4,0.4c0.3,0.3,0.4,0.7,0.2,1
				c-1.1,2.9-2.8,5.4-5.3,7.4c-0.5,0.5-0.4,1.3,0.2,1.6c2,0.8,4.4,1.4,7,1.8c0.6,0.1,1,0.7,0.8,1.2l0,0.1c-0.1,0.4-0.6,0.7-1,0.7
				c-3.4-0.4-6.6-1.4-9.5-3.1c-0.3-0.2-0.7-0.2-1,0c-3.1,1.9-6,3.1-8.4,3.6C223.5,59.2,223.1,59,222.9,58.6z M228.7,34.5v1.9
				c0,0.8-0.2,1.6-0.5,2.2c-0.5,1.1-1.6,2.1-3.1,2.9c-0.5,0.2-1,0.1-1.3-0.4l-0.1-0.2c-0.3-0.5-0.1-1.1,0.4-1.3
				c0.5-0.2,0.9-0.5,1.2-0.7c1-0.6,1.4-1.7,1.4-3.1v-3.1l0.1-0.3l0.3-0.1h9.4l0.3,0.1l0.2,0.3v5.7l0.1,0.7c0.1,0.1,0.4,0.2,0.8,0.3
				h2l0.6-0.2c0.2,0,0.3-0.3,0.3-0.8l0.1-0.8c0.1-0.5,0.6-0.9,1.1-0.8l0,0c0.5,0.1,0.8,0.5,0.8,1c-0.2,1.7-0.5,2.7-0.8,2.9
				c-0.5,0.4-0.9,0.6-1.3,0.6H237c-0.6,0-1-0.2-1.4-0.6c-0.4-0.4-0.6-0.9-0.6-1.4v-4.8c0-0.2-0.1-0.3-0.3-0.3h-5.7
				C228.8,34.3,228.7,34.3,228.7,34.5z M244.2,33.9L244.2,33.9c-0.3,0.4-0.8,0.5-1.2,0.4c-5.9-2.5-11.2-6-15.8-10.5
				c-0.3-0.3-0.4-0.8-0.1-1.2l0-0.1c0.3-0.5,1-0.6,1.5-0.1l1.8,1.8c0.4,0.4,0.9,0.4,1.3,0c1.1-1,2-1.9,2.7-2.8
				c0.4-0.4,1-0.5,1.4-0.1l0.1,0.1c0.4,0.3,0.4,0.9,0.1,1.3c-0.7,0.9-1.6,1.7-2.6,2.7c-0.4,0.4-0.4,1.1,0.1,1.5
				c0.6,0.4,1.1,0.8,1.6,1.2c0.4,0.3,0.9,0.2,1.2-0.1c1.1-1.1,2-2,2.7-2.9c0.3-0.4,1-0.5,1.4-0.1l0.1,0.1c0.4,0.3,0.4,0.9,0.1,1.3
				c-0.6,0.7-1.3,1.5-2.1,2.3c-0.5,0.4-0.4,1.2,0.2,1.5c1.5,0.8,3.2,1.6,5.2,2.4C244.4,32.7,244.6,33.5,244.2,33.9z"/>
			<path class="st33" d="M281.7,47.9L281.7,47.9c0.2,0.5,0.1,1-0.3,1.3c-1.6,1-3.4,2-5.4,2.9c-0.7,0.3-0.8,1.4-0.1,1.8
				c2.1,1.2,4.8,2.1,7.9,3c0.6,0.2,0.9,0.8,0.6,1.4l-0.3,0.7l-0.4-0.1c-8.9-1.7-15-6.3-18.4-13.7c-0.2-0.4-0.5-0.6-0.9-0.6h-3.6
				c-0.5,0-1,0.4-1,1v10c0,0.6,0.5,1.1,1.2,1c2.1-0.3,4-0.8,5.7-1.2c0.5-0.1,1.1,0.2,1.2,0.7l0,0c0.1,0.5-0.2,1.1-0.7,1.2
				c-3.7,1-8.1,1.7-13.2,2.1c-0.5,0-1-0.4-1.1-0.9l0,0c0-0.5,0.4-1,0.9-1l3.2-0.3c0.5,0,0.9-0.5,0.9-1V45.5c0-0.5-0.4-1-1-1h-5
				c-0.5,0-0.9,0.4-1,0.9c-0.2,2.3-0.6,4.5-1.2,6.7c-0.5,1.9-1.1,3.5-1.8,4.8c-0.3,0.5-0.8,0.7-1.3,0.4l-0.2-0.1
				c-0.5-0.3-0.7-0.9-0.4-1.3c2-3.9,3.1-8.6,3.1-14V22.7c0-0.5,0.3-0.7,0.7-0.7h32.9c0.6,0,0.8,0.2,0.8,0.7v6.4c0,1-0.8,1.8-1.8,1.8
				h-5.8c-0.5,0-1,0.4-1,1v3c0,0.5,0.4,1,1,1h6.8c0.5,0,1,0.4,1,1v0c0,0.5-0.4,1-1,1h-6.8c-0.5,0-1,0.4-1,1v2.8c0,0.5,0.4,1,1,1h8.5
				c0.5,0,1,0.4,1,1v0c0,0.5-0.4,1-1,1h-15.4c-0.8,0-1.2,0.8-0.9,1.5c1.1,2,2.4,3.7,3.9,5.1c0.3,0.3,0.7,0.3,1.1,0.2
				c3-1.3,5.5-2.5,7.4-3.7C280.8,47.2,281.4,47.4,281.7,47.9z M251.9,28.9H280c0.7,0,1.3-0.6,1.3-1.3v-2.3c0-0.7-0.6-1.2-1.2-1.2
				h-28.9c-0.2,0-0.3,0-0.3,0.3v3.7C251,28.5,251.4,28.9,251.9,28.9z M260.1,41.6v-2.8c0-0.5-0.4-1-1-1h-4.9c-0.5,0-1-0.4-1-1v0
				c0-0.5,0.4-1,1-1h4.9c0.5,0,1-0.4,1-1v-3c0-0.5-0.4-1-1-1h-7.1c-0.5,0-1,0.4-1,1v9.7c0,0.5,0.4,1,1,1h7.1
				C259.6,42.6,260.1,42.1,260.1,41.6z M271.7,30.9H263c-0.5,0-1,0.4-1,1v3c0,0.5,0.4,1,1,1h8.7c0.5,0,1-0.4,1-1v-3
				C272.7,31.3,272.3,30.9,271.7,30.9z M272.7,41.6v-2.8c0-0.5-0.4-1-1-1H263c-0.5,0-1,0.4-1,1v2.8c0,0.5,0.4,1,1,1h8.7
				C272.3,42.6,272.7,42.1,272.7,41.6z"/>
			<path class="st33" d="M304.6,27.7L304.6,27.7c0.5,0.2,0.8,0.7,0.6,1.2c-1,3-1.9,5.4-2.6,7.2c-0.3,0.6,0.2,1.3,0.9,1.3h4.6
				c0.5,0,1,0.4,1,1v0c0,0.5-0.4,1-1,1h-20.2c-0.5,0-1-0.4-1-1v0c0-0.5,0.4-1,1-1h11.3c0.4,0,0.7-0.2,0.9-0.6
				c1.2-2.8,2.3-5.7,3.2-8.5C303.5,27.8,304,27.5,304.6,27.7z M297.7,20.9L297.7,20.9c0.6,0,1,0.4,1,1v1c0,0.5,0.4,1,1,1h7.2
				c0.5,0,1,0.4,1,1v0c0,0.5-0.4,1-1,1H289c-0.5,0-1-0.4-1-1v0c0-0.5,0.4-1,1-1h6.7c0.5,0,1-0.4,1-1v-1
				C296.8,21.3,297.2,20.9,297.7,20.9z M290.7,59.5L290.7,59.5c-0.6,0-1-0.4-1-1V44.4c0-0.5,0.2-0.6,0.6-0.6h14.5
				c0.9,0,1.7,0.8,1.7,1.7v13c0,0.5-0.4,1-1,1h0c-0.5,0-1-0.4-1-1v-1c0-0.5-0.4-1-1-1h-10.9c-0.5,0-1,0.4-1,1v1
				C291.7,59.1,291.2,59.5,290.7,59.5z M292.3,28.4c0.8,2.1,1.6,4.3,2.2,6.5c0.1,0.5-0.2,1.1-0.7,1.2l0,0c-0.5,0.1-1-0.2-1.2-0.7
				c-0.5-2-1.2-4.1-2.1-6.3c-0.2-0.5,0.1-1.1,0.6-1.3h0C291.6,27.7,292.1,27.9,292.3,28.4z M303.6,54.6c0.5,0,1-0.4,1-1V46
				c0-0.2-0.1-0.3-0.3-0.3H292c-0.2,0-0.3,0.1-0.3,0.3v7.6c0,0.5,0.4,1,1,1H303.6z M314.3,24c-0.7,0-1.2,0.6-1.2,1.2v33.2
				c0,0.5-0.4,1-1,1h0c-0.5,0-1-0.4-1-1V22.3c0-0.2,0.1-0.3,0.3-0.3h11.7c0.2,0,0.4,0.1,0.6,0.2l0.5,0.4c0.3,0.3,0.4,0.7,0.3,1
				l-3.8,12.1c-0.1,0.3-0.1,0.6,0,0.8c2.1,2.5,3.6,4.8,4.4,6.8c0,0,0,0.1,0,0.1c1.3,3.9,1.3,7,0,9.4c-0.6,1.1-1.3,1.8-2.3,2.3
				c-0.7,0.3-1.6,0.5-2.6,0.6c-0.9,0-2.1-0.3-3.7-0.9c-0.4-0.1-0.7-0.6-0.7-1l0-0.2c0-0.6,0.7-1,1.3-0.8c2.1,0.7,3.7,0.9,4.7,0.5
				c1.9-0.7,2.6-2.9,2.3-6.5c0-0.1,0-0.1,0-0.2c-0.5-2.5-2.4-5.8-5.5-9.8c-0.2-0.2-0.3-0.5-0.2-0.8l3.4-10.7
				c0.2-0.6-0.3-1.3-0.9-1.3H314.3z"/>
		</g>
	</g>
	<g>
		<rect x="82.4" y="6.2" class="st34" width="54.9" height="17.6"/>
		<text transform="matrix(1 0 0 1 82.4137 16.9653)" class="st35 st36 st37">聯合報</text>
	</g>
	<g>
		<g>
			<path class="st38" d="M134.4,8.7h5.1c2.8,0,3.9,0.7,3.9,2.3c0,1.2-0.5,1.6-1.5,1.8c1.2,0.3,1.7,0.9,1.7,2.1c0,1.6-1.6,2.4-4,2.4
				h-4.2c-0.6,0-1.2-0.5-1.2-1.2V8.7z M139,12.1c0.7,0,0.9-0.2,0.9-0.7s-0.2-0.7-1-0.7H138v1.4H139z M139,15.3
				c0.9,0,1.1-0.2,1.1-0.8c0-0.5-0.2-0.8-1-0.8h-1v1.6H139z"/>
			<path class="st38" d="M153.7,15.2l0.9,2.2h-2.9c-0.5,0-0.9-0.3-1.1-0.7L150,15c-0.2-0.4-0.4-0.6-0.9-0.6c0,0-0.6,0-0.6,0v2.9
				h-3.7V9.9c0-0.6,0.5-1.2,1.2-1.2h4.3c2.9,0,4,1,4,2.9c0,1.3-0.7,2-1.7,2.4C153.1,14.2,153.4,14.5,153.7,15.2z M149.6,12.6
				c0.9,0,1.2-0.2,1.2-0.9c0-0.6-0.4-0.9-1.1-0.9h-1.2v1.8H149.6z"/>
			<path class="st38" d="M159,16.5c-0.1,0.5-0.6,0.8-1.1,0.8h-2.6l2.8-7.9c0.2-0.5,0.6-0.8,1.1-0.8h3c0.5,0,0.9,0.3,1.1,0.8l2.8,7.9
				h-3c-0.5,0-1-0.3-1.1-0.8l-0.1-0.4c0,0-2.7,0-2.7,0L159,16.5z M160.8,12.5c-0.2-0.5-0.3-1.3-0.3-1.3s-0.2,0.8-0.3,1.3l-0.4,1.4
				h1.5L160.8,12.5z"/>
			<path class="st38" d="M167.5,8.7h3.7l1.7,3.2c0.3,0.5,0.5,1.1,0.5,1.1V8.7h3.1v8.6h-3c-0.4,0-0.8-0.2-1-0.6l-1.4-2.6
				c-0.3-0.5-0.5-1.1-0.5-1.1v4.3h-3.1V8.7z"/>
			<path class="st38" d="M178.3,9.9c0-0.6,0.5-1.2,1.2-1.2h3.5c3,0,4.8,1.3,4.8,4.3c0,2.9-1.8,4.3-4.8,4.3h-3.4
				c-0.6,0-1.2-0.5-1.2-1.2V9.9z M182.6,15c1.2,0,1.4-0.3,1.4-1.8s-0.3-2-1.4-2H182V15H182.6z"/>
		</g>
		<g>
			<path class="st38" d="M191.7,16.1c0-0.6,0.5-1.2,1.2-1.2h2.6c0.3,0,0.5-0.2,0.5-0.4c0-0.2-0.2-0.4-0.5-0.4h-1.4
				c-1.9,0-2.7-1.2-2.7-2.7c0-1.5,0.8-2.7,2.7-2.7h4.9V10c0,0.6-0.5,1.2-1.2,1.2h-2.5c-0.3,0-0.5,0.2-0.5,0.4c0,0.2,0.2,0.4,0.5,0.4
				h1.5c1.9,0,2.6,1.1,2.6,2.7c0,1.6-0.8,2.7-2.6,2.7h-5.2V16.1z"/>
			<path class="st38" d="M202.3,11.2h-2.5V8.7h8.6v2.4h-2.5v6.2h-3.7V11.2z"/>
			<path class="st38" d="M209.1,13.7v-5h2.5c0.6,0,1.2,0.5,1.2,1.2v3.4c0,1.4,0.1,1.8,0.9,1.8c0.8,0,1-0.4,1-1.8V9.9
				c0-0.6,0.5-1.2,1.2-1.2h2.5v5c0,2.9-1.7,3.8-4.7,3.8C210.7,17.5,209.1,16.6,209.1,13.7z"/>
			<path class="st38" d="M219.6,9.9c0-0.6,0.5-1.2,1.2-1.2h3.5c3,0,4.8,1.3,4.8,4.3c0,2.9-1.8,4.3-4.8,4.3h-3.4
				c-0.6,0-1.2-0.5-1.2-1.2V9.9z M223.9,15c1.2,0,1.4-0.3,1.4-1.8s-0.3-2-1.4-2h-0.6V15H223.9z"/>
			<path class="st38" d="M230.1,8.7h2.5c0.6,0,1.2,0.5,1.2,1.2v7.5h-2.5c-0.6,0-1.2-0.5-1.2-1.2V8.7z"/>
			<path class="st38" d="M234.6,13c0-3,1.8-4.5,4.9-4.5c3.2,0,4.9,1.5,4.9,4.5c0,2.9-1.8,4.5-4.9,4.5C236.4,17.5,234.6,16,234.6,13z
				 M240.8,13c0-1.7-0.3-2.1-1.2-2.1s-1.2,0.4-1.2,2.1c0,1.6,0.3,2.1,1.2,2.1S240.8,14.7,240.8,13z"/>
		</g>
		<path class="st38" d="M121.5,13.7v-5h2.5c0.6,0,1.2,0.5,1.2,1.2v3.4c0,1.4,0.1,1.8,0.9,1.8c0.8,0,1-0.4,1-1.8V9.9
			c0-0.6,0.5-1.2,1.2-1.2h2.5v5c0,2.9-1.7,3.8-4.7,3.8C123.1,17.5,121.5,16.5,121.5,13.7z"/>
	</g>
</g>
</svg>
