<?xml version="1.0" encoding="utf-8"?>
<!-- Generator: Adobe Illustrator 19.1.0, SVG Export Plug-In . SVG Version: 6.00 Build 0)  -->
<svg version="1.1" id="圖層_1" xmlns="http://www.w3.org/2000/svg" xmlns:xlink="http://www.w3.org/1999/xlink" x="0px" y="0px"
	 viewBox="0 0 329.2 67" style="enable-background:new 0 0 329.2 67;" xml:space="preserve">
<style type="text/css">
	.st0{fill:#040000;}
	.st1{fill:none;stroke:#FFFFFF;stroke-width:2;stroke-miterlimit:10;}
	.st2{fill:#908F8F;}
	.st3{fill:none;stroke:#908F8F;stroke-width:2;stroke-miterlimit:10;}
	.st4{clip-path:url(#SVGID_4_);}
	.st5{fill:#ABC71D;}
	.st6{fill:#128B3C;}
	.st7{fill:#0C723B;}
	.st8{fill:#931D57;}
	.st9{fill:#51A737;}
	.st10{fill:#8DBC3A;}
	.st11{fill:#EFB91B;}
	.st12{fill:#DE601E;}
	.st13{fill:#E58213;}
	.st14{fill:#DD5819;}
	.st15{fill:#E16A27;}
	.st16{fill:#DE8111;}
	.st17{fill:#EEB91B;}
	.st18{fill:#DD521F;}
	.st19{fill:#791D49;}
	.st20{fill:#D31478;}
	.st21{fill:#ECA517;}
	.st22{fill:#74151A;}
	.st23{fill:#75161B;}
	.st24{fill:#D1181D;}
	.st25{fill:#BC2121;}
	.st26{fill:#AF1E24;}
	.st27{fill:#610F16;}
	.st28{fill:#E16E2A;}
	.st29{fill:#EDBA19;}
	.st30{fill:#6B183D;}
	.st31{fill:#EBA218;}
	.st32{fill:#EBA517;}
	.st33{fill:#FFFFFF;}
	.st34{fill:#4D4D4D;}
	.st35{fill:#898989;}
</style>
<g>
	<rect x="13.5" y="25.1" class="st33" width="0.6" height="18.5"/>
	<rect x="16.8" y="23.9" class="st33" width="0.6" height="19.7"/>
	<rect x="20.1" y="23.2" class="st33" width="0.6" height="20.5"/>
	<rect x="23.3" y="17.8" class="st33" width="0.6" height="25.8"/>
	<rect x="26.6" y="12.3" class="st33" width="0.6" height="31.3"/>
	<rect x="29.9" y="11.1" class="st33" width="0.6" height="32.5"/>
	<rect x="33.2" y="13.1" class="st33" width="0.6" height="30.5"/>
	<rect x="36.5" y="8.5" class="st33" width="0.6" height="35.1"/>
	<rect x="39.8" y="7.5" class="st33" width="0.6" height="36.1"/>
	<rect x="43.1" y="9.3" class="st33" width="0.6" height="34.3"/>
	<rect x="46.4" y="25.9" class="st33" width="0.6" height="17.7"/>
	<rect x="49.6" y="28.1" class="st33" width="0.6" height="15.5"/>
	<rect x="52.9" y="26.7" class="st33" width="0.6" height="16.9"/>
	<rect x="56.2" y="20.5" class="st33" width="0.6" height="23.1"/>
	<rect x="59.5" y="14.6" class="st33" width="0.6" height="29.1"/>
	<rect x="62.8" y="9.7" class="st33" width="0.6" height="33.9"/>
	<rect x="66.1" y="11.7" class="st33" width="0.6" height="31.9"/>
	<rect x="69.4" y="13.7" class="st33" width="0.6" height="29.9"/>
	<rect x="72.6" y="19.6" class="st33" width="0.6" height="24"/>
	<rect x="75.9" y="17.5" class="st33" width="0.6" height="26.2"/>
	<rect x="13.1" y="57.2" class="st35" width="305.9" height="0.6"/>
	<rect x="79.2" y="14.3" class="st33" width="0.6" height="29.3"/>
	<rect x="82.5" y="10.7" class="st33" width="0.6" height="32.9"/>
	<rect x="85.8" y="11.7" class="st33" width="0.6" height="31.9"/>
	<rect x="89.1" y="10.6" class="st33" width="0.6" height="33.1"/>
	<rect x="95.8" y="14.9" class="st33" width="0.6" height="28.7"/>
	<rect x="99.1" y="24.5" class="st33" width="0.6" height="19.1"/>
	<rect x="102.4" y="22.4" class="st33" width="0.6" height="21.2"/>
	<rect x="105.6" y="21" class="st33" width="0.6" height="22.6"/>
	<rect x="108.9" y="13.5" class="st33" width="0.6" height="30.1"/>
	<rect x="112.2" y="12.4" class="st33" width="0.6" height="31.2"/>
	<rect x="115.5" y="11.7" class="st33" width="0.6" height="31.9"/>
	<rect x="118.8" y="11.6" class="st33" width="0.6" height="32.1"/>
	<rect x="122.1" y="13.5" class="st33" width="0.6" height="30.1"/>
	<rect x="125.4" y="15" class="st33" width="0.6" height="28.6"/>
	<rect x="128.6" y="13" class="st33" width="0.6" height="30.6"/>
	<rect x="131.9" y="20.2" class="st33" width="0.6" height="23.4"/>
	<rect x="135.2" y="19.2" class="st33" width="0.6" height="24.4"/>
	<rect x="138.5" y="25" class="st33" width="0.6" height="18.6"/>
	<path class="st33" d="M92.4,9.6H93v34h-0.6V9.6z"/>
	<polygon class="st33" points="20.1,53.6 13.6,45 13.6,45 13.4,45 13.4,54.8 14,54.8 14,46.4 20.5,55 20.5,55 20.6,55 20.6,45.2 
		20.1,45.2 	"/>
	<polygon class="st33" points="23.8,50.2 28.3,50.2 28.3,49.7 23.8,49.7 23.8,45.7 28.8,45.7 28.8,45.2 23.2,45.2 23.2,54.8 
		29,54.8 29,54.3 23.8,54.3 	"/>
	<polygon class="st33" points="39.2,53.5 36.3,45 36.2,45 36.1,45 33.2,53.5 30.7,45.2 30.7,45.2 30.1,45.2 33.1,55 33.1,55 
		33.2,55 36.2,46.4 39.1,55 39.3,55 42.2,45.2 41.7,45.2 	"/>
	<polygon class="st33" points="51.9,50.6 47.6,45 47.6,45 47.5,45 47.5,54.8 48,54.8 48,46.4 51.8,51.4 51.8,51.4 51.9,51.4 
		55.8,46.4 55.8,54.8 56.3,54.8 56.3,45 56.2,45 	"/>
	<polygon class="st33" points="59.5,50.2 64,50.2 64,49.7 59.5,49.7 59.5,45.7 64.5,45.7 64.5,45.2 59,45.2 59,54.8 64.7,54.8 
		64.7,54.3 59.5,54.3 	"/>
	<path class="st33" d="M68.9,45.2h-2.2v9.6h2.2c3.1,0,5.1-1.8,5.1-4.8C73.9,47.1,71.9,45.2,68.9,45.2z M68.8,45.7
		c2.8,0,4.5,1.6,4.5,4.3c0,2.7-1.7,4.3-4.5,4.3h-1.5v-8.5H68.8z"/>
	<rect x="75.9" y="45.2" class="st33" width="0.6" height="9.6"/>
	<path class="st33" d="M82.3,45h-0.1l-3.9,9.8h0.6L80,52h4.6l1.1,2.8h0.6L82.3,45L82.3,45z M84.3,51.5h-4.1l2.1-5.2L84.3,51.5z"/>
	<path class="st33" d="M98.8,52.7c-0.8,1.1-2.1,1.7-3.5,1.7c-2.5,0-4.3-1.9-4.3-4.4c0-2.5,1.8-4.4,4.2-4.4c1.3,0,2.5,0.5,3.3,1.5
		l0,0l0.4-0.3l0-0.1c-0.9-1.1-2.2-1.7-3.7-1.7c-2.7,0-4.8,2.1-4.8,4.9c0,1.4,0.5,2.6,1.4,3.5c0.9,0.9,2.2,1.4,3.5,1.4
		c1.6,0,3-0.7,3.9-1.9l0-0.1L98.8,52.7L98.8,52.7z"/>
	<polygon class="st33" points="101.7,50.2 106.1,50.2 106.1,49.7 101.7,49.7 101.7,45.7 106.7,45.7 106.7,45.2 101.1,45.2 
		101.1,54.8 106.9,54.8 106.9,54.3 101.7,54.3 	"/>
	<polygon class="st33" points="115.5,53.6 109,45 109,45 108.8,45 108.8,54.8 109.4,54.8 109.4,46.4 115.8,55 115.9,55 116,55 
		116,45.2 115.5,45.2 	"/>
	<polygon class="st33" points="117.6,45.7 120.7,45.7 120.7,54.8 121.2,54.8 121.2,45.7 124.3,45.7 124.3,45.2 117.6,45.2 	"/>
	<polygon class="st33" points="126.4,50.2 130.9,50.2 130.9,49.7 126.4,49.7 126.4,45.7 131.4,45.7 131.4,45.2 125.9,45.2 
		125.9,54.8 131.6,54.8 131.6,54.3 126.4,54.3 	"/>
	<path class="st33" d="M137.1,50.5c1.4-0.3,2.2-1.3,2.2-2.6c0-1.7-1.2-2.7-3-2.7h-2.7v9.6h0.6v-4.2h2.3l2.6,4.1l0,0h0.7L137.1,50.5z
		 M134.2,45.7h2.1c1.5,0,2.4,0.8,2.4,2.2c0,1.3-0.9,2.2-2.4,2.2h-2.1V45.7z"/>
	<g>
		<path class="st33" d="M152,55.4L152,55.4c-0.5,0-0.9-0.4-0.9-0.8v-7.4c0-0.8-1-1.1-1.4-0.5c-1.4,1.8-2.9,3.4-4.5,4.9
			c-0.3,0.2-0.7,0.3-1,0.1v0c-0.4-0.3-0.5-0.9-0.1-1.3c1.8-1.6,3.2-3,4.3-4.4c0.7-0.9,1.3-1.9,2-2.9c0.3-0.5,0-1.2-0.7-1.2l-5.5,0
			c-0.4,0-0.8-0.4-0.8-0.8v-0.1c0-0.4,0.4-0.8,0.8-0.8h6.2c0.4,0,0.8-0.4,0.8-0.8v-2.3c0-0.4-0.4-0.8-0.8-0.8h-6.1
			c-0.4,0-0.8-0.4-0.8-0.8v-0.1c0-0.4,0.4-0.8,0.8-0.8l9,0c0.3,0,0.6-0.2,0.7-0.5c1.1-2.2,1.9-4.1,2.4-5.7c0.1-0.4,0.6-0.6,1-0.5
			l0.1,0c0.4,0.1,0.6,0.6,0.5,1c-0.4,1.4-1,2.9-1.8,4.5c-0.2,0.5,0.1,1.1,0.7,1.1l2.7,0c0.4,0,0.8,0.4,0.8,0.8v0.1
			c0,0.4-0.4,0.8-0.8,0.8h-6c-0.4,0-0.8,0.4-0.8,0.8v2.3c0,0.4,0.4,0.8,0.8,0.8h6c0.4,0,0.8,0.4,0.8,0.8v0.1c0,0.4-0.4,0.8-0.8,0.8
			l-5,0c-0.4,0-0.6,0.5-0.3,0.8c1.5,1.7,3,3.5,4.5,5.3c0.3,0.3,0.2,0.8-0.1,1.1l0,0c-0.4,0.3-0.9,0.2-1.2-0.1
			c-1-1.4-2.3-2.9-3.6-4.6c-0.4-0.4-1.1-0.2-1.1,0.4l0,9.7C152.8,55,152.5,55.4,152,55.4z M152.5,21.5L152.5,21.5
			c0.5,0,0.9,0.4,0.9,0.8v1.8c0,0.4,0.4,0.8,0.8,0.8h5.3c0.4,0,0.8,0.4,0.8,0.8v0.1c0,0.4-0.4,0.8-0.8,0.8h-14.8
			c-0.4,0-0.8-0.4-0.8-0.8v-0.1c0-0.4,0.4-0.8,0.8-0.8h6.2c0.4,0,0.8-0.4,0.8-0.8v-1.8C151.7,21.9,152.1,21.5,152.5,21.5z
			 M147.9,28.4c0.5,1.3,0.9,2.9,1.2,4.7c0.1,0.4-0.2,0.8-0.6,0.9l-0.1,0c-0.4,0.1-0.9-0.2-1-0.6c-0.4-1.8-0.8-3.2-1.2-4.4
			c-0.2-0.4,0.1-0.9,0.5-1l0.1,0C147.3,27.8,147.8,28,147.9,28.4z M165.5,33.1c-0.4,0-0.8,0.4-0.8,0.8v6.5c0,2.6-0.4,4.9-1.2,6.8
			c-0.8,2.2-2.2,4.4-4.1,6.5c-0.3,0.3-0.8,0.4-1.2,0.1l-0.2-0.2c-0.3-0.3-0.3-0.8,0-1.1c2.1-2.4,3.4-4.5,4-6.4
			c0.6-1.7,0.9-3.6,1-5.7V24.5c0-0.4,0.1-0.6,0.4-0.6c4.1-0.2,7.5-0.6,10.4-1.1c0.4-0.1,0.8,0.1,0.9,0.5l0,0.1
			c0.2,0.5-0.1,1-0.6,1.1c-3,0.6-6.1,0.9-9.2,1.1c-0.2,0-0.3,0.1-0.2,0.3v4.7c0,0.4,0.4,0.8,0.8,0.8h11.3c0.4,0,0.8,0.4,0.8,0.8v0.1
			c0,0.4-0.4,0.8-0.8,0.8h-3.6c-0.4,0-0.8,0.4-0.8,0.8v21c0,0.4-0.4,0.8-0.8,0.8h-0.1c-0.4,0-0.8-0.4-0.8-0.8v-21
			c0-0.4-0.4-0.8-0.8-0.8H165.5z"/>
		<path class="st33" d="M179.9,42c-0.3-0.3-0.4-0.7-0.2-1.2c0.9-2.5,1.9-6,2.8-10.4c0.1-0.4-0.2-0.7-0.6-0.7l-2.1,0
			c-0.5,0-0.8-0.4-0.8-0.8v0c0-0.5,0.4-0.8,0.8-0.8h2.6c0.3,0,0.5-0.2,0.6-0.5l0.6-4.4c0.1-0.5,0.5-0.8,1-0.7l0,0
			c0.4,0.1,0.7,0.5,0.7,0.9l-0.6,4.1c0,0.3,0.2,0.6,0.6,0.6h4.7c0.3,0,0.4,0.1,0.3,0.5v0.1c-0.2,6.5-1.3,12.2-3.3,16.9
			c-0.1,0.2,0,0.5,0.1,0.6l2.3,2c0.3,0.3,0.4,0.7,0.1,1.1l0,0c-0.3,0.4-0.9,0.5-1.2,0.2l-1.7-1.5c-0.3-0.2-0.7-0.2-0.9,0.1
			c-1.3,2.1-3,4.2-5,6.2c-0.3,0.3-0.7,0.3-1,0.1l0,0c-0.4-0.3-0.5-0.9-0.1-1.3c1.6-1.4,2.8-2.8,3.7-4c0,0,0,0,0,0l1.3-2.2
			c0.1-0.2,0.1-0.5-0.1-0.7L179.9,42z M188,29.7l-3.2,0c-0.3,0-0.5,0.2-0.6,0.5c-0.6,3.1-1.5,6.7-2.8,10.7c-0.1,0.2,0,0.4,0.3,0.6
			l3.8,3.4l0.3-0.6c0.7-1.5,1.3-3.6,1.9-6.2c0.4-2.2,0.7-4.8,0.9-7.6C188.6,30,188.4,29.7,188,29.7z M190.5,42L190.5,42
			c0-0.5,0.4-0.9,0.8-0.9h8.6c0.3,0,0.6-0.3,0.6-0.6v-2.4c0-0.3-0.3-0.6-0.6-0.6h-5.4c-0.5,0-0.8-0.3-0.8-0.8v-9.7
			c0-0.3-0.3-0.6-0.6-0.6h-2.3c-0.5,0-0.8-0.4-0.8-0.8v0c0-0.5,0.4-0.8,0.8-0.8h2.3c0.3,0,0.6-0.3,0.6-0.6v-1.8
			c0-0.5,0.4-0.8,0.8-0.8h0c0.5,0,0.8,0.4,0.8,0.8v1.8c0,0.3,0.3,0.6,0.6,0.6h10.4c0.3,0,0.6-0.3,0.6-0.6v-1.8
			c0-0.5,0.4-0.8,0.8-0.8h0c0.5,0,0.8,0.4,0.8,0.8v1.8c0,0.3,0.3,0.6,0.6,0.6h2.5c0.5,0,0.8,0.4,0.8,0.8v0c0,0.5-0.4,0.8-0.8,0.8
			h-2.5c-0.3,0-0.6,0.3-0.6,0.6v9.1c0,0.8-0.6,1.4-1.4,1.4h-4.5c-0.3,0-0.6,0.3-0.6,0.6v2.4c0,0.3,0.3,0.6,0.6,0.6h8.8
			c0.5,0,0.8,0.4,0.8,0.8v0c0,0.5-0.4,0.8-0.8,0.8l-7.7,0c-0.5,0-0.7,0.5-0.5,0.9c2.2,3,5.1,5.7,8.8,8.1c0.4,0.3,0.5,0.9,0.1,1.3
			l0,0c-0.3,0.3-0.7,0.3-1,0.1c-2.9-1.9-5.2-4.4-7.7-6.7c-1-1-1.4-0.2-1.4,0.5v7.8c0,0.5-0.4,0.8-0.8,0.8l0,0
			c-0.5,0-0.8-0.4-0.8-0.8l0-9.4c0-0.3-0.3-0.4-0.5-0.2c-3.2,3.7-6.5,6.5-9.9,8.3c-0.3,0.2-0.8,0.1-1-0.2l-0.1-0.1
			c-0.3-0.4-0.2-1,0.2-1.3c3.8-2.2,7.2-5,9.9-8.3c0.3-0.4,0-0.9-0.4-0.9l-7.4,0C190.9,42.9,190.5,42.5,190.5,42z M206.4,26.6H196
			c-0.3,0-0.6,0.3-0.6,0.6v2.8c0,0.3,0.3,0.6,0.6,0.6h10.4c0.3,0,0.6-0.3,0.6-0.6v-2.8C207,26.8,206.7,26.6,206.4,26.6z M195.5,35.1
			c0,0.5,0.4,0.9,0.9,0.9h9.8c0.5,0,0.9-0.4,0.9-0.9v-2.3c0-0.3-0.3-0.6-0.6-0.6H196c-0.3,0-0.6,0.3-0.6,0.6V35.1z"/>
		<path class="st33" d="M217.1,24.3c0-0.8,0.6-1.4,1.4-1.4h7.3c0.8,0,1.4,0.6,1.4,1.4v7.2c0,0.5,0.4,0.8,0.8,0.8h0.5
			c0.3,0,0.3,0.2,0.3,0.6c-0.1,1.2-0.2,2.5-0.4,3.7c-0.1,0.5-0.5,0.7-1,0.6l-0.1,0c-0.4-0.1-0.7-0.5-0.6-0.9l0.2-2.1
			c0-0.1,0-0.2-0.2-0.2h-8.4c-0.5,0-1,0.4-1,1v1.6c0,0.5-0.4,0.8-0.8,0.8h-0.1c-0.5,0-0.8-0.4-0.8-0.8v-3.9c0-0.2,0.1-0.3,0.3-0.3
			h1.1V24.3z M218.8,55L218.8,55c-0.5,0-0.9-0.4-0.9-0.8v-16c0-0.7,0.5-1.2,1.2-1.2h7.1c0.3,0,0.4,0.1,0.4,0.4v15.9
			c0,0.7-0.3,1.2-0.8,1.6c-0.5,0.3-1.5,0.4-2.8,0.1c-0.4-0.1-0.7-0.4-0.7-0.8v-0.1c0-0.6,0.5-0.9,1.1-0.8c0.5,0.1,0.9,0.2,1,0
			c0.3-0.2,0.5-0.5,0.5-0.8v-2.9c0-0.5-0.4-0.8-0.8-0.8h-3.7c-0.5,0-0.8,0.4-0.8,0.8v4.5C219.6,54.7,219.3,55,218.8,55z M220.3,32.4
			c0.5,0,0.8-0.4,0.8-0.8v-4.3c0-0.3,0.1-0.4,0.3-0.4h3.3c0.5,0,0.8-0.4,0.8-0.8v-0.4c0-0.6-0.5-1.1-1.1-1.1h-4.7
			c-0.6,0-1.1,0.5-1.1,1.1v5.9c0,0.5,0.4,0.8,0.8,0.8H220.3z M224.2,42.2c0.5,0,0.8-0.4,0.8-0.8v-2.5l-0.1-0.1h-5.1l-0.1,0.1v2.5
			c0,0.5,0.4,0.8,0.8,0.8H224.2z M225,46.4v-1.7c0-0.5-0.4-0.8-0.8-0.8h-3.7c-0.5,0-0.8,0.4-0.8,0.8v1.7c0,0.5,0.4,0.8,0.8,0.8h3.7
			C224.6,47.2,225,46.8,225,46.4z M225.6,31.6v-2.2c0-0.5-0.4-0.8-0.8-0.8h-0.9c-0.6,0-1.1,0.5-1.1,1.1v1.9c0,0.5,0.4,0.8,0.8,0.8
			h1.1C225.2,32.4,225.6,32,225.6,31.6z M233.9,49.2c-0.1-0.3-0.4-0.5-0.7-0.5h-1.7c-0.1,0-0.2-0.1-0.2-0.3v-5.1c0-0.6,0.5-1,1-1
			h14.1c0.2,0,0.3,0.1,0.3,0.2v5.1c0,0.6-0.5,1.1-1.1,1.1h-0.6c-0.3,0-0.7,0.2-0.8,0.5l-0.6,1.7l-0.3,0.8c-0.2,0.5,0.2,1.1,0.8,1.1
			h3.5c0.5,0,0.8,0.4,0.8,0.8v0.1c0,0.5-0.4,0.8-0.8,0.8h-17.3c-0.5,0-0.8-0.4-0.8-0.8v-0.1c0-0.5,0.4-0.8,0.8-0.8h4
			c0.6,0,1-0.6,0.8-1.1C234.6,50.7,234.2,49.8,233.9,49.2z M248.4,39L248.4,39c0,0.5-0.4,0.9-0.8,0.9h-17.3c-0.5,0-0.8-0.4-0.8-0.8
			V39c0-0.5,0.4-0.8,0.8-0.8h17.3C248,38.1,248.4,38.5,248.4,39z M246.5,24.3c0.6,0,1,0.5,1,1v10c0,0.2-0.1,0.3-0.2,0.3h-16.7
			c-0.1,0-0.2-0.1-0.2-0.3v-10c0-0.6,0.5-1,1-1h3.1c0.5,0,0.8-0.4,0.8-0.8v-0.6c0-0.5,0.4-0.8,0.8-0.8h0.1c0.5,0,0.8,0.4,0.8,0.8
			v0.6c0,0.5,0.4,0.8,0.8,0.8h1.6c0.5,0,0.8-0.4,0.8-0.8v-0.6c0-0.5,0.4-0.8,0.8-0.8h0.1c0.5,0,0.8,0.4,0.8,0.8v0.6
			c0,0.5,0.4,0.8,0.8,0.8H246.5z M235.5,26.8c0-0.5-0.4-0.8-0.8-0.8h-2.5l-0.1,0.1v2.2c0,0.5,0.4,0.8,0.8,0.8h1.7
			c0.5,0,0.8-0.4,0.8-0.8V26.8z M234.7,30.8h-1.7c-0.5,0-0.8,0.4-0.8,0.8v2.3l0.1,0.1h2.5c0.5,0,0.8-0.4,0.8-0.8v-1.6
			C235.5,31.1,235.1,30.8,234.7,30.8z M232.9,44L232.9,44l-0.1,2.9l0.1,0.1h11.8l0.1-0.1v-2.9l-0.1-0.1H232.9z M241.1,52.4l1-2.6
			c0.2-0.5-0.2-1.1-0.8-1.1h-4.7c-0.6,0-1,0.6-0.8,1.1l1,2.6c0.1,0.3,0.4,0.5,0.8,0.5h2.7C240.7,52.9,241,52.7,241.1,52.4z
			 M239.6,26H238c-0.5,0-0.8,0.4-0.8,0.8v1.4c0,0.5,0.4,0.8,0.8,0.8h1.6c0.5,0,0.8-0.4,0.8-0.8v-1.4C240.4,26.4,240,26,239.6,26z
			 M239.6,30.8H238c-0.5,0-0.8,0.4-0.8,0.8v1.6c0,0.5,0.4,0.8,0.8,0.8h1.6c0.5,0,0.8-0.4,0.8-0.8v-1.6
			C240.4,31.1,240,30.8,239.6,30.8z M242.9,29.1h2.2c0.5,0,0.8-0.4,0.8-0.8v-2.2l-0.1-0.1h-2.9c-0.5,0-0.8,0.4-0.8,0.8v1.4
			C242.1,28.7,242.4,29.1,242.9,29.1z M242.1,33.2c0,0.5,0.4,0.8,0.8,0.8h2.9l0.1-0.1v-2.3c0-0.5-0.4-0.8-0.8-0.8h-2.2
			c-0.5,0-0.8,0.4-0.8,0.8V33.2z"/>
		<path class="st33" d="M253.2,47.9L253.2,47.9c-0.5,0-0.9-0.4-0.9-0.9V30c0-0.9,0.7-1.5,1.5-1.5h11.3c0.5,0,0.9-0.4,0.9-0.9v-4.3
			c0-0.5,0.4-0.9,0.9-0.9l0,0c0.5,0,0.9,0.4,0.9,0.9v4.3c0,0.5,0.4,0.9,0.9,0.9h12.5c0.4,0,0.7,0.2,0.7,0.6V47
			c0,0.5-0.4,0.9-0.9,0.9h0c-0.5,0-0.9-0.4-0.9-0.9v-0.9c0-0.5-0.4-0.9-0.9-0.9h-10.4c-0.5,0-0.9,0.4-0.9,0.9v8.5
			c0,0.5-0.4,0.9-0.9,0.9l0,0c-0.5,0-0.9-0.4-0.9-0.9v-8.5c0-0.5-0.4-0.9-0.9-0.9H255c-0.5,0-0.9,0.4-0.9,0.9V47
			C254.1,47.5,253.7,47.9,253.2,47.9z M266.1,42.6V31.1c0-0.5-0.4-0.9-0.9-0.9h-10.8c-0.2,0-0.3,0.1-0.3,0.3v12.1
			c0,0.5,0.4,0.9,0.9,0.9h10.1C265.6,43.5,266.1,43.1,266.1,42.6z M280.2,42.6V31.4c0-0.7-0.5-1.2-1.2-1.2h-10.1
			c-0.5,0-0.9,0.4-0.9,0.9v11.5c0,0.5,0.4,0.9,0.9,0.9h10.4C279.8,43.5,280.2,43.1,280.2,42.6z"/>
		<path class="st33" d="M290.1,28.8c-0.1,6.1-1,13.2-2.8,21.4c-0.1,0.4-0.5,0.7-1,0.7l-0.2,0c-0.5-0.1-0.8-0.5-0.7-1
			c1.7-8.5,2.7-15.5,2.8-21c0-0.5,0.4-0.9,0.9-0.8l0.1,0C289.8,28,290.1,28.4,290.1,28.8z M295.6,24.1c0.5,0,0.8,0.4,0.8,0.8v26.3
			c0,0.4,0,0.7,0.1,0.8c0.2,0.2,0.5,0.3,1,0.3h12.1c0.5,0,0.9-0.2,1.1-0.5c0.5-0.8,0.8-3.3,0.9-7.2c0-0.5,0.5-0.9,1-0.8l0,0
			c0.4,0.1,0.6,0.4,0.6,0.8c0.1,4.8-0.3,7.7-1.1,8.6c-0.4,0.5-1.1,0.8-2.1,0.8h-13.3c-0.5,0-0.9-0.1-1.2-0.3
			c-0.6-0.4-0.9-1.2-0.8-2.2V25C294.7,24.5,295.1,24.1,295.6,24.1L295.6,24.1z M303.1,22.9c1.6,5.3,2.7,11.8,3.5,19.4
			c0,0.4-0.3,0.8-0.7,0.9l-0.2,0c-0.5,0.1-0.9-0.3-1-0.7c-0.8-7.9-1.9-14.2-3.4-19c-0.1-0.5,0.1-1,0.6-1.1l0.2,0
			C302.5,22.3,303,22.5,303.1,22.9z M314.5,27.2c2,6,3.4,13.3,4.5,21.9c0.1,0.4-0.3,0.9-0.7,0.9l-0.2,0c-0.5,0.1-0.9-0.3-1-0.7
			c-1.1-9-2.6-16.1-4.4-21.6c-0.2-0.5,0.1-1,0.6-1.1l0.2,0C313.9,26.6,314.3,26.8,314.5,27.2z"/>
	</g>
</g>
</svg>
